G04 Layer: BottomSilkLayer*
G04 EasyEDA v6.3.41, 2020-05-07T17:32:53--4:00*
G04 d717aee7dc5049f39d0e7fcf31ef931a,7404d47bf86b4b15bb797b085195da26,10*
G04 Gerber Generator version 0.2*
G04 Scale: 100 percent, Rotated: No, Reflected: No *
G04 Dimensions in millimeters *
G04 leading zeros omitted , absolute positions ,3 integer and 3 decimal *
%FSLAX33Y33*%
%MOMM*%
G90*
G71D02*

%ADD10C,0.254000*%
%ADD22C,0.152400*%
%ADD23C,0.203200*%
%ADD24C,0.202999*%
%ADD25C,0.499999*%
%ADD26C,0.150012*%

%LPD*%

%LPD*%
G36*
G01X26798Y56084D02*
G01X26766Y56237D01*
G01X26189Y56228D01*
G01X25611Y56219D01*
G01X25587Y56130D01*
G01X25581Y56104D01*
G01X25573Y56063D01*
G01X25562Y56011D01*
G01X25550Y55948D01*
G01X25537Y55877D01*
G01X25523Y55800D01*
G01X25509Y55719D01*
G01X25494Y55635D01*
G01X25479Y55552D01*
G01X25464Y55472D01*
G01X25449Y55396D01*
G01X25434Y55326D01*
G01X25420Y55265D01*
G01X25408Y55214D01*
G01X25397Y55176D01*
G01X25388Y55152D01*
G01X25351Y55074D01*
G01X24617Y54774D01*
G01X24585Y54791D01*
G01X24570Y54801D01*
G01X24538Y54822D01*
G01X24492Y54852D01*
G01X24434Y54891D01*
G01X24365Y54938D01*
G01X24287Y54990D01*
G01X24203Y55047D01*
G01X24115Y55107D01*
G01X24026Y55167D01*
G01X23942Y55223D01*
G01X23865Y55274D01*
G01X23797Y55318D01*
G01X23739Y55354D01*
G01X23694Y55382D01*
G01X23663Y55399D01*
G01X23649Y55405D01*
G01X23635Y55397D01*
G01X23606Y55373D01*
G01X23565Y55336D01*
G01X23513Y55288D01*
G01X23453Y55230D01*
G01X23387Y55166D01*
G01X23316Y55097D01*
G01X23172Y54953D01*
G01X23103Y54882D01*
G01X23037Y54815D01*
G01X22979Y54754D01*
G01X22929Y54700D01*
G01X22889Y54657D01*
G01X22863Y54626D01*
G01X22852Y54609D01*
G01X22841Y54577D01*
G01X23110Y54185D01*
G01X23165Y54105D01*
G01X23218Y54027D01*
G01X23267Y53954D01*
G01X23312Y53886D01*
G01X23350Y53827D01*
G01X23382Y53778D01*
G01X23405Y53741D01*
G01X23419Y53718D01*
G01X23459Y53642D01*
G01X23292Y53249D01*
G01X23125Y52855D01*
G01X22961Y52823D01*
G01X22921Y52815D01*
G01X22867Y52805D01*
G01X22803Y52793D01*
G01X22731Y52779D01*
G01X22653Y52765D01*
G01X22572Y52750D01*
G01X22489Y52735D01*
G01X22407Y52720D01*
G01X22016Y52649D01*
G01X22016Y51488D01*
G01X22120Y51466D01*
G01X22149Y51460D01*
G01X22193Y51452D01*
G01X22248Y51441D01*
G01X22314Y51428D01*
G01X22388Y51414D01*
G01X22468Y51399D01*
G01X22551Y51383D01*
G01X22636Y51367D01*
G01X23049Y51290D01*
G01X23089Y51249D01*
G01X23105Y51224D01*
G01X23130Y51177D01*
G01X23160Y51111D01*
G01X23196Y51032D01*
G01X23234Y50943D01*
G01X23272Y50850D01*
G01X23310Y50756D01*
G01X23345Y50666D01*
G01X23375Y50585D01*
G01X23399Y50516D01*
G01X23415Y50465D01*
G01X23420Y50436D01*
G01X23420Y50389D01*
G01X23133Y49978D01*
G01X23075Y49895D01*
G01X23022Y49816D01*
G01X22973Y49743D01*
G01X22930Y49678D01*
G01X22895Y49624D01*
G01X22869Y49580D01*
G01X22852Y49551D01*
G01X22846Y49536D01*
G01X22854Y49522D01*
G01X22876Y49494D01*
G01X22912Y49454D01*
G01X22959Y49402D01*
G01X23016Y49341D01*
G01X23082Y49273D01*
G01X23154Y49199D01*
G01X23231Y49121D01*
G01X23617Y48735D01*
G01X23656Y48735D01*
G01X23672Y48741D01*
G01X23704Y48758D01*
G01X23749Y48784D01*
G01X23807Y48820D01*
G01X23874Y48862D01*
G01X24030Y48966D01*
G01X24116Y49024D01*
G01X24538Y49312D01*
G01X24747Y49195D01*
G01X24957Y49078D01*
G01X24983Y49106D01*
G01X24989Y49115D01*
G01X24999Y49136D01*
G01X25013Y49167D01*
G01X25031Y49207D01*
G01X25053Y49256D01*
G01X25078Y49313D01*
G01X25105Y49377D01*
G01X25135Y49447D01*
G01X25167Y49522D01*
G01X25200Y49602D01*
G01X25235Y49686D01*
G01X25271Y49772D01*
G01X25325Y49906D01*
G01X25381Y50040D01*
G01X25408Y50107D01*
G01X25436Y50172D01*
G01X25462Y50236D01*
G01X25488Y50298D01*
G01X25512Y50358D01*
G01X25536Y50414D01*
G01X25558Y50468D01*
G01X25579Y50517D01*
G01X25597Y50562D01*
G01X25614Y50603D01*
G01X25629Y50638D01*
G01X25642Y50667D01*
G01X25684Y50768D01*
G01X25718Y50855D01*
G01X25742Y50916D01*
G01X25750Y50945D01*
G01X25738Y50961D01*
G01X25706Y50990D01*
G01X25659Y51027D01*
G01X25600Y51069D01*
G01X25534Y51118D01*
G01X25462Y51175D01*
G01X25395Y51234D01*
G01X25340Y51286D01*
G01X25229Y51400D01*
G01X25147Y51575D01*
G01X25064Y51751D01*
G01X25064Y52357D01*
G01X25148Y52537D01*
G01X25232Y52716D01*
G01X25351Y52848D01*
G01X25470Y52979D01*
G01X25681Y53083D01*
G01X25893Y53187D01*
G01X26196Y53186D01*
G01X26500Y53185D01*
G01X26806Y53045D01*
G01X26976Y52884D01*
G01X27147Y52723D01*
G01X27229Y52538D01*
G01X27312Y52354D01*
G01X27333Y52175D01*
G01X27354Y51997D01*
G01X27314Y51826D01*
G01X27298Y51766D01*
G01X27280Y51708D01*
G01X27260Y51651D01*
G01X27237Y51596D01*
G01X27212Y51542D01*
G01X27185Y51491D01*
G01X27155Y51441D01*
G01X27123Y51393D01*
G01X27089Y51347D01*
G01X27052Y51302D01*
G01X27014Y51260D01*
G01X26972Y51219D01*
G01X26929Y51180D01*
G01X26883Y51143D01*
G01X26835Y51107D01*
G01X26785Y51074D01*
G01X26644Y50985D01*
G01X26644Y50939D01*
G01X26645Y50931D01*
G01X26648Y50917D01*
G01X26654Y50899D01*
G01X26662Y50876D01*
G01X26672Y50848D01*
G01X26684Y50815D01*
G01X26698Y50777D01*
G01X26714Y50734D01*
G01X26732Y50687D01*
G01X26753Y50636D01*
G01X26775Y50580D01*
G01X26799Y50519D01*
G01X26825Y50455D01*
G01X26853Y50386D01*
G01X26882Y50313D01*
G01X26914Y50236D01*
G01X26947Y50155D01*
G01X26982Y50070D01*
G01X27019Y49982D01*
G01X27057Y49889D01*
G01X27097Y49794D01*
G01X27138Y49694D01*
G01X27182Y49591D01*
G01X27226Y49485D01*
G01X27259Y49408D01*
G01X27290Y49335D01*
G01X27318Y49269D01*
G01X27343Y49211D01*
G01X27364Y49162D01*
G01X27381Y49125D01*
G01X27392Y49100D01*
G01X27398Y49090D01*
G01X27419Y49094D01*
G01X27470Y49115D01*
G01X27542Y49149D01*
G01X27628Y49193D01*
G01X27848Y49308D01*
G01X28266Y49022D01*
G01X28350Y48964D01*
G01X28431Y48910D01*
G01X28506Y48862D01*
G01X28573Y48819D01*
G01X28630Y48784D01*
G01X28675Y48758D01*
G01X28708Y48741D01*
G01X28724Y48735D01*
G01X28765Y48735D01*
G01X29141Y49109D01*
G01X29516Y49484D01*
G01X29516Y49577D01*
G01X29228Y50001D01*
G01X28939Y50425D01*
G01X29104Y50841D01*
G01X29137Y50925D01*
G01X29170Y51004D01*
G01X29200Y51076D01*
G01X29228Y51140D01*
G01X29251Y51193D01*
G01X29271Y51234D01*
G01X29285Y51261D01*
G01X29294Y51273D01*
G01X29308Y51278D01*
G01X29340Y51285D01*
G01X29386Y51296D01*
G01X29446Y51308D01*
G01X29517Y51323D01*
G01X29597Y51338D01*
G01X29684Y51355D01*
G01X29870Y51389D01*
G01X30045Y51424D01*
G01X30121Y51439D01*
G01X30188Y51454D01*
G01X30243Y51466D01*
G01X30283Y51476D01*
G01X30307Y51483D01*
G01X30380Y51511D01*
G01X30377Y52072D01*
G01X30373Y52633D01*
G01X30335Y52647D01*
G01X30318Y52652D01*
G01X30281Y52660D01*
G01X30228Y52671D01*
G01X30160Y52684D01*
G01X30081Y52700D01*
G01X29991Y52717D01*
G01X29894Y52736D01*
G01X29791Y52755D01*
G01X29689Y52774D01*
G01X29592Y52793D01*
G01X29504Y52811D01*
G01X29426Y52828D01*
G01X29360Y52844D01*
G01X29308Y52857D01*
G01X29274Y52867D01*
G01X29259Y52874D01*
G01X29250Y52887D01*
G01X29236Y52914D01*
G01X29216Y52954D01*
G01X29193Y53004D01*
G01X29166Y53063D01*
G01X29136Y53130D01*
G01X29104Y53203D01*
G01X29071Y53280D01*
G01X28908Y53660D01*
G01X29200Y54089D01*
G01X29259Y54176D01*
G01X29315Y54260D01*
G01X29366Y54338D01*
G01X29411Y54409D01*
G01X29449Y54471D01*
G01X29479Y54521D01*
G01X29499Y54558D01*
G01X29508Y54579D01*
G01X29524Y54640D01*
G01X29145Y55022D01*
G01X28996Y55171D01*
G01X28929Y55236D01*
G01X28869Y55292D01*
G01X28818Y55339D01*
G01X28778Y55374D01*
G01X28750Y55397D01*
G01X28736Y55405D01*
G01X28720Y55398D01*
G01X28687Y55380D01*
G01X28639Y55351D01*
G01X28577Y55312D01*
G01X28504Y55266D01*
G01X28422Y55212D01*
G01X28333Y55153D01*
G01X28238Y55089D01*
G01X27771Y54773D01*
G01X27407Y54917D01*
G01X27333Y54946D01*
G01X27263Y54975D01*
G01X27197Y55003D01*
G01X27139Y55029D01*
G01X27089Y55052D01*
G01X27049Y55071D01*
G01X27021Y55087D01*
G01X27007Y55097D01*
G01X26971Y55134D01*
G01X26901Y55533D01*
G01X26886Y55616D01*
G01X26871Y55700D01*
G01X26856Y55782D01*
G01X26842Y55860D01*
G01X26828Y55931D01*
G01X26816Y55994D01*
G01X26806Y56046D01*
G01X26798Y56084D01*
G37*

%LPD*%
G54D23*
G01X23528Y72250D02*
G01X25433Y72250D01*
G01X25433Y69710D01*
G01X33Y69710D01*
G01X33Y72250D01*
G54D24*
G01X33Y72250D02*
G01X23528Y72250D01*
G54D23*
G01X23528Y87490D02*
G01X25433Y87490D01*
G01X25433Y84950D01*
G01X33Y84950D01*
G01X33Y87490D01*
G54D24*
G01X33Y87490D02*
G01X23528Y87490D01*
G54D10*
G01X25433Y87490D02*
G01X31021Y87490D01*
G01X31021Y69710D01*
G01X33Y69710D01*
G01X33Y87490D01*
G01X26703Y87490D01*
G01X31021Y84950D02*
G01X26195Y84950D01*
G01X26195Y72250D01*
G01X31021Y72250D01*
G54D25*
G01X30894Y76441D02*
G01X27211Y76441D01*
G01X27211Y83045D01*
G01X29878Y83045D01*
G54D26*
G01X147Y75386D02*
G01X3576Y75386D01*
G01X3576Y81736D01*
G01X20Y81736D01*
G54D23*
G01X14099Y68750D02*
G01X14099Y66810D01*
G01X14099Y68750D02*
G01X13268Y68750D01*
G01X12991Y68658D01*
G01X12899Y68565D01*
G01X12806Y68381D01*
G01X12806Y68196D01*
G01X12899Y68011D01*
G01X12991Y67919D01*
G01X13268Y67826D01*
G01X14099Y67826D02*
G01X13268Y67826D01*
G01X12991Y67734D01*
G01X12899Y67642D01*
G01X12806Y67457D01*
G01X12806Y67180D01*
G01X12899Y66995D01*
G01X12991Y66903D01*
G01X13268Y66810D01*
G01X14099Y66810D01*
G01X11458Y68750D02*
G01X12197Y66810D01*
G01X11458Y68750D02*
G01X10719Y66810D01*
G01X11920Y67457D02*
G01X10996Y67457D01*
G01X9463Y68750D02*
G01X9463Y66810D01*
G01X10109Y68750D02*
G01X8816Y68750D01*
G01X8207Y67642D02*
G01X6544Y67642D01*
G01X14099Y65650D02*
G01X14099Y63710D01*
G01X14099Y65650D02*
G01X13268Y65650D01*
G01X12991Y65558D01*
G01X12899Y65465D01*
G01X12806Y65281D01*
G01X12806Y65096D01*
G01X12899Y64911D01*
G01X12991Y64819D01*
G01X13268Y64726D01*
G01X14099Y64726D02*
G01X13268Y64726D01*
G01X12991Y64634D01*
G01X12899Y64542D01*
G01X12806Y64357D01*
G01X12806Y64080D01*
G01X12899Y63895D01*
G01X12991Y63803D01*
G01X13268Y63710D01*
G01X14099Y63710D01*
G01X11458Y65650D02*
G01X12197Y63710D01*
G01X11458Y65650D02*
G01X10719Y63710D01*
G01X11920Y64357D02*
G01X10996Y64357D01*
G01X9463Y65650D02*
G01X9463Y63710D01*
G01X10109Y65650D02*
G01X8816Y65650D01*
G01X7375Y65373D02*
G01X7375Y63710D01*
G01X8207Y64542D02*
G01X6544Y64542D01*
G01X7115Y32550D02*
G01X6099Y32550D01*
G01X6653Y31811D01*
G01X6376Y31811D01*
G01X6191Y31719D01*
G01X6099Y31626D01*
G01X6006Y31349D01*
G01X6006Y31165D01*
G01X6099Y30887D01*
G01X6284Y30703D01*
G01X6561Y30610D01*
G01X6838Y30610D01*
G01X7115Y30703D01*
G01X7207Y30795D01*
G01X7300Y30980D01*
G01X5397Y32550D02*
G01X4658Y30610D01*
G01X3919Y32550D02*
G01X4658Y30610D01*
G01X3125Y32550D02*
G01X2109Y32550D01*
G01X2663Y31811D01*
G01X2386Y31811D01*
G01X2201Y31719D01*
G01X2109Y31626D01*
G01X2016Y31349D01*
G01X2016Y31165D01*
G01X2109Y30887D01*
G01X2293Y30703D01*
G01X2570Y30610D01*
G01X2848Y30610D01*
G01X3125Y30703D01*
G01X3217Y30795D01*
G01X3309Y30980D01*
G01X28614Y32188D02*
G01X28706Y32373D01*
G01X28891Y32558D01*
G01X29076Y32650D01*
G01X29445Y32650D01*
G01X29630Y32558D01*
G01X29815Y32373D01*
G01X29907Y32188D01*
G01X30000Y31911D01*
G01X30000Y31449D01*
G01X29907Y31172D01*
G01X29815Y30987D01*
G01X29630Y30803D01*
G01X29445Y30710D01*
G01X29076Y30710D01*
G01X28891Y30803D01*
G01X28706Y30987D01*
G01X28614Y31172D01*
G01X28614Y31449D01*
G01X29076Y31449D02*
G01X28614Y31449D01*
G01X28004Y32650D02*
G01X28004Y30710D01*
G01X28004Y32650D02*
G01X26711Y30710D01*
G01X26711Y32650D02*
G01X26711Y30710D01*
G01X26102Y32650D02*
G01X26102Y30710D01*
G01X26102Y32650D02*
G01X25455Y32650D01*
G01X25178Y32558D01*
G01X24993Y32373D01*
G01X24901Y32188D01*
G01X24809Y31911D01*
G01X24809Y31449D01*
G01X24901Y31172D01*
G01X24993Y30987D01*
G01X25178Y30803D01*
G01X25455Y30710D01*
G01X26102Y30710D01*
G01X7115Y11050D02*
G01X6099Y11050D01*
G01X6653Y10311D01*
G01X6376Y10311D01*
G01X6191Y10219D01*
G01X6099Y10126D01*
G01X6006Y9849D01*
G01X6006Y9665D01*
G01X6099Y9387D01*
G01X6284Y9203D01*
G01X6561Y9110D01*
G01X6838Y9110D01*
G01X7115Y9203D01*
G01X7207Y9295D01*
G01X7300Y9480D01*
G01X5397Y11050D02*
G01X4658Y9110D01*
G01X3919Y11050D02*
G01X4658Y9110D01*
G01X3125Y11050D02*
G01X2109Y11050D01*
G01X2663Y10311D01*
G01X2386Y10311D01*
G01X2201Y10219D01*
G01X2109Y10126D01*
G01X2016Y9849D01*
G01X2016Y9665D01*
G01X2109Y9387D01*
G01X2293Y9203D01*
G01X2571Y9110D01*
G01X2848Y9110D01*
G01X3125Y9203D01*
G01X3217Y9295D01*
G01X3309Y9480D01*
G01X28614Y10688D02*
G01X28706Y10873D01*
G01X28891Y11058D01*
G01X29076Y11150D01*
G01X29445Y11150D01*
G01X29630Y11058D01*
G01X29815Y10873D01*
G01X29907Y10688D01*
G01X30000Y10411D01*
G01X30000Y9949D01*
G01X29907Y9672D01*
G01X29815Y9487D01*
G01X29630Y9303D01*
G01X29445Y9210D01*
G01X29076Y9210D01*
G01X28891Y9303D01*
G01X28706Y9487D01*
G01X28614Y9672D01*
G01X28614Y9949D01*
G01X29076Y9949D02*
G01X28614Y9949D01*
G01X28005Y11150D02*
G01X28005Y9210D01*
G01X28005Y11150D02*
G01X26711Y9210D01*
G01X26711Y11150D02*
G01X26711Y9210D01*
G01X26102Y11150D02*
G01X26102Y9210D01*
G01X26102Y11150D02*
G01X25455Y11150D01*
G01X25178Y11058D01*
G01X24993Y10873D01*
G01X24901Y10688D01*
G01X24809Y10411D01*
G01X24809Y9949D01*
G01X24901Y9672D01*
G01X24993Y9487D01*
G01X25178Y9303D01*
G01X25455Y9210D01*
G01X26102Y9210D01*
G54D22*
G01X11906Y37620D02*
G01X11802Y37672D01*
G01X11698Y37776D01*
G01X11646Y37880D01*
G01X11646Y38088D01*
G01X11698Y38192D01*
G01X11802Y38296D01*
G01X11906Y38348D01*
G01X12062Y38400D01*
G01X12322Y38400D01*
G01X12477Y38348D01*
G01X12581Y38296D01*
G01X12685Y38192D01*
G01X12737Y38088D01*
G01X12737Y37880D01*
G01X12685Y37776D01*
G01X12581Y37672D01*
G01X12477Y37620D01*
G01X12322Y37620D01*
G01X12322Y37880D02*
G01X12322Y37620D01*
G01X11646Y37277D02*
G01X12737Y37277D01*
G01X11646Y37277D02*
G01X11646Y36810D01*
G01X11698Y36654D01*
G01X11750Y36602D01*
G01X11854Y36550D01*
G01X12010Y36550D01*
G01X12114Y36602D01*
G01X12166Y36654D01*
G01X12218Y36810D01*
G01X12218Y37277D01*
G01X11646Y36207D02*
G01X12737Y36207D01*
G01X11646Y35552D02*
G01X11698Y35656D01*
G01X11802Y35760D01*
G01X11906Y35812D01*
G01X12062Y35864D01*
G01X12322Y35864D01*
G01X12477Y35812D01*
G01X12581Y35760D01*
G01X12685Y35656D01*
G01X12737Y35552D01*
G01X12737Y35345D01*
G01X12685Y35241D01*
G01X12581Y35137D01*
G01X12477Y35085D01*
G01X12322Y35033D01*
G01X12062Y35033D01*
G01X11906Y35085D01*
G01X11802Y35137D01*
G01X11698Y35241D01*
G01X11646Y35345D01*
G01X11646Y35552D01*
G01X11646Y34170D02*
G01X12373Y34690D01*
G01X12373Y33911D01*
G01X11646Y34170D02*
G01X12737Y34170D01*
G01X14506Y37620D02*
G01X14402Y37672D01*
G01X14298Y37776D01*
G01X14246Y37880D01*
G01X14246Y38088D01*
G01X14298Y38192D01*
G01X14402Y38296D01*
G01X14506Y38348D01*
G01X14662Y38400D01*
G01X14922Y38400D01*
G01X15077Y38348D01*
G01X15181Y38296D01*
G01X15285Y38192D01*
G01X15337Y38088D01*
G01X15337Y37880D01*
G01X15285Y37776D01*
G01X15181Y37672D01*
G01X15077Y37620D01*
G01X14922Y37620D01*
G01X14922Y37880D02*
G01X14922Y37620D01*
G01X14246Y37277D02*
G01X15337Y37277D01*
G01X14246Y37277D02*
G01X14246Y36810D01*
G01X14298Y36654D01*
G01X14350Y36602D01*
G01X14454Y36550D01*
G01X14610Y36550D01*
G01X14714Y36602D01*
G01X14766Y36654D01*
G01X14818Y36810D01*
G01X14818Y37277D01*
G01X14246Y36207D02*
G01X15337Y36207D01*
G01X14246Y35552D02*
G01X14298Y35656D01*
G01X14402Y35760D01*
G01X14506Y35812D01*
G01X14662Y35864D01*
G01X14922Y35864D01*
G01X15077Y35812D01*
G01X15181Y35760D01*
G01X15285Y35656D01*
G01X15337Y35552D01*
G01X15337Y35345D01*
G01X15285Y35241D01*
G01X15181Y35137D01*
G01X15077Y35085D01*
G01X14922Y35033D01*
G01X14662Y35033D01*
G01X14506Y35085D01*
G01X14402Y35137D01*
G01X14298Y35241D01*
G01X14246Y35345D01*
G01X14246Y35552D01*
G01X14454Y34690D02*
G01X14402Y34586D01*
G01X14246Y34430D01*
G01X15337Y34430D01*
G01X14246Y33568D02*
G01X14973Y34087D01*
G01X14973Y33308D01*
G01X14246Y33568D02*
G01X15337Y33568D01*
G01X17106Y37620D02*
G01X17002Y37672D01*
G01X16898Y37776D01*
G01X16846Y37880D01*
G01X16846Y38088D01*
G01X16898Y38192D01*
G01X17002Y38296D01*
G01X17106Y38348D01*
G01X17262Y38400D01*
G01X17522Y38400D01*
G01X17677Y38348D01*
G01X17781Y38296D01*
G01X17885Y38192D01*
G01X17937Y38088D01*
G01X17937Y37880D01*
G01X17885Y37776D01*
G01X17781Y37672D01*
G01X17677Y37620D01*
G01X17522Y37620D01*
G01X17522Y37880D02*
G01X17522Y37620D01*
G01X16846Y37277D02*
G01X17937Y37277D01*
G01X16846Y37277D02*
G01X16846Y36810D01*
G01X16898Y36654D01*
G01X16950Y36602D01*
G01X17054Y36550D01*
G01X17210Y36550D01*
G01X17314Y36602D01*
G01X17366Y36654D01*
G01X17418Y36810D01*
G01X17418Y37277D01*
G01X16846Y36207D02*
G01X17937Y36207D01*
G01X16846Y35552D02*
G01X16898Y35656D01*
G01X17002Y35760D01*
G01X17106Y35812D01*
G01X17262Y35864D01*
G01X17522Y35864D01*
G01X17677Y35812D01*
G01X17781Y35760D01*
G01X17885Y35656D01*
G01X17937Y35552D01*
G01X17937Y35345D01*
G01X17885Y35241D01*
G01X17781Y35137D01*
G01X17677Y35085D01*
G01X17522Y35033D01*
G01X17262Y35033D01*
G01X17106Y35085D01*
G01X17002Y35137D01*
G01X16898Y35241D01*
G01X16846Y35345D01*
G01X16846Y35552D01*
G01X17054Y34690D02*
G01X17002Y34586D01*
G01X16846Y34430D01*
G01X17937Y34430D01*
G01X16846Y33464D02*
G01X16846Y33983D01*
G01X17314Y34035D01*
G01X17262Y33983D01*
G01X17210Y33828D01*
G01X17210Y33672D01*
G01X17262Y33516D01*
G01X17366Y33412D01*
G01X17522Y33360D01*
G01X17625Y33360D01*
G01X17781Y33412D01*
G01X17885Y33516D01*
G01X17937Y33672D01*
G01X17937Y33828D01*
G01X17885Y33983D01*
G01X17833Y34035D01*
G01X17729Y34087D01*
G01X19706Y37620D02*
G01X19602Y37672D01*
G01X19498Y37776D01*
G01X19446Y37880D01*
G01X19446Y38088D01*
G01X19498Y38192D01*
G01X19602Y38296D01*
G01X19706Y38348D01*
G01X19862Y38400D01*
G01X20122Y38400D01*
G01X20277Y38348D01*
G01X20381Y38296D01*
G01X20485Y38192D01*
G01X20537Y38088D01*
G01X20537Y37880D01*
G01X20485Y37776D01*
G01X20381Y37672D01*
G01X20277Y37620D01*
G01X20122Y37620D01*
G01X20122Y37880D02*
G01X20122Y37620D01*
G01X19446Y37277D02*
G01X20537Y37277D01*
G01X19446Y37277D02*
G01X19446Y36810D01*
G01X19498Y36654D01*
G01X19550Y36602D01*
G01X19654Y36550D01*
G01X19810Y36550D01*
G01X19914Y36602D01*
G01X19966Y36654D01*
G01X20018Y36810D01*
G01X20018Y37277D01*
G01X19446Y36207D02*
G01X20537Y36207D01*
G01X19446Y35552D02*
G01X19498Y35656D01*
G01X19602Y35760D01*
G01X19706Y35812D01*
G01X19862Y35864D01*
G01X20122Y35864D01*
G01X20277Y35812D01*
G01X20381Y35760D01*
G01X20485Y35656D01*
G01X20537Y35552D01*
G01X20537Y35345D01*
G01X20485Y35241D01*
G01X20381Y35137D01*
G01X20277Y35085D01*
G01X20122Y35033D01*
G01X19862Y35033D01*
G01X19706Y35085D01*
G01X19602Y35137D01*
G01X19498Y35241D01*
G01X19446Y35345D01*
G01X19446Y35552D01*
G01X19706Y34638D02*
G01X19654Y34638D01*
G01X19550Y34586D01*
G01X19498Y34534D01*
G01X19446Y34430D01*
G01X19446Y34222D01*
G01X19498Y34118D01*
G01X19550Y34067D01*
G01X19654Y34015D01*
G01X19758Y34015D01*
G01X19862Y34067D01*
G01X20018Y34170D01*
G01X20537Y34690D01*
G01X20537Y33963D01*
G01X19446Y32892D02*
G01X20537Y33412D01*
G01X19446Y33620D02*
G01X19446Y32892D01*
G01X19706Y15920D02*
G01X19602Y15972D01*
G01X19498Y16076D01*
G01X19446Y16180D01*
G01X19446Y16388D01*
G01X19498Y16492D01*
G01X19602Y16596D01*
G01X19706Y16648D01*
G01X19862Y16700D01*
G01X20122Y16700D01*
G01X20277Y16648D01*
G01X20381Y16596D01*
G01X20485Y16492D01*
G01X20537Y16388D01*
G01X20537Y16180D01*
G01X20485Y16076D01*
G01X20381Y15972D01*
G01X20277Y15920D01*
G01X20122Y15920D01*
G01X20122Y16180D02*
G01X20122Y15920D01*
G01X19446Y15577D02*
G01X20537Y15577D01*
G01X19446Y15577D02*
G01X19446Y15110D01*
G01X19498Y14954D01*
G01X19550Y14902D01*
G01X19654Y14850D01*
G01X19810Y14850D01*
G01X19914Y14902D01*
G01X19966Y14954D01*
G01X20018Y15110D01*
G01X20018Y15577D01*
G01X19446Y14507D02*
G01X20537Y14507D01*
G01X19446Y13852D02*
G01X19498Y13956D01*
G01X19602Y14060D01*
G01X19706Y14112D01*
G01X19862Y14164D01*
G01X20122Y14164D01*
G01X20277Y14112D01*
G01X20381Y14060D01*
G01X20485Y13956D01*
G01X20537Y13852D01*
G01X20537Y13645D01*
G01X20485Y13541D01*
G01X20381Y13437D01*
G01X20277Y13385D01*
G01X20122Y13333D01*
G01X19862Y13333D01*
G01X19706Y13385D01*
G01X19602Y13437D01*
G01X19498Y13541D01*
G01X19446Y13645D01*
G01X19446Y13852D01*
G01X19706Y12938D02*
G01X19654Y12938D01*
G01X19550Y12886D01*
G01X19498Y12834D01*
G01X19446Y12730D01*
G01X19446Y12522D01*
G01X19498Y12418D01*
G01X19550Y12367D01*
G01X19654Y12315D01*
G01X19758Y12315D01*
G01X19862Y12367D01*
G01X20018Y12470D01*
G01X20537Y12990D01*
G01X20537Y12263D01*
G01X19446Y11192D02*
G01X20537Y11712D01*
G01X19446Y11920D02*
G01X19446Y11192D01*
G01X17106Y15920D02*
G01X17002Y15972D01*
G01X16898Y16076D01*
G01X16846Y16180D01*
G01X16846Y16388D01*
G01X16898Y16492D01*
G01X17002Y16596D01*
G01X17106Y16648D01*
G01X17262Y16700D01*
G01X17522Y16700D01*
G01X17677Y16648D01*
G01X17781Y16596D01*
G01X17885Y16492D01*
G01X17937Y16388D01*
G01X17937Y16180D01*
G01X17885Y16076D01*
G01X17781Y15972D01*
G01X17677Y15920D01*
G01X17522Y15920D01*
G01X17522Y16180D02*
G01X17522Y15920D01*
G01X16846Y15577D02*
G01X17937Y15577D01*
G01X16846Y15577D02*
G01X16846Y15110D01*
G01X16898Y14954D01*
G01X16950Y14902D01*
G01X17054Y14850D01*
G01X17210Y14850D01*
G01X17314Y14902D01*
G01X17366Y14954D01*
G01X17418Y15110D01*
G01X17418Y15577D01*
G01X16846Y14507D02*
G01X17937Y14507D01*
G01X16846Y13852D02*
G01X16898Y13956D01*
G01X17002Y14060D01*
G01X17106Y14112D01*
G01X17262Y14164D01*
G01X17522Y14164D01*
G01X17677Y14112D01*
G01X17781Y14060D01*
G01X17885Y13956D01*
G01X17937Y13852D01*
G01X17937Y13645D01*
G01X17885Y13541D01*
G01X17781Y13437D01*
G01X17677Y13385D01*
G01X17522Y13333D01*
G01X17262Y13333D01*
G01X17106Y13385D01*
G01X17002Y13437D01*
G01X16898Y13541D01*
G01X16846Y13645D01*
G01X16846Y13852D01*
G01X17054Y12990D02*
G01X17002Y12886D01*
G01X16846Y12730D01*
G01X17937Y12730D01*
G01X16846Y11764D02*
G01X16846Y12283D01*
G01X17314Y12335D01*
G01X17262Y12283D01*
G01X17210Y12128D01*
G01X17210Y11972D01*
G01X17262Y11816D01*
G01X17366Y11712D01*
G01X17522Y11660D01*
G01X17625Y11660D01*
G01X17781Y11712D01*
G01X17885Y11816D01*
G01X17937Y11972D01*
G01X17937Y12128D01*
G01X17885Y12283D01*
G01X17833Y12335D01*
G01X17729Y12387D01*
G01X14506Y15920D02*
G01X14402Y15972D01*
G01X14298Y16076D01*
G01X14246Y16180D01*
G01X14246Y16388D01*
G01X14298Y16492D01*
G01X14402Y16596D01*
G01X14506Y16648D01*
G01X14662Y16700D01*
G01X14922Y16700D01*
G01X15077Y16648D01*
G01X15181Y16596D01*
G01X15285Y16492D01*
G01X15337Y16388D01*
G01X15337Y16180D01*
G01X15285Y16076D01*
G01X15181Y15972D01*
G01X15077Y15920D01*
G01X14922Y15920D01*
G01X14922Y16180D02*
G01X14922Y15920D01*
G01X14246Y15577D02*
G01X15337Y15577D01*
G01X14246Y15577D02*
G01X14246Y15110D01*
G01X14298Y14954D01*
G01X14350Y14902D01*
G01X14454Y14850D01*
G01X14610Y14850D01*
G01X14714Y14902D01*
G01X14766Y14954D01*
G01X14818Y15110D01*
G01X14818Y15577D01*
G01X14246Y14507D02*
G01X15337Y14507D01*
G01X14246Y13852D02*
G01X14298Y13956D01*
G01X14402Y14060D01*
G01X14506Y14112D01*
G01X14662Y14164D01*
G01X14922Y14164D01*
G01X15077Y14112D01*
G01X15181Y14060D01*
G01X15285Y13956D01*
G01X15337Y13852D01*
G01X15337Y13645D01*
G01X15285Y13541D01*
G01X15181Y13437D01*
G01X15077Y13385D01*
G01X14922Y13333D01*
G01X14662Y13333D01*
G01X14506Y13385D01*
G01X14402Y13437D01*
G01X14298Y13541D01*
G01X14246Y13645D01*
G01X14246Y13852D01*
G01X14454Y12990D02*
G01X14402Y12886D01*
G01X14246Y12730D01*
G01X15337Y12730D01*
G01X14246Y11868D02*
G01X14973Y12387D01*
G01X14973Y11608D01*
G01X14246Y11868D02*
G01X15337Y11868D01*
G01X11906Y15920D02*
G01X11802Y15972D01*
G01X11698Y16076D01*
G01X11646Y16180D01*
G01X11646Y16388D01*
G01X11698Y16492D01*
G01X11802Y16596D01*
G01X11906Y16648D01*
G01X12062Y16700D01*
G01X12322Y16700D01*
G01X12477Y16648D01*
G01X12581Y16596D01*
G01X12685Y16492D01*
G01X12737Y16388D01*
G01X12737Y16180D01*
G01X12685Y16076D01*
G01X12581Y15972D01*
G01X12477Y15920D01*
G01X12322Y15920D01*
G01X12322Y16180D02*
G01X12322Y15920D01*
G01X11646Y15577D02*
G01X12737Y15577D01*
G01X11646Y15577D02*
G01X11646Y15110D01*
G01X11698Y14954D01*
G01X11750Y14902D01*
G01X11854Y14850D01*
G01X12010Y14850D01*
G01X12114Y14902D01*
G01X12166Y14954D01*
G01X12218Y15110D01*
G01X12218Y15577D01*
G01X11646Y14507D02*
G01X12737Y14507D01*
G01X11646Y13852D02*
G01X11698Y13956D01*
G01X11802Y14060D01*
G01X11906Y14112D01*
G01X12062Y14164D01*
G01X12322Y14164D01*
G01X12477Y14112D01*
G01X12581Y14060D01*
G01X12685Y13956D01*
G01X12737Y13852D01*
G01X12737Y13645D01*
G01X12685Y13541D01*
G01X12581Y13437D01*
G01X12477Y13385D01*
G01X12322Y13333D01*
G01X12062Y13333D01*
G01X11906Y13385D01*
G01X11802Y13437D01*
G01X11698Y13541D01*
G01X11646Y13645D01*
G01X11646Y13852D01*
G01X11646Y12470D02*
G01X12373Y12990D01*
G01X12373Y12211D01*
G01X11646Y12470D02*
G01X12737Y12470D01*

%LPD*%
G36*
G01X11354Y45830D02*
G01X11186Y45830D01*
G01X11186Y44484D01*
G01X10528Y44484D01*
G01X10528Y44342D01*
G01X11354Y44342D01*
G01X11354Y45830D01*
G37*

%LPD*%
G36*
G01X14729Y45830D02*
G01X14562Y45830D01*
G01X14562Y44484D01*
G01X13901Y44484D01*
G01X13901Y44342D01*
G01X14729Y44342D01*
G01X14729Y45830D01*
G37*

%LPD*%
G36*
G01X18105Y45830D02*
G01X17935Y45830D01*
G01X17935Y44484D01*
G01X17277Y44484D01*
G01X17277Y44342D01*
G01X18105Y44342D01*
G01X18105Y45830D01*
G37*

%LPD*%
G36*
G01X21481Y45830D02*
G01X21310Y45830D01*
G01X21310Y44484D01*
G01X20652Y44484D01*
G01X20652Y44342D01*
G01X21481Y44342D01*
G01X21481Y45830D01*
G37*

%LPD*%
G36*
G01X9811Y45853D02*
G01X9756Y45855D01*
G01X9690Y45851D01*
G01X9629Y45841D01*
G01X9571Y45823D01*
G01X9519Y45801D01*
G01X9470Y45774D01*
G01X9426Y45743D01*
G01X9387Y45710D01*
G01X9352Y45675D01*
G01X9446Y45566D01*
G01X9508Y45623D01*
G01X9580Y45669D01*
G01X9662Y45697D01*
G01X9756Y45708D01*
G01X9809Y45706D01*
G01X9860Y45697D01*
G01X9908Y45684D01*
G01X9953Y45665D01*
G01X9995Y45642D01*
G01X10035Y45613D01*
G01X10071Y45580D01*
G01X10104Y45542D01*
G01X10134Y45500D01*
G01X10160Y45453D01*
G01X10183Y45402D01*
G01X10201Y45347D01*
G01X10216Y45288D01*
G01X10227Y45225D01*
G01X10233Y45158D01*
G01X10236Y45088D01*
G01X10234Y45018D01*
G01X10227Y44951D01*
G01X10217Y44888D01*
G01X10202Y44829D01*
G01X10185Y44773D01*
G01X10162Y44722D01*
G01X10137Y44675D01*
G01X10108Y44632D01*
G01X10075Y44594D01*
G01X10039Y44560D01*
G01X10000Y44531D01*
G01X9958Y44507D01*
G01X9913Y44488D01*
G01X9865Y44475D01*
G01X9814Y44467D01*
G01X9761Y44464D01*
G01X9708Y44467D01*
G01X9658Y44475D01*
G01X9612Y44488D01*
G01X9567Y44508D01*
G01X9525Y44532D01*
G01X9486Y44561D01*
G01X9447Y44595D01*
G01X9410Y44634D01*
G01X9316Y44530D01*
G01X9361Y44481D01*
G01X9408Y44438D01*
G01X9459Y44402D01*
G01X9513Y44372D01*
G01X9570Y44348D01*
G01X9632Y44330D01*
G01X9698Y44320D01*
G01X9769Y44316D01*
G01X9823Y44318D01*
G01X9876Y44325D01*
G01X9927Y44336D01*
G01X9976Y44350D01*
G01X10024Y44369D01*
G01X10069Y44391D01*
G01X10112Y44418D01*
G01X10153Y44448D01*
G01X10191Y44482D01*
G01X10227Y44520D01*
G01X10259Y44562D01*
G01X10289Y44606D01*
G01X10316Y44655D01*
G01X10340Y44707D01*
G01X10360Y44762D01*
G01X10377Y44821D01*
G01X10391Y44882D01*
G01X10401Y44947D01*
G01X10407Y45015D01*
G01X10409Y45086D01*
G01X10407Y45156D01*
G01X10401Y45224D01*
G01X10390Y45288D01*
G01X10377Y45349D01*
G01X10359Y45407D01*
G01X10339Y45463D01*
G01X10314Y45515D01*
G01X10287Y45563D01*
G01X10257Y45608D01*
G01X10223Y45650D01*
G01X10187Y45688D01*
G01X10148Y45722D01*
G01X10106Y45753D01*
G01X10063Y45779D01*
G01X10016Y45802D01*
G01X9968Y45821D01*
G01X9917Y45836D01*
G01X9866Y45847D01*
G01X9811Y45853D01*
G37*

%LPD*%
G36*
G01X11930Y45830D02*
G01X11762Y45830D01*
G01X11762Y44771D01*
G01X11765Y44709D01*
G01X11772Y44650D01*
G01X11785Y44594D01*
G01X11803Y44541D01*
G01X11826Y44493D01*
G01X11855Y44449D01*
G01X11891Y44411D01*
G01X11932Y44378D01*
G01X11980Y44352D01*
G01X12034Y44332D01*
G01X12095Y44320D01*
G01X12164Y44316D01*
G01X12230Y44320D01*
G01X12291Y44331D01*
G01X12348Y44349D01*
G01X12400Y44375D01*
G01X12448Y44407D01*
G01X12490Y44447D01*
G01X12529Y44494D01*
G01X12563Y44547D01*
G01X12441Y44631D01*
G01X12387Y44553D01*
G01X12325Y44502D01*
G01X12255Y44473D01*
G01X12177Y44464D01*
G01X12119Y44468D01*
G01X12068Y44482D01*
G01X12026Y44505D01*
G01X11991Y44539D01*
G01X11964Y44583D01*
G01X11945Y44639D01*
G01X11934Y44707D01*
G01X11930Y44786D01*
G01X11930Y45830D01*
G37*

%LPD*%
G36*
G01X13187Y45853D02*
G01X13132Y45855D01*
G01X13066Y45851D01*
G01X13005Y45841D01*
G01X12947Y45823D01*
G01X12894Y45801D01*
G01X12846Y45774D01*
G01X12802Y45743D01*
G01X12762Y45710D01*
G01X12728Y45675D01*
G01X12822Y45566D01*
G01X12884Y45623D01*
G01X12955Y45669D01*
G01X13037Y45697D01*
G01X13129Y45708D01*
G01X13182Y45706D01*
G01X13234Y45697D01*
G01X13282Y45684D01*
G01X13328Y45665D01*
G01X13370Y45642D01*
G01X13410Y45613D01*
G01X13447Y45580D01*
G01X13480Y45542D01*
G01X13510Y45500D01*
G01X13536Y45453D01*
G01X13558Y45402D01*
G01X13577Y45347D01*
G01X13592Y45288D01*
G01X13602Y45225D01*
G01X13609Y45158D01*
G01X13612Y45088D01*
G01X13610Y45018D01*
G01X13603Y44951D01*
G01X13593Y44888D01*
G01X13578Y44829D01*
G01X13560Y44773D01*
G01X13538Y44722D01*
G01X13513Y44675D01*
G01X13484Y44632D01*
G01X13451Y44594D01*
G01X13415Y44560D01*
G01X13376Y44531D01*
G01X13334Y44507D01*
G01X13289Y44488D01*
G01X13241Y44475D01*
G01X13190Y44467D01*
G01X13137Y44464D01*
G01X13084Y44467D01*
G01X13034Y44475D01*
G01X12987Y44488D01*
G01X12943Y44508D01*
G01X12900Y44532D01*
G01X12860Y44561D01*
G01X12821Y44595D01*
G01X12784Y44634D01*
G01X12692Y44530D01*
G01X12736Y44481D01*
G01X12784Y44438D01*
G01X12834Y44402D01*
G01X12889Y44372D01*
G01X12946Y44348D01*
G01X13008Y44330D01*
G01X13074Y44320D01*
G01X13144Y44316D01*
G01X13199Y44318D01*
G01X13251Y44325D01*
G01X13303Y44336D01*
G01X13352Y44350D01*
G01X13399Y44369D01*
G01X13445Y44391D01*
G01X13488Y44418D01*
G01X13528Y44448D01*
G01X13567Y44482D01*
G01X13602Y44520D01*
G01X13635Y44562D01*
G01X13665Y44606D01*
G01X13692Y44655D01*
G01X13716Y44707D01*
G01X13736Y44762D01*
G01X13753Y44821D01*
G01X13767Y44882D01*
G01X13776Y44947D01*
G01X13782Y45015D01*
G01X13784Y45086D01*
G01X13782Y45156D01*
G01X13776Y45224D01*
G01X13766Y45288D01*
G01X13752Y45349D01*
G01X13735Y45407D01*
G01X13714Y45463D01*
G01X13690Y45515D01*
G01X13662Y45563D01*
G01X13632Y45608D01*
G01X13599Y45650D01*
G01X13562Y45688D01*
G01X13524Y45722D01*
G01X13482Y45753D01*
G01X13438Y45779D01*
G01X13392Y45802D01*
G01X13344Y45821D01*
G01X13293Y45836D01*
G01X13241Y45847D01*
G01X13187Y45853D01*
G37*

%LPD*%
G36*
G01X15306Y45830D02*
G01X15138Y45830D01*
G01X15138Y44771D01*
G01X15140Y44709D01*
G01X15148Y44650D01*
G01X15161Y44594D01*
G01X15178Y44541D01*
G01X15202Y44493D01*
G01X15231Y44449D01*
G01X15266Y44411D01*
G01X15307Y44378D01*
G01X15355Y44352D01*
G01X15408Y44332D01*
G01X15469Y44320D01*
G01X15537Y44316D01*
G01X15603Y44320D01*
G01X15664Y44331D01*
G01X15721Y44349D01*
G01X15774Y44375D01*
G01X15821Y44407D01*
G01X15865Y44447D01*
G01X15904Y44494D01*
G01X15938Y44547D01*
G01X15816Y44631D01*
G01X15763Y44553D01*
G01X15701Y44502D01*
G01X15631Y44473D01*
G01X15552Y44464D01*
G01X15494Y44468D01*
G01X15444Y44482D01*
G01X15401Y44505D01*
G01X15367Y44539D01*
G01X15340Y44583D01*
G01X15321Y44639D01*
G01X15309Y44707D01*
G01X15306Y44786D01*
G01X15306Y45830D01*
G37*

%LPD*%
G36*
G01X16563Y45853D02*
G01X16507Y45855D01*
G01X16441Y45851D01*
G01X16380Y45841D01*
G01X16322Y45823D01*
G01X16269Y45801D01*
G01X16220Y45774D01*
G01X16177Y45743D01*
G01X16137Y45710D01*
G01X16103Y45675D01*
G01X16197Y45566D01*
G01X16259Y45623D01*
G01X16331Y45669D01*
G01X16413Y45697D01*
G01X16505Y45708D01*
G01X16558Y45706D01*
G01X16609Y45697D01*
G01X16658Y45684D01*
G01X16703Y45665D01*
G01X16746Y45642D01*
G01X16786Y45613D01*
G01X16822Y45580D01*
G01X16855Y45542D01*
G01X16885Y45500D01*
G01X16912Y45453D01*
G01X16934Y45402D01*
G01X16953Y45347D01*
G01X16967Y45288D01*
G01X16978Y45225D01*
G01X16985Y45158D01*
G01X16987Y45088D01*
G01X16985Y45018D01*
G01X16979Y44951D01*
G01X16968Y44888D01*
G01X16954Y44829D01*
G01X16936Y44773D01*
G01X16914Y44722D01*
G01X16888Y44675D01*
G01X16859Y44632D01*
G01X16827Y44594D01*
G01X16791Y44560D01*
G01X16752Y44531D01*
G01X16709Y44507D01*
G01X16665Y44488D01*
G01X16616Y44475D01*
G01X16566Y44467D01*
G01X16512Y44464D01*
G01X16459Y44467D01*
G01X16410Y44475D01*
G01X16363Y44488D01*
G01X16318Y44508D01*
G01X16276Y44532D01*
G01X16235Y44561D01*
G01X16197Y44595D01*
G01X16159Y44634D01*
G01X16065Y44530D01*
G01X16110Y44481D01*
G01X16158Y44438D01*
G01X16210Y44402D01*
G01X16264Y44372D01*
G01X16322Y44348D01*
G01X16384Y44330D01*
G01X16450Y44320D01*
G01X16520Y44316D01*
G01X16574Y44318D01*
G01X16627Y44325D01*
G01X16678Y44336D01*
G01X16728Y44350D01*
G01X16775Y44369D01*
G01X16821Y44391D01*
G01X16863Y44418D01*
G01X16904Y44448D01*
G01X16943Y44482D01*
G01X16978Y44520D01*
G01X17011Y44562D01*
G01X17041Y44606D01*
G01X17068Y44655D01*
G01X17091Y44707D01*
G01X17112Y44762D01*
G01X17128Y44821D01*
G01X17142Y44882D01*
G01X17152Y44947D01*
G01X17158Y45015D01*
G01X17160Y45086D01*
G01X17158Y45156D01*
G01X17152Y45224D01*
G01X17142Y45288D01*
G01X17128Y45349D01*
G01X17111Y45407D01*
G01X17090Y45463D01*
G01X17066Y45515D01*
G01X17038Y45563D01*
G01X17008Y45608D01*
G01X16975Y45650D01*
G01X16938Y45688D01*
G01X16899Y45722D01*
G01X16858Y45753D01*
G01X16814Y45779D01*
G01X16768Y45802D01*
G01X16720Y45821D01*
G01X16669Y45836D01*
G01X16617Y45847D01*
G01X16563Y45853D01*
G37*

%LPD*%
G36*
G01X18681Y45830D02*
G01X18514Y45830D01*
G01X18514Y44771D01*
G01X18516Y44709D01*
G01X18523Y44650D01*
G01X18536Y44594D01*
G01X18553Y44541D01*
G01X18576Y44493D01*
G01X18605Y44449D01*
G01X18640Y44411D01*
G01X18681Y44378D01*
G01X18729Y44352D01*
G01X18783Y44332D01*
G01X18845Y44320D01*
G01X18913Y44316D01*
G01X18979Y44320D01*
G01X19040Y44331D01*
G01X19097Y44349D01*
G01X19149Y44375D01*
G01X19197Y44407D01*
G01X19240Y44447D01*
G01X19279Y44494D01*
G01X19314Y44547D01*
G01X19192Y44631D01*
G01X19137Y44553D01*
G01X19076Y44502D01*
G01X19007Y44473D01*
G01X18928Y44464D01*
G01X18870Y44468D01*
G01X18820Y44482D01*
G01X18777Y44505D01*
G01X18742Y44539D01*
G01X18715Y44583D01*
G01X18697Y44639D01*
G01X18685Y44707D01*
G01X18681Y44786D01*
G01X18681Y45830D01*
G37*

%LPD*%
G36*
G01X19938Y45853D02*
G01X19883Y45855D01*
G01X19817Y45851D01*
G01X19755Y45841D01*
G01X19698Y45823D01*
G01X19645Y45801D01*
G01X19596Y45774D01*
G01X19552Y45743D01*
G01X19513Y45710D01*
G01X19479Y45675D01*
G01X19570Y45566D01*
G01X19634Y45623D01*
G01X19706Y45669D01*
G01X19788Y45697D01*
G01X19880Y45708D01*
G01X19933Y45706D01*
G01X19984Y45697D01*
G01X20032Y45684D01*
G01X20078Y45665D01*
G01X20121Y45642D01*
G01X20160Y45613D01*
G01X20197Y45580D01*
G01X20230Y45542D01*
G01X20260Y45500D01*
G01X20286Y45453D01*
G01X20309Y45402D01*
G01X20328Y45347D01*
G01X20343Y45288D01*
G01X20354Y45225D01*
G01X20360Y45158D01*
G01X20363Y45088D01*
G01X20361Y45018D01*
G01X20354Y44951D01*
G01X20344Y44888D01*
G01X20329Y44829D01*
G01X20312Y44773D01*
G01X20289Y44722D01*
G01X20264Y44675D01*
G01X20234Y44632D01*
G01X20202Y44594D01*
G01X20166Y44560D01*
G01X20127Y44531D01*
G01X20084Y44507D01*
G01X20039Y44488D01*
G01X19991Y44475D01*
G01X19939Y44467D01*
G01X19885Y44464D01*
G01X19833Y44467D01*
G01X19784Y44475D01*
G01X19737Y44488D01*
G01X19693Y44508D01*
G01X19651Y44532D01*
G01X19610Y44561D01*
G01X19571Y44595D01*
G01X19535Y44634D01*
G01X19441Y44530D01*
G01X19486Y44481D01*
G01X19534Y44438D01*
G01X19585Y44402D01*
G01X19640Y44372D01*
G01X19697Y44348D01*
G01X19759Y44330D01*
G01X19825Y44320D01*
G01X19896Y44316D01*
G01X19949Y44318D01*
G01X20002Y44325D01*
G01X20053Y44336D01*
G01X20102Y44350D01*
G01X20150Y44369D01*
G01X20195Y44391D01*
G01X20238Y44418D01*
G01X20279Y44448D01*
G01X20317Y44482D01*
G01X20353Y44520D01*
G01X20385Y44562D01*
G01X20416Y44606D01*
G01X20443Y44655D01*
G01X20467Y44707D01*
G01X20487Y44762D01*
G01X20504Y44821D01*
G01X20517Y44882D01*
G01X20528Y44947D01*
G01X20534Y45015D01*
G01X20536Y45086D01*
G01X20534Y45156D01*
G01X20528Y45224D01*
G01X20517Y45288D01*
G01X20504Y45349D01*
G01X20486Y45407D01*
G01X20466Y45463D01*
G01X20441Y45515D01*
G01X20414Y45563D01*
G01X20384Y45608D01*
G01X20350Y45650D01*
G01X20314Y45688D01*
G01X20275Y45722D01*
G01X20233Y45753D01*
G01X20190Y45779D01*
G01X20143Y45802D01*
G01X20095Y45821D01*
G01X20044Y45836D01*
G01X19993Y45847D01*
G01X19938Y45853D01*
G37*

%LPD*%
G36*
G01X22057Y45830D02*
G01X21887Y45830D01*
G01X21887Y44771D01*
G01X21889Y44709D01*
G01X21897Y44650D01*
G01X21909Y44594D01*
G01X21927Y44541D01*
G01X21950Y44493D01*
G01X21980Y44449D01*
G01X22015Y44411D01*
G01X22057Y44378D01*
G01X22104Y44352D01*
G01X22159Y44332D01*
G01X22220Y44320D01*
G01X22288Y44316D01*
G01X22354Y44320D01*
G01X22416Y44331D01*
G01X22473Y44349D01*
G01X22525Y44375D01*
G01X22573Y44407D01*
G01X22616Y44447D01*
G01X22655Y44494D01*
G01X22690Y44547D01*
G01X22568Y44631D01*
G01X22513Y44553D01*
G01X22452Y44502D01*
G01X22382Y44473D01*
G01X22303Y44464D01*
G01X22246Y44468D01*
G01X22195Y44482D01*
G01X22153Y44505D01*
G01X22118Y44539D01*
G01X22091Y44583D01*
G01X22072Y44639D01*
G01X22061Y44707D01*
G01X22057Y44786D01*
G01X22057Y45830D01*
G37*

%LPD*%
G01X19998Y57188D02*
G01X19998Y56098D01*
G01X19998Y57188D02*
G01X19584Y56098D01*
G01X19168Y57188D02*
G01X19584Y56098D01*
G01X19168Y57188D02*
G01X19168Y56098D01*
G01X18203Y56825D02*
G01X18203Y56098D01*
G01X18203Y56670D02*
G01X18307Y56774D01*
G01X18411Y56825D01*
G01X18566Y56825D01*
G01X18670Y56774D01*
G01X18774Y56670D01*
G01X18825Y56512D01*
G01X18825Y56408D01*
G01X18774Y56253D01*
G01X18670Y56149D01*
G01X18566Y56098D01*
G01X18411Y56098D01*
G01X18307Y56149D01*
G01X18203Y56253D01*
G01X17860Y57188D02*
G01X17860Y56098D01*
G01X17339Y56825D02*
G01X17860Y56307D01*
G01X17652Y56512D02*
G01X17288Y56098D01*
G01X16945Y56512D02*
G01X16321Y56512D01*
G01X16321Y56617D01*
G01X16374Y56721D01*
G01X16425Y56774D01*
G01X16529Y56825D01*
G01X16684Y56825D01*
G01X16788Y56774D01*
G01X16892Y56670D01*
G01X16945Y56512D01*
G01X16945Y56408D01*
G01X16892Y56253D01*
G01X16788Y56149D01*
G01X16684Y56098D01*
G01X16529Y56098D01*
G01X16425Y56149D01*
G01X16321Y56253D01*
G01X15978Y56825D02*
G01X15978Y56098D01*
G01X15978Y56512D02*
G01X15927Y56670D01*
G01X15823Y56774D01*
G01X15719Y56825D01*
G01X15564Y56825D01*
G01X15167Y56721D02*
G01X15221Y56670D01*
G01X15167Y56617D01*
G01X15117Y56670D01*
G01X15167Y56721D01*
G01X15167Y56357D02*
G01X15221Y56307D01*
G01X15167Y56253D01*
G01X15117Y56307D01*
G01X15167Y56357D01*
G01X13349Y56670D02*
G01X13453Y56774D01*
G01X13557Y56825D01*
G01X13712Y56825D01*
G01X13816Y56774D01*
G01X13920Y56670D01*
G01X13974Y56512D01*
G01X13974Y56408D01*
G01X13920Y56253D01*
G01X13816Y56149D01*
G01X13712Y56098D01*
G01X13557Y56098D01*
G01X13453Y56149D01*
G01X13349Y56253D01*
G01X13006Y56512D02*
G01X12384Y56512D01*
G01X12384Y56617D01*
G01X12434Y56721D01*
G01X12488Y56774D01*
G01X12592Y56825D01*
G01X12747Y56825D01*
G01X12851Y56774D01*
G01X12955Y56670D01*
G01X13006Y56512D01*
G01X13006Y56408D01*
G01X12955Y56253D01*
G01X12851Y56149D01*
G01X12747Y56098D01*
G01X12592Y56098D01*
G01X12488Y56149D01*
G01X12384Y56253D01*
G01X11782Y56825D02*
G01X11883Y56774D01*
G01X11987Y56670D01*
G01X12041Y56512D01*
G01X12041Y56408D01*
G01X11987Y56253D01*
G01X11883Y56149D01*
G01X11782Y56098D01*
G01X11624Y56098D01*
G01X11520Y56149D01*
G01X11416Y56253D01*
G01X11365Y56408D01*
G01X11365Y56512D01*
G01X11416Y56670D01*
G01X11520Y56774D01*
G01X11624Y56825D01*
G01X11782Y56825D01*
G01X11022Y57188D02*
G01X11022Y56098D01*
G01X10420Y56825D02*
G01X10524Y56774D01*
G01X10626Y56670D01*
G01X10679Y56512D01*
G01X10679Y56408D01*
G01X10626Y56253D01*
G01X10524Y56149D01*
G01X10420Y56098D01*
G01X10263Y56098D01*
G01X10159Y56149D01*
G01X10054Y56253D01*
G01X10004Y56408D01*
G01X10004Y56512D01*
G01X10054Y56670D01*
G01X10159Y56774D01*
G01X10263Y56825D01*
G01X10420Y56825D01*
G01X9661Y57188D02*
G01X9610Y57137D01*
G01X9557Y57188D01*
G01X9610Y57241D01*
G01X9661Y57188D01*
G01X9610Y56825D02*
G01X9610Y56098D01*
G01X8591Y57188D02*
G01X8591Y56098D01*
G01X8591Y56670D02*
G01X8695Y56774D01*
G01X8797Y56825D01*
G01X8955Y56825D01*
G01X9059Y56774D01*
G01X9163Y56670D01*
G01X9214Y56512D01*
G01X9214Y56408D01*
G01X9163Y56253D01*
G01X9059Y56149D01*
G01X8955Y56098D01*
G01X8797Y56098D01*
G01X8695Y56149D01*
G01X8591Y56253D01*
G01X8248Y56512D02*
G01X7624Y56512D01*
G01X7624Y56617D01*
G01X7677Y56721D01*
G01X7728Y56774D01*
G01X7832Y56825D01*
G01X7987Y56825D01*
G01X8091Y56774D01*
G01X8195Y56670D01*
G01X8248Y56512D01*
G01X8248Y56408D01*
G01X8195Y56253D01*
G01X8091Y56149D01*
G01X7987Y56098D01*
G01X7832Y56098D01*
G01X7728Y56149D01*
G01X7624Y56253D01*
G01X19999Y54989D02*
G01X19999Y53898D01*
G01X19999Y54989D02*
G01X19584Y53898D01*
G01X19168Y54989D02*
G01X19584Y53898D01*
G01X19168Y54989D02*
G01X19168Y53898D01*
G01X18566Y54625D02*
G01X18669Y54573D01*
G01X18773Y54469D01*
G01X18825Y54313D01*
G01X18825Y54209D01*
G01X18773Y54053D01*
G01X18669Y53950D01*
G01X18566Y53898D01*
G01X18410Y53898D01*
G01X18306Y53950D01*
G01X18202Y54053D01*
G01X18150Y54209D01*
G01X18150Y54313D01*
G01X18202Y54469D01*
G01X18306Y54573D01*
G01X18410Y54625D01*
G01X18566Y54625D01*
G01X17184Y54989D02*
G01X17184Y53898D01*
G01X17184Y54469D02*
G01X17287Y54573D01*
G01X17391Y54625D01*
G01X17547Y54625D01*
G01X17651Y54573D01*
G01X17755Y54469D01*
G01X17807Y54313D01*
G01X17807Y54209D01*
G01X17755Y54053D01*
G01X17651Y53950D01*
G01X17547Y53898D01*
G01X17391Y53898D01*
G01X17287Y53950D01*
G01X17184Y54053D01*
G01X16841Y54313D02*
G01X16217Y54313D01*
G01X16217Y54417D01*
G01X16269Y54521D01*
G01X16321Y54573D01*
G01X16425Y54625D01*
G01X16581Y54625D01*
G01X16685Y54573D01*
G01X16789Y54469D01*
G01X16841Y54313D01*
G01X16841Y54209D01*
G01X16789Y54053D01*
G01X16685Y53950D01*
G01X16581Y53898D01*
G01X16425Y53898D01*
G01X16321Y53950D01*
G01X16217Y54053D01*
G01X15874Y54989D02*
G01X15874Y53898D01*
G01X15479Y54521D02*
G01X15531Y54469D01*
G01X15479Y54417D01*
G01X15427Y54469D01*
G01X15479Y54521D01*
G01X15479Y54157D02*
G01X15531Y54105D01*
G01X15479Y54053D01*
G01X15427Y54105D01*
G01X15479Y54157D01*
G01X14284Y54989D02*
G01X14284Y54209D01*
G01X14233Y54053D01*
G01X14129Y53950D01*
G01X13973Y53898D01*
G01X13869Y53898D01*
G01X13713Y53950D01*
G01X13609Y54053D01*
G01X13557Y54209D01*
G01X13557Y54989D01*
G01X12591Y54625D02*
G01X12591Y53794D01*
G01X12643Y53638D01*
G01X12695Y53586D01*
G01X12799Y53534D01*
G01X12954Y53534D01*
G01X13058Y53586D01*
G01X12591Y54469D02*
G01X12695Y54573D01*
G01X12799Y54625D01*
G01X12954Y54625D01*
G01X13058Y54573D01*
G01X13162Y54469D01*
G01X13214Y54313D01*
G01X13214Y54209D01*
G01X13162Y54053D01*
G01X13058Y53950D01*
G01X12954Y53898D01*
G01X12799Y53898D01*
G01X12695Y53950D01*
G01X12591Y54053D01*
G01X11988Y54625D02*
G01X12092Y54573D01*
G01X12196Y54469D01*
G01X12248Y54313D01*
G01X12248Y54209D01*
G01X12196Y54053D01*
G01X12092Y53950D01*
G01X11988Y53898D01*
G01X11832Y53898D01*
G01X11728Y53950D01*
G01X11624Y54053D01*
G01X11572Y54209D01*
G01X11572Y54313D01*
G01X11624Y54469D01*
G01X11728Y54573D01*
G01X11832Y54625D01*
G01X11988Y54625D01*
G01X11230Y54365D02*
G01X10294Y54365D01*
G01X9951Y54989D02*
G01X9951Y53898D01*
G01X9951Y54989D02*
G01X9276Y54989D01*
G01X9951Y54469D02*
G01X9536Y54469D01*
G01X9951Y53898D02*
G01X9276Y53898D01*
G01X8206Y54833D02*
G01X8310Y54937D01*
G01X8466Y54989D01*
G01X8673Y54989D01*
G01X8829Y54937D01*
G01X8933Y54833D01*
G01X8933Y54729D01*
G01X8881Y54625D01*
G01X8829Y54573D01*
G01X8725Y54521D01*
G01X8414Y54417D01*
G01X8310Y54365D01*
G01X8258Y54313D01*
G01X8206Y54209D01*
G01X8206Y54053D01*
G01X8310Y53950D01*
G01X8466Y53898D01*
G01X8673Y53898D01*
G01X8829Y53950D01*
G01X8933Y54053D01*
G01X7863Y54989D02*
G01X7863Y53898D01*
G01X7863Y54989D02*
G01X7395Y54989D01*
G01X7239Y54937D01*
G01X7187Y54885D01*
G01X7136Y54781D01*
G01X7136Y54625D01*
G01X7187Y54521D01*
G01X7239Y54469D01*
G01X7395Y54417D01*
G01X7863Y54417D01*
G01X6689Y54989D02*
G01X6117Y54989D01*
G01X6429Y54573D01*
G01X6273Y54573D01*
G01X6169Y54521D01*
G01X6117Y54469D01*
G01X6065Y54313D01*
G01X6065Y54209D01*
G01X6117Y54053D01*
G01X6221Y53950D01*
G01X6377Y53898D01*
G01X6533Y53898D01*
G01X6689Y53950D01*
G01X6741Y54002D01*
G01X6793Y54105D01*
G01X5670Y54729D02*
G01X5670Y54781D01*
G01X5618Y54885D01*
G01X5566Y54937D01*
G01X5463Y54989D01*
G01X5255Y54989D01*
G01X5151Y54937D01*
G01X5099Y54885D01*
G01X5047Y54781D01*
G01X5047Y54677D01*
G01X5099Y54573D01*
G01X5203Y54417D01*
G01X5722Y53898D01*
G01X4995Y53898D01*
G01X19999Y52689D02*
G01X19999Y51598D01*
G01X19999Y52689D02*
G01X19532Y52689D01*
G01X19376Y52637D01*
G01X19324Y52585D01*
G01X19272Y52481D01*
G01X19272Y52377D01*
G01X19324Y52273D01*
G01X19376Y52221D01*
G01X19532Y52169D01*
G01X19999Y52169D01*
G01X19636Y52169D02*
G01X19272Y51598D01*
G01X18929Y52013D02*
G01X18306Y52013D01*
G01X18306Y52117D01*
G01X18358Y52221D01*
G01X18410Y52273D01*
G01X18514Y52325D01*
G01X18669Y52325D01*
G01X18773Y52273D01*
G01X18877Y52169D01*
G01X18929Y52013D01*
G01X18929Y51909D01*
G01X18877Y51754D01*
G01X18773Y51650D01*
G01X18669Y51598D01*
G01X18514Y51598D01*
G01X18410Y51650D01*
G01X18306Y51754D01*
G01X17963Y52325D02*
G01X17651Y51598D01*
G01X17339Y52325D02*
G01X17651Y51598D01*
G01X16996Y52689D02*
G01X16945Y52637D01*
G01X16893Y52689D01*
G01X16945Y52741D01*
G01X16996Y52689D01*
G01X16945Y52325D02*
G01X16945Y51598D01*
G01X15978Y52169D02*
G01X16030Y52273D01*
G01X16186Y52325D01*
G01X16342Y52325D01*
G01X16498Y52273D01*
G01X16550Y52169D01*
G01X16498Y52065D01*
G01X16394Y52013D01*
G01X16134Y51961D01*
G01X16030Y51909D01*
G01X15978Y51805D01*
G01X15978Y51754D01*
G01X16030Y51650D01*
G01X16186Y51598D01*
G01X16342Y51598D01*
G01X16498Y51650D01*
G01X16550Y51754D01*
G01X15635Y52689D02*
G01X15583Y52637D01*
G01X15531Y52689D01*
G01X15583Y52741D01*
G01X15635Y52689D01*
G01X15583Y52325D02*
G01X15583Y51598D01*
G01X14929Y52325D02*
G01X15033Y52273D01*
G01X15137Y52169D01*
G01X15188Y52013D01*
G01X15188Y51909D01*
G01X15137Y51754D01*
G01X15033Y51650D01*
G01X14929Y51598D01*
G01X14773Y51598D01*
G01X14669Y51650D01*
G01X14565Y51754D01*
G01X14513Y51909D01*
G01X14513Y52013D01*
G01X14565Y52169D01*
G01X14669Y52273D01*
G01X14773Y52325D01*
G01X14929Y52325D01*
G01X14170Y52325D02*
G01X14170Y51598D01*
G01X14170Y52117D02*
G01X14014Y52273D01*
G01X13910Y52325D01*
G01X13755Y52325D01*
G01X13651Y52273D01*
G01X13599Y52117D01*
G01X13599Y51598D01*
G01X13204Y52221D02*
G01X13256Y52169D01*
G01X13204Y52117D01*
G01X13152Y52169D01*
G01X13204Y52221D01*
G01X13204Y51857D02*
G01X13256Y51805D01*
G01X13204Y51754D01*
G01X13152Y51805D01*
G01X13204Y51857D01*
G01X11645Y52689D02*
G01X11645Y51598D01*
G01X12009Y52689D02*
G01X11281Y52689D01*
G01X10939Y52689D02*
G01X10887Y52637D01*
G01X10835Y52689D01*
G01X10887Y52741D01*
G01X10939Y52689D01*
G01X10887Y52325D02*
G01X10887Y51598D01*
G01X10492Y52325D02*
G01X10492Y51598D01*
G01X10492Y52117D02*
G01X10336Y52273D01*
G01X10232Y52325D01*
G01X10076Y52325D01*
G01X9972Y52273D01*
G01X9920Y52117D01*
G01X9920Y51598D01*
G01X9525Y52325D02*
G01X9214Y51598D01*
G01X8902Y52325D02*
G01X9214Y51598D01*
G01X9318Y51390D01*
G01X9422Y51286D01*
G01X9525Y51234D01*
G01X9577Y51234D01*
G01X8559Y52689D02*
G01X8559Y51598D01*
G01X8559Y52689D02*
G01X8091Y52689D01*
G01X7936Y52637D01*
G01X7884Y52585D01*
G01X7832Y52481D01*
G01X7832Y52325D01*
G01X7884Y52221D01*
G01X7936Y52169D01*
G01X8091Y52117D01*
G01X8559Y52117D01*
G01X7489Y52689D02*
G01X7489Y51598D01*
G01X6367Y52429D02*
G01X6419Y52533D01*
G01X6522Y52637D01*
G01X6626Y52689D01*
G01X6834Y52689D01*
G01X6938Y52637D01*
G01X7042Y52533D01*
G01X7094Y52429D01*
G01X7146Y52273D01*
G01X7146Y52013D01*
G01X7094Y51857D01*
G01X7042Y51754D01*
G01X6938Y51650D01*
G01X6834Y51598D01*
G01X6626Y51598D01*
G01X6522Y51650D01*
G01X6419Y51754D01*
G01X6367Y51857D01*
G01X5712Y52689D02*
G01X5816Y52637D01*
G01X5920Y52533D01*
G01X5972Y52429D01*
G01X6024Y52273D01*
G01X6024Y52013D01*
G01X5972Y51857D01*
G01X5920Y51754D01*
G01X5816Y51650D01*
G01X5712Y51598D01*
G01X5504Y51598D01*
G01X5400Y51650D01*
G01X5296Y51754D01*
G01X5244Y51857D01*
G01X5192Y52013D01*
G01X5192Y52273D01*
G01X5244Y52429D01*
G01X5296Y52533D01*
G01X5400Y52637D01*
G01X5504Y52689D01*
G01X5712Y52689D01*
G01X3738Y52689D02*
G01X3894Y52637D01*
G01X3997Y52481D01*
G01X4049Y52221D01*
G01X4049Y52065D01*
G01X3997Y51805D01*
G01X3894Y51650D01*
G01X3738Y51598D01*
G01X3634Y51598D01*
G01X3478Y51650D01*
G01X3374Y51805D01*
G01X3322Y52065D01*
G01X3322Y52221D01*
G01X3374Y52481D01*
G01X3478Y52637D01*
G01X3634Y52689D01*
G01X3738Y52689D01*
G01X2927Y51857D02*
G01X2979Y51805D01*
G01X2927Y51754D01*
G01X2875Y51805D01*
G01X2927Y51857D01*
G01X2532Y52481D02*
G01X2428Y52533D01*
G01X2273Y52689D01*
G01X2273Y51598D01*

%LPD*%
G36*
G01X8230Y48950D02*
G01X8205Y48954D01*
G01X8183Y48950D01*
G01X8165Y48939D01*
G01X8154Y48921D01*
G01X8150Y48898D01*
G01X8154Y48874D01*
G01X8165Y48856D01*
G01X8183Y48844D01*
G01X8205Y48840D01*
G01X8230Y48844D01*
G01X8248Y48856D01*
G01X8260Y48874D01*
G01X8264Y48898D01*
G01X8260Y48921D01*
G01X8248Y48939D01*
G01X8230Y48950D01*
G37*

%LPD*%
G36*
G01X15927Y48950D02*
G01X15904Y48954D01*
G01X15881Y48950D01*
G01X15863Y48939D01*
G01X15850Y48921D01*
G01X15846Y48898D01*
G01X15850Y48874D01*
G01X15863Y48856D01*
G01X15881Y48844D01*
G01X15904Y48840D01*
G01X15927Y48844D01*
G01X15945Y48856D01*
G01X15956Y48874D01*
G01X15960Y48898D01*
G01X15956Y48921D01*
G01X15945Y48939D01*
G01X15927Y48950D01*
G37*

%LPD*%
G36*
G01X17555Y48703D02*
G01X17530Y48708D01*
G01X17506Y48703D01*
G01X17487Y48689D01*
G01X17474Y48667D01*
G01X17469Y48639D01*
G01X17474Y48613D01*
G01X17487Y48593D01*
G01X17506Y48580D01*
G01X17530Y48576D01*
G01X17555Y48580D01*
G01X17575Y48593D01*
G01X17589Y48613D01*
G01X17593Y48639D01*
G01X17589Y48667D01*
G01X17575Y48689D01*
G01X17555Y48703D01*
G37*

%LPD*%
G36*
G01X4555Y48489D02*
G01X4299Y48489D01*
G01X4299Y48423D01*
G01X4555Y48423D01*
G01X4555Y48489D01*
G37*

%LPD*%
G36*
G01X1673Y48923D02*
G01X1609Y48931D01*
G01X1562Y48927D01*
G01X1520Y48916D01*
G01X1484Y48897D01*
G01X1453Y48871D01*
G01X1429Y48840D01*
G01X1410Y48803D01*
G01X1400Y48760D01*
G01X1396Y48713D01*
G01X1401Y48657D01*
G01X1417Y48599D01*
G01X1442Y48542D01*
G01X1477Y48483D01*
G01X1520Y48423D01*
G01X1572Y48363D01*
G01X1630Y48301D01*
G01X1695Y48238D01*
G01X1633Y48244D01*
G01X1603Y48245D01*
G01X1574Y48246D01*
G01X1360Y48246D01*
G01X1360Y48174D01*
G01X1820Y48174D01*
G01X1820Y48223D01*
G01X1738Y48298D01*
G01X1667Y48369D01*
G01X1608Y48434D01*
G01X1560Y48496D01*
G01X1523Y48554D01*
G01X1497Y48609D01*
G01X1482Y48661D01*
G01X1477Y48710D01*
G01X1486Y48770D01*
G01X1512Y48819D01*
G01X1556Y48851D01*
G01X1619Y48863D01*
G01X1663Y48856D01*
G01X1705Y48837D01*
G01X1743Y48809D01*
G01X1777Y48774D01*
G01X1825Y48822D01*
G01X1780Y48866D01*
G01X1729Y48900D01*
G01X1673Y48923D01*
G37*

%LPD*%
G36*
G01X2955Y48916D02*
G01X2750Y48916D01*
G01X2690Y48913D01*
G01X2636Y48905D01*
G01X2589Y48890D01*
G01X2548Y48868D01*
G01X2516Y48839D01*
G01X2493Y48802D01*
G01X2478Y48757D01*
G01X2473Y48703D01*
G01X2478Y48648D01*
G01X2493Y48602D01*
G01X2516Y48562D01*
G01X2548Y48530D01*
G01X2588Y48506D01*
G01X2635Y48488D01*
G01X2688Y48478D01*
G01X2747Y48474D01*
G01X2871Y48474D01*
G01X2871Y48174D01*
G01X2955Y48174D01*
G01X2955Y48916D01*
G37*

%LPC*%
G36*
G01X2871Y48850D02*
G01X2762Y48850D01*
G01X2672Y48843D01*
G01X2608Y48818D01*
G01X2570Y48773D01*
G01X2557Y48703D01*
G01X2569Y48631D01*
G01X2606Y48581D01*
G01X2669Y48552D01*
G01X2757Y48543D01*
G01X2871Y48543D01*
G01X2871Y48850D01*
G37*

%LPD*%
G36*
G01X4152Y48916D02*
G01X3727Y48916D01*
G01X3727Y48845D01*
G01X4068Y48845D01*
G01X4068Y48601D01*
G01X3781Y48601D01*
G01X3781Y48530D01*
G01X4068Y48530D01*
G01X4068Y48246D01*
G01X3717Y48246D01*
G01X3717Y48174D01*
G01X4152Y48174D01*
G01X4152Y48916D01*
G37*

%LPD*%
G36*
G01X8249Y48723D02*
G01X8165Y48723D01*
G01X8165Y48174D01*
G01X8249Y48174D01*
G01X8249Y48723D01*
G37*

%LPD*%
G36*
G01X11563Y48728D02*
G01X11515Y48736D01*
G01X11442Y48722D01*
G01X11390Y48681D01*
G01X11358Y48614D01*
G01X11347Y48522D01*
G01X11347Y48174D01*
G01X11431Y48174D01*
G01X11431Y48512D01*
G01X11438Y48580D01*
G01X11457Y48628D01*
G01X11490Y48656D01*
G01X11538Y48665D01*
G01X11571Y48659D01*
G01X11607Y48642D01*
G01X11644Y48614D01*
G01X11683Y48576D01*
G01X11683Y48174D01*
G01X11764Y48174D01*
G01X11764Y48512D01*
G01X11771Y48580D01*
G01X11790Y48628D01*
G01X11823Y48656D01*
G01X11871Y48665D01*
G01X11904Y48659D01*
G01X11939Y48642D01*
G01X11976Y48614D01*
G01X12015Y48576D01*
G01X12015Y48174D01*
G01X12097Y48174D01*
G01X12097Y48723D01*
G01X12031Y48723D01*
G01X12023Y48642D01*
G01X12018Y48642D01*
G01X11981Y48678D01*
G01X11940Y48708D01*
G01X11895Y48728D01*
G01X11848Y48736D01*
G01X11792Y48728D01*
G01X11749Y48707D01*
G01X11718Y48673D01*
G01X11698Y48629D01*
G01X11653Y48672D01*
G01X11609Y48706D01*
G01X11563Y48728D01*
G37*

%LPD*%
G36*
G01X15297Y48982D02*
G01X15213Y48982D01*
G01X15213Y48759D01*
G01X15218Y48642D01*
G01X15178Y48678D01*
G01X15135Y48708D01*
G01X15087Y48728D01*
G01X15033Y48736D01*
G01X14959Y48722D01*
G01X14907Y48681D01*
G01X14876Y48614D01*
G01X14865Y48522D01*
G01X14865Y48174D01*
G01X14949Y48174D01*
G01X14949Y48512D01*
G01X14956Y48580D01*
G01X14975Y48628D01*
G01X15009Y48656D01*
G01X15058Y48665D01*
G01X15100Y48659D01*
G01X15137Y48642D01*
G01X15174Y48614D01*
G01X15213Y48576D01*
G01X15213Y48174D01*
G01X15297Y48174D01*
G01X15297Y48982D01*
G37*

%LPD*%
G36*
G01X15945Y48723D02*
G01X15864Y48723D01*
G01X15864Y48174D01*
G01X15945Y48174D01*
G01X15945Y48723D01*
G37*

%LPD*%
G36*
G01X20004Y48982D02*
G01X19922Y48982D01*
G01X19922Y48759D01*
G01X19925Y48642D01*
G01X19884Y48678D01*
G01X19841Y48708D01*
G01X19794Y48728D01*
G01X19742Y48736D01*
G01X19668Y48722D01*
G01X19616Y48681D01*
G01X19585Y48614D01*
G01X19575Y48522D01*
G01X19575Y48174D01*
G01X19658Y48174D01*
G01X19658Y48512D01*
G01X19664Y48580D01*
G01X19683Y48628D01*
G01X19716Y48656D01*
G01X19765Y48665D01*
G01X19807Y48659D01*
G01X19845Y48642D01*
G01X19883Y48614D01*
G01X19922Y48576D01*
G01X19922Y48174D01*
G01X20004Y48174D01*
G01X20004Y48982D01*
G37*

%LPD*%
G36*
G01X2221Y48925D02*
G01X2160Y48931D01*
G01X2076Y48919D01*
G01X2009Y48883D01*
G01X1965Y48824D01*
G01X1949Y48746D01*
G01X1959Y48683D01*
G01X1986Y48632D01*
G01X2028Y48593D01*
G01X2082Y48566D01*
G01X2082Y48561D01*
G01X2021Y48537D01*
G01X1970Y48497D01*
G01X1937Y48442D01*
G01X1924Y48373D01*
G01X1929Y48325D01*
G01X1942Y48283D01*
G01X1964Y48247D01*
G01X1993Y48216D01*
G01X2027Y48192D01*
G01X2067Y48174D01*
G01X2110Y48163D01*
G01X2158Y48159D01*
G01X2237Y48168D01*
G01X2302Y48191D01*
G01X2353Y48223D01*
G01X2394Y48261D01*
G01X2351Y48317D01*
G01X2316Y48284D01*
G01X2274Y48256D01*
G01X2224Y48237D01*
G01X2163Y48230D01*
G01X2100Y48241D01*
G01X2051Y48269D01*
G01X2020Y48315D01*
G01X2008Y48375D01*
G01X2021Y48438D01*
G01X2061Y48485D01*
G01X2134Y48516D01*
G01X2244Y48528D01*
G01X2244Y48594D01*
G01X2145Y48605D01*
G01X2080Y48636D01*
G01X2044Y48682D01*
G01X2033Y48741D01*
G01X2042Y48791D01*
G01X2069Y48829D01*
G01X2109Y48854D01*
G01X2163Y48863D01*
G01X2208Y48857D01*
G01X2249Y48842D01*
G01X2287Y48819D01*
G01X2320Y48789D01*
G01X2366Y48843D01*
G01X2322Y48878D01*
G01X2275Y48906D01*
G01X2221Y48925D01*
G37*

%LPD*%
G36*
G01X3438Y48917D02*
G01X3346Y48931D01*
G01X3282Y48924D01*
G01X3225Y48905D01*
G01X3173Y48877D01*
G01X3131Y48840D01*
G01X3174Y48784D01*
G01X3210Y48815D01*
G01X3250Y48837D01*
G01X3296Y48851D01*
G01X3346Y48855D01*
G01X3405Y48847D01*
G01X3451Y48825D01*
G01X3481Y48790D01*
G01X3491Y48743D01*
G01X3480Y48694D01*
G01X3450Y48659D01*
G01X3410Y48633D01*
G01X3367Y48614D01*
G01X3260Y48568D01*
G01X3200Y48536D01*
G01X3150Y48496D01*
G01X3117Y48441D01*
G01X3105Y48368D01*
G01X3110Y48325D01*
G01X3123Y48286D01*
G01X3144Y48250D01*
G01X3173Y48220D01*
G01X3208Y48194D01*
G01X3251Y48176D01*
G01X3300Y48163D01*
G01X3354Y48159D01*
G01X3431Y48167D01*
G01X3500Y48189D01*
G01X3561Y48224D01*
G01X3613Y48271D01*
G01X3562Y48329D01*
G01X3519Y48290D01*
G01X3468Y48260D01*
G01X3412Y48242D01*
G01X3354Y48235D01*
G01X3285Y48245D01*
G01X3234Y48270D01*
G01X3201Y48310D01*
G01X3189Y48362D01*
G01X3199Y48414D01*
G01X3226Y48450D01*
G01X3266Y48477D01*
G01X3316Y48500D01*
G01X3425Y48548D01*
G01X3478Y48574D01*
G01X3526Y48611D01*
G01X3561Y48664D01*
G01X3575Y48736D01*
G01X3558Y48815D01*
G01X3511Y48877D01*
G01X3438Y48917D01*
G37*

%LPD*%
G36*
G01X4966Y48731D02*
G01X4916Y48736D01*
G01X4867Y48731D01*
G01X4821Y48717D01*
G01X4779Y48693D01*
G01X4741Y48661D01*
G01X4709Y48620D01*
G01X4686Y48571D01*
G01X4670Y48513D01*
G01X4665Y48449D01*
G01X4670Y48384D01*
G01X4686Y48326D01*
G01X4709Y48277D01*
G01X4741Y48235D01*
G01X4779Y48202D01*
G01X4821Y48179D01*
G01X4867Y48164D01*
G01X4916Y48159D01*
G01X4966Y48164D01*
G01X5013Y48179D01*
G01X5056Y48202D01*
G01X5094Y48235D01*
G01X5125Y48277D01*
G01X5149Y48326D01*
G01X5165Y48384D01*
G01X5170Y48449D01*
G01X5165Y48513D01*
G01X5149Y48571D01*
G01X5125Y48620D01*
G01X5094Y48661D01*
G01X5056Y48693D01*
G01X5013Y48717D01*
G01X4966Y48731D01*
G37*

%LPC*%
G36*
G01X4984Y48651D02*
G01X4916Y48667D01*
G01X4849Y48651D01*
G01X4796Y48606D01*
G01X4761Y48538D01*
G01X4749Y48449D01*
G01X4761Y48359D01*
G01X4796Y48290D01*
G01X4849Y48246D01*
G01X4916Y48230D01*
G01X4984Y48246D01*
G01X5037Y48290D01*
G01X5072Y48359D01*
G01X5084Y48449D01*
G01X5072Y48538D01*
G01X5037Y48606D01*
G01X4984Y48651D01*
G37*

%LPD*%
G36*
G01X5942Y48916D02*
G01X5864Y48916D01*
G01X5864Y48474D01*
G01X5869Y48393D01*
G01X5884Y48325D01*
G01X5908Y48270D01*
G01X5940Y48228D01*
G01X5979Y48196D01*
G01X6023Y48175D01*
G01X6072Y48163D01*
G01X6125Y48159D01*
G01X6179Y48163D01*
G01X6229Y48175D01*
G01X6274Y48196D01*
G01X6313Y48228D01*
G01X6345Y48270D01*
G01X6369Y48325D01*
G01X6384Y48393D01*
G01X6389Y48474D01*
G01X6389Y48916D01*
G01X6306Y48916D01*
G01X6306Y48474D01*
G01X6291Y48359D01*
G01X6253Y48286D01*
G01X6195Y48247D01*
G01X6125Y48235D01*
G01X6089Y48238D01*
G01X6055Y48247D01*
G01X6024Y48263D01*
G01X5997Y48286D01*
G01X5974Y48318D01*
G01X5957Y48359D01*
G01X5946Y48411D01*
G01X5942Y48474D01*
G01X5942Y48916D01*
G37*

%LPD*%
G36*
G01X7194Y48731D02*
G01X7146Y48736D01*
G01X7098Y48731D01*
G01X7055Y48718D01*
G01X7018Y48696D01*
G01X6987Y48667D01*
G01X6962Y48630D01*
G01X6945Y48585D01*
G01X6934Y48536D01*
G01X6930Y48479D01*
G01X6932Y48453D01*
G01X6934Y48440D01*
G01X6935Y48428D01*
G01X7309Y48428D01*
G01X7293Y48345D01*
G01X7255Y48281D01*
G01X7197Y48240D01*
G01X7121Y48225D01*
G01X7083Y48228D01*
G01X7048Y48237D01*
G01X7015Y48252D01*
G01X6984Y48271D01*
G01X6953Y48215D01*
G01X6990Y48193D01*
G01X7031Y48176D01*
G01X7078Y48164D01*
G01X7131Y48159D01*
G01X7184Y48164D01*
G01X7233Y48179D01*
G01X7277Y48202D01*
G01X7316Y48235D01*
G01X7348Y48277D01*
G01X7372Y48326D01*
G01X7388Y48384D01*
G01X7393Y48449D01*
G01X7388Y48512D01*
G01X7372Y48569D01*
G01X7348Y48617D01*
G01X7317Y48659D01*
G01X7280Y48692D01*
G01X7238Y48716D01*
G01X7194Y48731D01*
G37*

%LPC*%
G36*
G01X7205Y48658D02*
G01X7146Y48670D01*
G01X7087Y48658D01*
G01X7042Y48624D01*
G01X7014Y48567D01*
G01X7004Y48489D01*
G01X7311Y48489D01*
G01X7292Y48566D01*
G01X7255Y48623D01*
G01X7205Y48658D01*
G37*

%LPD*%
G36*
G01X7624Y48982D02*
G01X7543Y48982D01*
G01X7543Y48174D01*
G01X7609Y48174D01*
G01X7616Y48241D01*
G01X7619Y48241D01*
G01X7655Y48209D01*
G01X7696Y48183D01*
G01X7741Y48165D01*
G01X7789Y48159D01*
G01X7839Y48164D01*
G01X7883Y48179D01*
G01X7922Y48202D01*
G01X7955Y48234D01*
G01X7980Y48276D01*
G01X7999Y48325D01*
G01X8011Y48383D01*
G01X8015Y48449D01*
G01X8010Y48511D01*
G01X7996Y48568D01*
G01X7973Y48616D01*
G01X7943Y48658D01*
G01X7908Y48691D01*
G01X7867Y48716D01*
G01X7823Y48731D01*
G01X7776Y48736D01*
G01X7732Y48732D01*
G01X7693Y48719D01*
G01X7656Y48699D01*
G01X7619Y48672D01*
G01X7624Y48766D01*
G01X7624Y48982D01*
G37*

%LPC*%
G36*
G01X7829Y48651D02*
G01X7764Y48667D01*
G01X7728Y48664D01*
G01X7695Y48653D01*
G01X7660Y48634D01*
G01X7624Y48606D01*
G01X7624Y48309D01*
G01X7660Y48274D01*
G01X7696Y48250D01*
G01X7734Y48235D01*
G01X7771Y48230D01*
G01X7839Y48245D01*
G01X7888Y48288D01*
G01X7918Y48357D01*
G01X7929Y48449D01*
G01X7916Y48536D01*
G01X7881Y48606D01*
G01X7829Y48651D01*
G37*

%LPD*%
G36*
G01X8700Y48731D02*
G01X8650Y48736D01*
G01X8601Y48731D01*
G01X8553Y48717D01*
G01X8511Y48693D01*
G01X8473Y48661D01*
G01X8441Y48620D01*
G01X8417Y48571D01*
G01X8402Y48513D01*
G01X8396Y48449D01*
G01X8402Y48384D01*
G01X8417Y48326D01*
G01X8441Y48277D01*
G01X8473Y48235D01*
G01X8511Y48202D01*
G01X8553Y48179D01*
G01X8601Y48164D01*
G01X8650Y48159D01*
G01X8700Y48164D01*
G01X8746Y48179D01*
G01X8789Y48202D01*
G01X8826Y48235D01*
G01X8857Y48277D01*
G01X8881Y48326D01*
G01X8896Y48384D01*
G01X8901Y48449D01*
G01X8896Y48513D01*
G01X8881Y48571D01*
G01X8857Y48620D01*
G01X8826Y48661D01*
G01X8789Y48693D01*
G01X8746Y48717D01*
G01X8700Y48731D01*
G37*

%LPC*%
G36*
G01X8718Y48651D02*
G01X8650Y48667D01*
G01X8582Y48651D01*
G01X8529Y48606D01*
G01X8495Y48538D01*
G01X8482Y48449D01*
G01X8495Y48359D01*
G01X8529Y48290D01*
G01X8582Y48246D01*
G01X8650Y48230D01*
G01X8718Y48246D01*
G01X8771Y48290D01*
G01X8805Y48359D01*
G01X8818Y48449D01*
G01X8805Y48538D01*
G01X8771Y48606D01*
G01X8718Y48651D01*
G37*

%LPD*%
G36*
G01X9143Y48982D02*
G01X9061Y48982D01*
G01X9061Y48268D01*
G01X9059Y48251D01*
G01X9054Y48239D01*
G01X9046Y48232D01*
G01X9036Y48230D01*
G01X9016Y48230D01*
G01X9003Y48167D01*
G01X9013Y48164D01*
G01X9025Y48162D01*
G01X9038Y48160D01*
G01X9054Y48159D01*
G01X9094Y48167D01*
G01X9122Y48189D01*
G01X9138Y48224D01*
G01X9143Y48274D01*
G01X9143Y48982D01*
G37*

%LPD*%
G36*
G01X9594Y48731D02*
G01X9544Y48736D01*
G01X9495Y48731D01*
G01X9449Y48717D01*
G01X9406Y48693D01*
G01X9369Y48661D01*
G01X9337Y48620D01*
G01X9313Y48571D01*
G01X9298Y48513D01*
G01X9293Y48449D01*
G01X9298Y48384D01*
G01X9313Y48326D01*
G01X9337Y48277D01*
G01X9369Y48235D01*
G01X9406Y48202D01*
G01X9449Y48179D01*
G01X9495Y48164D01*
G01X9544Y48159D01*
G01X9594Y48164D01*
G01X9641Y48179D01*
G01X9684Y48202D01*
G01X9722Y48235D01*
G01X9753Y48277D01*
G01X9777Y48326D01*
G01X9793Y48384D01*
G01X9798Y48449D01*
G01X9793Y48513D01*
G01X9777Y48571D01*
G01X9753Y48620D01*
G01X9722Y48661D01*
G01X9684Y48693D01*
G01X9641Y48717D01*
G01X9594Y48731D01*
G37*

%LPC*%
G36*
G01X9612Y48651D02*
G01X9544Y48667D01*
G01X9477Y48651D01*
G01X9424Y48606D01*
G01X9389Y48538D01*
G01X9376Y48449D01*
G01X9389Y48359D01*
G01X9424Y48290D01*
G01X9477Y48246D01*
G01X9544Y48230D01*
G01X9612Y48246D01*
G01X9665Y48290D01*
G01X9700Y48359D01*
G01X9712Y48449D01*
G01X9700Y48538D01*
G01X9665Y48606D01*
G01X9612Y48651D01*
G37*

%LPD*%
G36*
G01X10157Y48731D02*
G01X10110Y48736D01*
G01X10062Y48731D01*
G01X10019Y48718D01*
G01X9982Y48696D01*
G01X9951Y48667D01*
G01X9927Y48630D01*
G01X9909Y48585D01*
G01X9898Y48536D01*
G01X9895Y48479D01*
G01X9895Y48453D01*
G01X9896Y48440D01*
G01X9897Y48428D01*
G01X10273Y48428D01*
G01X10257Y48345D01*
G01X10218Y48281D01*
G01X10160Y48240D01*
G01X10085Y48225D01*
G01X10046Y48228D01*
G01X10010Y48237D01*
G01X9977Y48252D01*
G01X9945Y48271D01*
G01X9915Y48215D01*
G01X9953Y48193D01*
G01X9995Y48176D01*
G01X10042Y48164D01*
G01X10095Y48159D01*
G01X10148Y48164D01*
G01X10197Y48179D01*
G01X10241Y48202D01*
G01X10279Y48235D01*
G01X10311Y48277D01*
G01X10335Y48326D01*
G01X10349Y48384D01*
G01X10354Y48449D01*
G01X10349Y48512D01*
G01X10334Y48569D01*
G01X10310Y48617D01*
G01X10279Y48659D01*
G01X10243Y48692D01*
G01X10201Y48716D01*
G01X10157Y48731D01*
G37*

%LPC*%
G36*
G01X10167Y48658D02*
G01X10108Y48670D01*
G01X10049Y48658D01*
G01X10004Y48624D01*
G01X9975Y48567D01*
G01X9966Y48489D01*
G01X10273Y48489D01*
G01X10254Y48566D01*
G01X10217Y48623D01*
G01X10167Y48658D01*
G37*

%LPD*%
G36*
G01X10636Y48731D02*
G01X10585Y48736D01*
G01X10535Y48730D01*
G01X10492Y48716D01*
G01X10455Y48695D01*
G01X10423Y48670D01*
G01X10469Y48616D01*
G01X10492Y48637D01*
G01X10519Y48653D01*
G01X10548Y48664D01*
G01X10580Y48667D01*
G01X10653Y48651D01*
G01X10710Y48606D01*
G01X10748Y48538D01*
G01X10761Y48449D01*
G01X10748Y48359D01*
G01X10712Y48290D01*
G01X10656Y48246D01*
G01X10583Y48230D01*
G01X10546Y48235D01*
G01X10510Y48247D01*
G01X10478Y48264D01*
G01X10451Y48286D01*
G01X10413Y48230D01*
G01X10453Y48201D01*
G01X10496Y48179D01*
G01X10542Y48164D01*
G01X10591Y48159D01*
G01X10643Y48164D01*
G01X10692Y48179D01*
G01X10735Y48202D01*
G01X10772Y48235D01*
G01X10802Y48277D01*
G01X10825Y48326D01*
G01X10839Y48384D01*
G01X10845Y48449D01*
G01X10839Y48513D01*
G01X10823Y48571D01*
G01X10799Y48620D01*
G01X10766Y48661D01*
G01X10728Y48693D01*
G01X10684Y48717D01*
G01X10636Y48731D01*
G37*

%LPD*%
G36*
G01X12549Y48731D02*
G01X12501Y48736D01*
G01X12451Y48731D01*
G01X12404Y48717D01*
G01X12361Y48693D01*
G01X12323Y48661D01*
G01X12292Y48620D01*
G01X12267Y48571D01*
G01X12252Y48513D01*
G01X12247Y48449D01*
G01X12252Y48384D01*
G01X12267Y48326D01*
G01X12292Y48277D01*
G01X12323Y48235D01*
G01X12361Y48202D01*
G01X12404Y48179D01*
G01X12451Y48164D01*
G01X12501Y48159D01*
G01X12549Y48164D01*
G01X12596Y48179D01*
G01X12638Y48202D01*
G01X12676Y48235D01*
G01X12707Y48277D01*
G01X12731Y48326D01*
G01X12747Y48384D01*
G01X12752Y48449D01*
G01X12747Y48513D01*
G01X12731Y48571D01*
G01X12707Y48620D01*
G01X12676Y48661D01*
G01X12638Y48693D01*
G01X12596Y48717D01*
G01X12549Y48731D01*
G37*

%LPC*%
G36*
G01X12567Y48651D02*
G01X12501Y48667D01*
G01X12433Y48651D01*
G01X12380Y48606D01*
G01X12345Y48538D01*
G01X12333Y48449D01*
G01X12345Y48359D01*
G01X12380Y48290D01*
G01X12433Y48246D01*
G01X12501Y48230D01*
G01X12567Y48246D01*
G01X12619Y48290D01*
G01X12654Y48359D01*
G01X12666Y48449D01*
G01X12654Y48538D01*
G01X12619Y48606D01*
G01X12567Y48651D01*
G37*

%LPD*%
G36*
G01X13032Y48731D02*
G01X12981Y48736D01*
G01X12931Y48730D01*
G01X12888Y48716D01*
G01X12852Y48695D01*
G01X12821Y48670D01*
G01X12864Y48616D01*
G01X12889Y48637D01*
G01X12916Y48653D01*
G01X12946Y48664D01*
G01X12978Y48667D01*
G01X13049Y48651D01*
G01X13105Y48606D01*
G01X13143Y48538D01*
G01X13156Y48449D01*
G01X13143Y48359D01*
G01X13108Y48290D01*
G01X13052Y48246D01*
G01X12981Y48230D01*
G01X12942Y48235D01*
G01X12907Y48247D01*
G01X12875Y48264D01*
G01X12846Y48286D01*
G01X12810Y48230D01*
G01X12849Y48201D01*
G01X12892Y48179D01*
G01X12939Y48164D01*
G01X12988Y48159D01*
G01X13040Y48164D01*
G01X13088Y48179D01*
G01X13131Y48202D01*
G01X13169Y48235D01*
G01X13200Y48277D01*
G01X13222Y48326D01*
G01X13237Y48384D01*
G01X13242Y48449D01*
G01X13237Y48513D01*
G01X13221Y48571D01*
G01X13197Y48620D01*
G01X13164Y48661D01*
G01X13125Y48693D01*
G01X13081Y48717D01*
G01X13032Y48731D01*
G37*

%LPD*%
G36*
G01X13445Y48287D02*
G01X13420Y48291D01*
G01X13397Y48287D01*
G01X13377Y48274D01*
G01X13364Y48253D01*
G01X13359Y48225D01*
G01X13364Y48199D01*
G01X13377Y48178D01*
G01X13397Y48164D01*
G01X13420Y48159D01*
G01X13445Y48164D01*
G01X13465Y48178D01*
G01X13479Y48199D01*
G01X13484Y48225D01*
G01X13479Y48253D01*
G01X13465Y48274D01*
G01X13445Y48287D01*
G37*

%LPD*%
G36*
G01X14073Y48982D02*
G01X13992Y48982D01*
G01X13992Y48759D01*
G01X13994Y48657D01*
G01X13955Y48688D01*
G01X13911Y48712D01*
G01X13866Y48730D01*
G01X13819Y48736D01*
G01X13768Y48731D01*
G01X13723Y48716D01*
G01X13685Y48692D01*
G01X13654Y48660D01*
G01X13630Y48619D01*
G01X13612Y48572D01*
G01X13601Y48517D01*
G01X13598Y48456D01*
G01X13603Y48389D01*
G01X13618Y48330D01*
G01X13641Y48280D01*
G01X13671Y48237D01*
G01X13707Y48203D01*
G01X13748Y48179D01*
G01X13792Y48164D01*
G01X13839Y48159D01*
G01X13878Y48164D01*
G01X13919Y48179D01*
G01X13959Y48201D01*
G01X13997Y48230D01*
G01X13999Y48230D01*
G01X14009Y48174D01*
G01X14073Y48174D01*
G01X14073Y48982D01*
G37*

%LPC*%
G36*
G01X13873Y48662D02*
G01X13837Y48667D01*
G01X13767Y48651D01*
G01X13720Y48608D01*
G01X13693Y48542D01*
G01X13684Y48456D01*
G01X13697Y48362D01*
G01X13732Y48291D01*
G01X13785Y48246D01*
G01X13852Y48230D01*
G01X13882Y48233D01*
G01X13916Y48244D01*
G01X13953Y48262D01*
G01X13992Y48291D01*
G01X13992Y48586D01*
G01X13950Y48621D01*
G01X13911Y48646D01*
G01X13873Y48662D01*
G37*

%LPD*%
G36*
G01X14347Y48723D02*
G01X14266Y48723D01*
G01X14266Y48174D01*
G01X14334Y48174D01*
G01X14340Y48261D01*
G01X14345Y48261D01*
G01X14384Y48219D01*
G01X14426Y48187D01*
G01X14474Y48166D01*
G01X14528Y48159D01*
G01X14602Y48173D01*
G01X14653Y48214D01*
G01X14683Y48280D01*
G01X14693Y48373D01*
G01X14693Y48723D01*
G01X14611Y48723D01*
G01X14611Y48383D01*
G01X14605Y48315D01*
G01X14585Y48268D01*
G01X14551Y48242D01*
G01X14502Y48233D01*
G01X14461Y48238D01*
G01X14424Y48255D01*
G01X14387Y48285D01*
G01X14347Y48329D01*
G01X14347Y48723D01*
G37*

%LPD*%
G36*
G01X15643Y48878D02*
G01X15574Y48878D01*
G01X15574Y48723D01*
G01X15422Y48723D01*
G01X15422Y48655D01*
G01X15574Y48655D01*
G01X15574Y48337D01*
G01X15570Y48291D01*
G01X15556Y48257D01*
G01X15529Y48235D01*
G01X15488Y48228D01*
G01X15472Y48229D01*
G01X15455Y48232D01*
G01X15439Y48237D01*
G01X15424Y48243D01*
G01X15406Y48180D01*
G01X15431Y48172D01*
G01X15456Y48165D01*
G01X15482Y48161D01*
G01X15505Y48159D01*
G01X15577Y48172D01*
G01X15623Y48210D01*
G01X15648Y48266D01*
G01X15655Y48340D01*
G01X15655Y48655D01*
G01X15739Y48655D01*
G01X15739Y48718D01*
G01X15653Y48723D01*
G01X15643Y48878D01*
G37*

%LPD*%
G36*
G01X17555Y48287D02*
G01X17530Y48291D01*
G01X17506Y48287D01*
G01X17487Y48274D01*
G01X17474Y48253D01*
G01X17469Y48225D01*
G01X17474Y48199D01*
G01X17487Y48178D01*
G01X17506Y48164D01*
G01X17530Y48159D01*
G01X17555Y48164D01*
G01X17575Y48178D01*
G01X17589Y48199D01*
G01X17593Y48225D01*
G01X17589Y48253D01*
G01X17575Y48274D01*
G01X17555Y48287D01*
G37*

%LPD*%
G36*
G01X17967Y48724D02*
G01X17888Y48736D01*
G01X17840Y48731D01*
G01X17796Y48718D01*
G01X17755Y48698D01*
G01X17720Y48675D01*
G01X17761Y48622D01*
G01X17790Y48641D01*
G01X17820Y48656D01*
G01X17852Y48666D01*
G01X17888Y48670D01*
G01X17936Y48663D01*
G01X17969Y48645D01*
G01X17989Y48618D01*
G01X17995Y48586D01*
G01X17984Y48551D01*
G01X17958Y48525D01*
G01X17920Y48506D01*
G01X17875Y48489D01*
G01X17814Y48464D01*
G01X17760Y48432D01*
G01X17720Y48387D01*
G01X17705Y48322D01*
G01X17718Y48259D01*
G01X17755Y48207D01*
G01X17817Y48172D01*
G01X17901Y48159D01*
G01X17959Y48165D01*
G01X18013Y48181D01*
G01X18062Y48205D01*
G01X18104Y48235D01*
G01X18063Y48291D01*
G01X18027Y48265D01*
G01X17989Y48244D01*
G01X17946Y48230D01*
G01X17898Y48225D01*
G01X17848Y48232D01*
G01X17812Y48252D01*
G01X17791Y48281D01*
G01X17784Y48317D01*
G01X17795Y48355D01*
G01X17824Y48384D01*
G01X17866Y48406D01*
G01X17911Y48423D01*
G01X17970Y48448D01*
G01X18022Y48479D01*
G01X18059Y48523D01*
G01X18073Y48583D01*
G01X18061Y48642D01*
G01X18026Y48691D01*
G01X17967Y48724D01*
G37*

%LPD*%
G36*
G01X19013Y48878D02*
G01X18942Y48878D01*
G01X18942Y48723D01*
G01X18792Y48723D01*
G01X18792Y48655D01*
G01X18942Y48655D01*
G01X18942Y48337D01*
G01X18938Y48291D01*
G01X18924Y48257D01*
G01X18897Y48235D01*
G01X18856Y48228D01*
G01X18840Y48229D01*
G01X18823Y48232D01*
G01X18807Y48237D01*
G01X18792Y48243D01*
G01X18777Y48180D01*
G01X18801Y48172D01*
G01X18825Y48165D01*
G01X18850Y48161D01*
G01X18873Y48159D01*
G01X18946Y48172D01*
G01X18993Y48210D01*
G01X19018Y48266D01*
G01X19026Y48340D01*
G01X19026Y48655D01*
G01X19110Y48655D01*
G01X19110Y48718D01*
G01X19023Y48723D01*
G01X19013Y48878D01*
G37*

%LPD*%
G36*
G01X19364Y48878D02*
G01X19295Y48878D01*
G01X19295Y48723D01*
G01X19145Y48723D01*
G01X19145Y48655D01*
G01X19295Y48655D01*
G01X19295Y48337D01*
G01X19291Y48291D01*
G01X19277Y48257D01*
G01X19250Y48235D01*
G01X19209Y48228D01*
G01X19193Y48229D01*
G01X19176Y48232D01*
G01X19160Y48237D01*
G01X19145Y48243D01*
G01X19130Y48180D01*
G01X19154Y48172D01*
G01X19178Y48165D01*
G01X19203Y48161D01*
G01X19227Y48159D01*
G01X19299Y48172D01*
G01X19346Y48210D01*
G01X19371Y48266D01*
G01X19379Y48340D01*
G01X19379Y48655D01*
G01X19460Y48655D01*
G01X19460Y48718D01*
G01X19374Y48723D01*
G01X19364Y48878D01*
G37*

%LPD*%
G36*
G01X6562Y48977D02*
G01X6501Y48977D01*
G01X6816Y47992D01*
G01X6877Y47992D01*
G01X6562Y48977D01*
G37*

%LPD*%
G36*
G01X10936Y48977D02*
G01X10875Y48977D01*
G01X11187Y47992D01*
G01X11248Y47992D01*
G01X10936Y48977D01*
G37*

%LPD*%
G36*
G01X16669Y48977D02*
G01X16608Y48977D01*
G01X16923Y47992D01*
G01X16984Y47992D01*
G01X16669Y48977D01*
G37*

%LPD*%
G36*
G01X17068Y48977D02*
G01X17007Y48977D01*
G01X17322Y47992D01*
G01X17382Y47992D01*
G01X17068Y48977D01*
G37*

%LPD*%
G36*
G01X18458Y48729D02*
G01X18411Y48736D01*
G01X18360Y48731D01*
G01X18316Y48716D01*
G01X18278Y48692D01*
G01X18247Y48660D01*
G01X18222Y48619D01*
G01X18204Y48572D01*
G01X18194Y48517D01*
G01X18190Y48456D01*
G01X18195Y48389D01*
G01X18210Y48330D01*
G01X18233Y48280D01*
G01X18263Y48237D01*
G01X18299Y48203D01*
G01X18341Y48179D01*
G01X18385Y48164D01*
G01X18432Y48159D01*
G01X18470Y48164D01*
G01X18508Y48177D01*
G01X18547Y48198D01*
G01X18586Y48225D01*
G01X18584Y48129D01*
G01X18584Y47938D01*
G01X18665Y47938D01*
G01X18665Y48723D01*
G01X18599Y48723D01*
G01X18592Y48657D01*
G01X18586Y48657D01*
G01X18547Y48687D01*
G01X18504Y48711D01*
G01X18458Y48729D01*
G37*

%LPC*%
G36*
G01X18466Y48662D02*
G01X18429Y48667D01*
G01X18359Y48651D01*
G01X18312Y48608D01*
G01X18285Y48542D01*
G01X18277Y48456D01*
G01X18289Y48362D01*
G01X18324Y48291D01*
G01X18377Y48246D01*
G01X18444Y48230D01*
G01X18474Y48233D01*
G01X18508Y48244D01*
G01X18545Y48262D01*
G01X18584Y48291D01*
G01X18584Y48586D01*
G01X18543Y48621D01*
G01X18504Y48646D01*
G01X18466Y48662D01*
G37*

%LPD*%
G36*
G01X5575Y48722D02*
G01X5495Y48736D01*
G01X5473Y48734D01*
G01X5454Y48731D01*
G01X5435Y48727D01*
G01X5419Y48723D01*
G01X5231Y48723D01*
G01X5231Y48657D01*
G01X5345Y48657D01*
G01X5326Y48635D01*
G01X5311Y48607D01*
G01X5301Y48575D01*
G01X5297Y48540D01*
G01X5313Y48460D01*
G01X5356Y48400D01*
G01X5419Y48361D01*
G01X5495Y48347D01*
G01X5517Y48349D01*
G01X5539Y48352D01*
G01X5561Y48359D01*
G01X5582Y48368D01*
G01X5596Y48354D01*
G01X5607Y48339D01*
G01X5615Y48321D01*
G01X5617Y48299D01*
G01X5613Y48274D01*
G01X5597Y48254D01*
G01X5567Y48240D01*
G01X5521Y48235D01*
G01X5409Y48235D01*
G01X5327Y48228D01*
G01X5268Y48205D01*
G01X5233Y48165D01*
G01X5221Y48106D01*
G01X5226Y48069D01*
G01X5240Y48035D01*
G01X5264Y48003D01*
G01X5295Y47975D01*
G01X5335Y47951D01*
G01X5382Y47933D01*
G01X5435Y47922D01*
G01X5495Y47918D01*
G01X5588Y47928D01*
G01X5659Y47957D01*
G01X5705Y48004D01*
G01X5721Y48068D01*
G01X5716Y48102D01*
G01X5700Y48135D01*
G01X5674Y48165D01*
G01X5640Y48192D01*
G01X5640Y48197D01*
G01X5659Y48213D01*
G01X5675Y48232D01*
G01X5685Y48257D01*
G01X5688Y48286D01*
G01X5683Y48318D01*
G01X5669Y48347D01*
G01X5649Y48370D01*
G01X5627Y48388D01*
G01X5627Y48393D01*
G01X5654Y48418D01*
G01X5676Y48452D01*
G01X5692Y48493D01*
G01X5698Y48540D01*
G01X5683Y48621D01*
G01X5639Y48682D01*
G01X5575Y48722D01*
G37*

%LPC*%
G36*
G01X5615Y48152D02*
G01X5587Y48174D01*
G01X5568Y48171D01*
G01X5550Y48169D01*
G01X5533Y48167D01*
G01X5417Y48167D01*
G01X5368Y48163D01*
G01X5332Y48151D01*
G01X5310Y48128D01*
G01X5302Y48093D01*
G01X5315Y48050D01*
G01X5352Y48013D01*
G01X5408Y47987D01*
G01X5483Y47976D01*
G01X5552Y47983D01*
G01X5605Y48004D01*
G01X5637Y48036D01*
G01X5648Y48078D01*
G01X5644Y48103D01*
G01X5633Y48128D01*
G01X5615Y48152D01*
G37*
G36*
G01X5544Y48666D02*
G01X5495Y48675D01*
G01X5449Y48666D01*
G01X5409Y48639D01*
G01X5383Y48597D01*
G01X5373Y48540D01*
G01X5383Y48484D01*
G01X5409Y48441D01*
G01X5449Y48413D01*
G01X5495Y48403D01*
G01X5543Y48413D01*
G01X5582Y48441D01*
G01X5610Y48484D01*
G01X5620Y48540D01*
G01X5610Y48597D01*
G01X5583Y48639D01*
G01X5544Y48666D01*
G37*

%LPD*%
G36*
G01X16409Y48722D02*
G01X16331Y48736D01*
G01X16309Y48734D01*
G01X16288Y48731D01*
G01X16270Y48727D01*
G01X16255Y48723D01*
G01X16064Y48723D01*
G01X16064Y48657D01*
G01X16179Y48657D01*
G01X16161Y48635D01*
G01X16146Y48607D01*
G01X16136Y48575D01*
G01X16133Y48540D01*
G01X16148Y48460D01*
G01X16190Y48400D01*
G01X16253Y48361D01*
G01X16331Y48347D01*
G01X16351Y48349D01*
G01X16373Y48352D01*
G01X16394Y48359D01*
G01X16415Y48368D01*
G01X16429Y48354D01*
G01X16440Y48339D01*
G01X16448Y48321D01*
G01X16450Y48299D01*
G01X16446Y48274D01*
G01X16430Y48254D01*
G01X16400Y48240D01*
G01X16354Y48235D01*
G01X16245Y48235D01*
G01X16161Y48228D01*
G01X16102Y48205D01*
G01X16066Y48165D01*
G01X16054Y48106D01*
G01X16059Y48069D01*
G01X16073Y48035D01*
G01X16097Y48003D01*
G01X16128Y47975D01*
G01X16168Y47951D01*
G01X16215Y47933D01*
G01X16268Y47922D01*
G01X16328Y47918D01*
G01X16421Y47928D01*
G01X16492Y47957D01*
G01X16538Y48004D01*
G01X16554Y48068D01*
G01X16549Y48102D01*
G01X16533Y48135D01*
G01X16507Y48165D01*
G01X16473Y48192D01*
G01X16473Y48197D01*
G01X16493Y48213D01*
G01X16509Y48232D01*
G01X16520Y48257D01*
G01X16524Y48286D01*
G01X16518Y48318D01*
G01X16503Y48347D01*
G01X16483Y48370D01*
G01X16463Y48388D01*
G01X16463Y48393D01*
G01X16489Y48418D01*
G01X16512Y48452D01*
G01X16528Y48493D01*
G01X16534Y48540D01*
G01X16518Y48621D01*
G01X16474Y48682D01*
G01X16409Y48722D01*
G37*

%LPC*%
G36*
G01X16449Y48152D02*
G01X16422Y48174D01*
G01X16403Y48171D01*
G01X16384Y48169D01*
G01X16366Y48167D01*
G01X16250Y48167D01*
G01X16201Y48163D01*
G01X16165Y48151D01*
G01X16143Y48128D01*
G01X16135Y48093D01*
G01X16148Y48050D01*
G01X16185Y48013D01*
G01X16242Y47987D01*
G01X16316Y47976D01*
G01X16385Y47983D01*
G01X16438Y48004D01*
G01X16470Y48036D01*
G01X16481Y48078D01*
G01X16477Y48103D01*
G01X16467Y48128D01*
G01X16449Y48152D01*
G37*
G36*
G01X16378Y48666D02*
G01X16331Y48675D01*
G01X16283Y48666D01*
G01X16243Y48639D01*
G01X16216Y48597D01*
G01X16206Y48540D01*
G01X16217Y48484D01*
G01X16244Y48441D01*
G01X16284Y48413D01*
G01X16331Y48403D01*
G01X16378Y48413D01*
G01X16417Y48441D01*
G01X16443Y48484D01*
G01X16453Y48540D01*
G01X16443Y48597D01*
G01X16417Y48639D01*
G01X16378Y48666D01*
G37*

%LPD*%
G54D23*
G01X991Y80999D02*
G01X2376Y80999D01*
G01X2654Y80907D01*
G01X2838Y80722D01*
G01X2931Y80445D01*
G01X2931Y80261D01*
G01X2838Y79983D01*
G01X2654Y79799D01*
G01X2376Y79706D01*
G01X991Y79706D01*
G01X1268Y77804D02*
G01X1083Y77988D01*
G01X991Y78265D01*
G01X991Y78635D01*
G01X1083Y78912D01*
G01X1268Y79097D01*
G01X1453Y79097D01*
G01X1638Y79004D01*
G01X1730Y78912D01*
G01X1822Y78727D01*
G01X2007Y78173D01*
G01X2099Y77988D01*
G01X2192Y77896D01*
G01X2376Y77804D01*
G01X2654Y77804D01*
G01X2838Y77988D01*
G01X2931Y78265D01*
G01X2931Y78635D01*
G01X2838Y78912D01*
G01X2654Y79097D01*
G01X991Y77194D02*
G01X2931Y77194D01*
G01X991Y77194D02*
G01X991Y76363D01*
G01X1083Y76086D01*
G01X1176Y75993D01*
G01X1360Y75901D01*
G01X1545Y75901D01*
G01X1730Y75993D01*
G01X1822Y76086D01*
G01X1915Y76363D01*
G01X1915Y77194D02*
G01X1915Y76363D01*
G01X2007Y76086D01*
G01X2099Y75993D01*
G01X2284Y75901D01*
G01X2561Y75901D01*
G01X2746Y75993D01*
G01X2838Y76086D01*
G01X2931Y76363D01*
G01X2931Y77194D01*
G54D10*
G01X3400Y30000D02*
G01X5900Y30000D01*
G01X5900Y20000D01*
G01X3400Y20000D01*
G01X3400Y30000D01*
G01X26200Y30000D02*
G01X28700Y30000D01*
G01X28700Y20000D01*
G01X26200Y20000D01*
G01X26200Y30000D01*
G01X3400Y8499D02*
G01X5900Y8499D01*
G01X5900Y999D01*
G01X3400Y999D01*
G01X3400Y8499D01*
G01X26200Y8499D02*
G01X28700Y8499D01*
G01X28700Y999D01*
G01X26200Y999D01*
G01X26200Y8499D01*
G01X21299Y58200D02*
G01X31100Y58200D01*
G01X31100Y46864D01*
G01X21299Y46864D01*
G01X21299Y58200D01*
G01X700Y58200D02*
G01X31139Y58200D01*
G01X31139Y46835D01*
G01X700Y46835D01*
G01X700Y58200D01*
G01X728Y58203D02*
G01X21229Y58203D01*
G01X21229Y50403D01*
G01X728Y50403D01*
G01X728Y58203D01*
M00*
M02*
