G04 Layer: TopLayer*
G04 EasyEDA v6.3.43, 2020-06-01T13:25:17--4:00*
G04 027e7c98d4664958ba99b1e46bb510d5,7404d47bf86b4b15bb797b085195da26,10*
G04 Gerber Generator version 0.2*
G04 Scale: 100 percent, Rotated: No, Reflected: No *
G04 Dimensions in millimeters *
G04 leading zeros omitted , absolute positions ,3 integer and 3 decimal *
%FSLAX33Y33*%
%MOMM*%
G90*
G71D02*

%ADD10C,0.254000*%
%ADD11C,0.580009*%
%ADD12C,0.614985*%
%ADD13R,0.999998X1.099998*%
%ADD14R,1.099998X0.999998*%
%ADD15R,0.499999X0.550012*%
%ADD16R,1.399997X1.199998*%
%ADD17R,1.299997X0.699999*%
%ADD18C,1.829003*%
%ADD19C,1.151992*%

%LPD*%
G54D11*
G01X1303Y86220D02*
G01X1303Y78997D01*
G01X2500Y77800D01*
G54D10*
G01X8400Y81300D02*
G01X6250Y83449D01*
G01X6100Y83449D01*
G01X4100Y77800D02*
G01X4900Y78600D01*
G01X4900Y82549D01*
G54D11*
G01X27200Y56900D02*
G01X27200Y56900D01*
G01X25800Y55500D01*
G01X3843Y86220D02*
G01X2500Y84877D01*
G01X2500Y82900D01*
G01X6383Y86220D02*
G01X8400Y84203D01*
G01X8400Y82900D01*
G01X19000Y77850D02*
G01X21150Y80000D01*
G01X21999Y80000D01*
G01X19000Y12150D02*
G01X21999Y15150D01*
G01X21999Y15400D01*
G01X12999Y74150D02*
G01X18999Y74150D01*
G01X12999Y38350D02*
G01X18999Y38350D01*
G01X4640Y4739D02*
G01X4640Y2199D01*
G01X4640Y7279D02*
G01X4640Y4739D01*
G01X4640Y21200D02*
G01X4640Y7279D01*
G01X4640Y23740D02*
G01X4640Y21200D01*
G01X4640Y26280D02*
G01X4640Y23740D01*
G01X4640Y28820D02*
G01X4640Y26280D01*
G01X25900Y12000D02*
G01X25800Y12100D01*
G01X25800Y16000D01*
G01X27200Y17400D02*
G01X27200Y17400D01*
G01X25799Y16000D01*
G01X25900Y51500D02*
G01X25800Y51600D01*
G01X25800Y55500D01*
G01X19000Y34650D02*
G01X21999Y37650D01*
G01X21999Y37899D01*
G01X12999Y15850D02*
G01X18999Y15850D01*
G01X25900Y34500D02*
G01X25800Y34600D01*
G01X25800Y38500D01*
G01X21999Y34499D02*
G01X22000Y34500D01*
G01X24100Y34500D01*
G01X19000Y51650D02*
G01X21999Y54649D01*
G01X21999Y54900D01*
G01X12999Y34650D02*
G01X18999Y34650D01*
G01X12999Y55350D02*
G01X18999Y55350D01*
G01X12999Y77850D02*
G01X18999Y77850D01*
G01X12999Y12150D02*
G01X18999Y12150D01*
G01X24100Y34500D02*
G01X24200Y34600D01*
G01X24200Y38500D01*
G01X25900Y76599D02*
G01X25800Y76699D01*
G01X25800Y80599D01*
G01X12999Y51650D02*
G01X18999Y51650D01*
G01X25799Y38500D02*
G01X27199Y39899D01*
G01X27200Y39899D01*
G01X25899Y76600D02*
G01X27198Y77900D01*
G01X27200Y77900D01*
G54D10*
G01X2500Y81300D02*
G01X4649Y83449D01*
G01X4900Y83449D01*
G54D11*
G01X24100Y12000D02*
G01X24200Y12100D01*
G01X24200Y16000D01*
G01X21999Y12000D02*
G01X21999Y12000D01*
G01X24100Y12000D01*
G01X21999Y51500D02*
G01X21999Y51500D01*
G01X24100Y51500D01*
G01X24100Y51500D02*
G01X24200Y51600D01*
G01X24200Y55500D01*
G01X11463Y70980D02*
G01X24199Y58243D01*
G01X24199Y55500D01*
G01X21999Y76600D02*
G01X22000Y76599D01*
G01X24100Y76599D01*
G01X24100Y76599D02*
G01X24200Y76700D01*
G01X24200Y80599D01*
G01X23819Y76599D02*
G01X23819Y71323D01*
G01X24163Y70980D01*
G01X6100Y82550D02*
G01X6100Y73803D01*
G01X8923Y70980D01*
G01X19083Y70980D02*
G01X28399Y61663D01*
G01X28399Y43199D01*
G01X24199Y38999D01*
G01X24199Y38500D01*
G01X12999Y38350D02*
G01X8683Y38350D01*
G01X4699Y42333D01*
G01X13000Y15849D02*
G01X8350Y15849D01*
G01X4639Y19560D01*
G01X4639Y21201D01*
G01X8923Y70980D02*
G01X8580Y70980D01*
G01X4699Y67099D01*
G54D10*
G01X10199Y72499D02*
G01X10199Y69400D01*
G01X12999Y74150D02*
G01X11850Y74150D01*
G01X10199Y72499D01*
G54D11*
G01X21623Y70980D02*
G01X29699Y62903D01*
G01X29699Y19999D01*
G01X28799Y19100D01*
G01X26699Y19100D01*
G01X24200Y16599D01*
G01X24199Y16000D01*
G54D10*
G01X4700Y62986D02*
G01X10199Y68485D01*
G01X10199Y69400D01*
G54D11*
G01X4699Y65400D02*
G01X4699Y54442D01*
G01X4699Y27523D01*
G01X12999Y55350D02*
G01X8661Y55350D01*
G01X4699Y59311D01*
G54D13*
G01X4100Y77800D03*
G01X2500Y77800D03*
G54D14*
G01X2500Y81299D03*
G01X2500Y82899D03*
G01X8400Y81299D03*
G01X8400Y82899D03*
G54D15*
G01X4900Y82549D03*
G01X4900Y83449D03*
G01X6100Y83449D03*
G01X6100Y82549D03*
G54D14*
G01X4700Y67100D03*
G01X4700Y65500D03*
G54D16*
G01X21999Y76600D03*
G01X21999Y79999D03*
G01X21999Y51500D03*
G01X21999Y54899D03*
G01X21999Y34500D03*
G01X21999Y37899D03*
G01X21999Y12000D03*
G01X21999Y15400D03*
G54D13*
G01X25899Y76600D03*
G01X24099Y76600D03*
G01X25899Y51500D03*
G01X24099Y51500D03*
G01X25899Y34500D03*
G01X24099Y34500D03*
G01X25899Y12000D03*
G01X24099Y12000D03*
G01X24199Y80600D03*
G01X25800Y80600D03*
G01X24199Y55500D03*
G01X25800Y55500D03*
G01X24199Y38500D03*
G01X25800Y38500D03*
G01X24199Y16000D03*
G01X25800Y16000D03*
G54D17*
G01X12999Y55350D03*
G01X18999Y55350D03*
G01X12999Y51649D03*
G01X18999Y51649D03*
G01X12999Y38350D03*
G01X18999Y38350D03*
G01X12999Y34649D03*
G01X18999Y34649D03*
G01X12999Y15850D03*
G01X18999Y15850D03*
G01X12999Y12149D03*
G01X18999Y12149D03*
G01X18999Y74150D03*
G01X12999Y74150D03*
G01X18999Y77850D03*
G01X12999Y77850D03*
G54D18*
G01X7180Y21199D03*
G01X4640Y21199D03*
G01X4640Y28819D03*
G01X4640Y26279D03*
G01X4640Y23739D03*
G01X7180Y23739D03*
G01X7180Y26279D03*
G01X7180Y28819D03*
G01X17340Y28819D03*
G01X17340Y26279D03*
G01X17340Y23739D03*
G01X14800Y23739D03*
G01X14800Y26279D03*
G01X14800Y21199D03*
G01X17340Y21199D03*
G01X12260Y21199D03*
G01X9720Y21199D03*
G01X9720Y28819D03*
G01X9720Y26279D03*
G01X9720Y23739D03*
G01X12260Y23739D03*
G01X12260Y26279D03*
G01X12260Y28819D03*
G01X22420Y21199D03*
G01X19880Y21199D03*
G01X19880Y28819D03*
G01X19880Y26279D03*
G01X19880Y23739D03*
G01X22420Y23739D03*
G01X22420Y26279D03*
G01X22420Y28819D03*
G01X24960Y28819D03*
G01X24960Y26279D03*
G01X24960Y23739D03*
G01X24960Y21199D03*
G01X27500Y28819D03*
G01X27500Y26279D03*
G01X27500Y23739D03*
G01X27500Y21199D03*
G01X14800Y28819D03*
G01X27500Y2199D03*
G01X27500Y4739D03*
G01X27500Y7279D03*
G01X24960Y2199D03*
G01X24960Y4739D03*
G01X24960Y7279D03*
G01X22420Y7279D03*
G01X22420Y4739D03*
G01X19880Y4739D03*
G01X19880Y7279D03*
G01X19880Y2199D03*
G01X22420Y2199D03*
G01X12260Y7279D03*
G01X12260Y4739D03*
G01X9720Y4739D03*
G01X9720Y7279D03*
G01X9720Y2199D03*
G01X12260Y2199D03*
G01X17340Y2199D03*
G01X14800Y2199D03*
G01X14800Y7279D03*
G01X14800Y4739D03*
G01X17340Y4739D03*
G01X17340Y7279D03*
G01X7180Y7279D03*
G01X7180Y4739D03*
G01X4640Y4739D03*
G01X4640Y7279D03*
G01X4640Y2199D03*
G01X7180Y2199D03*
G01X12260Y31359D03*
G01X14800Y31359D03*
G01X17340Y31359D03*
G01X19880Y31359D03*
G01X19919Y9819D03*
G01X17379Y9819D03*
G01X14839Y9819D03*
G01X12299Y9819D03*
G54D19*
G01X29999Y88000D03*
G01X29999Y2000D03*
G01X1999Y2000D03*
G54D18*
G01X1303Y70980D03*
G01X3843Y70980D03*
G01X6383Y70980D03*
G01X8923Y70980D03*
G01X11463Y70980D03*
G01X14003Y70980D03*
G01X16543Y70980D03*
G01X19083Y70980D03*
G01X21623Y70980D03*
G01X24163Y70980D03*
G01X1303Y86220D03*
G01X3843Y86220D03*
G01X6383Y86220D03*
G01X8923Y86220D03*
G01X11463Y86220D03*
G01X14003Y86220D03*
G01X16543Y86220D03*
G01X19083Y86220D03*
G01X21623Y86220D03*
G01X24163Y86220D03*
G54D12*
G01X27200Y56900D03*
G01X27200Y39899D03*
G01X27200Y17400D03*
G01X27200Y77900D03*
M00*
M02*
