G04 Layer: TopSilkLayer*
G04 EasyEDA v6.3.43, 2020-05-25T13:15:07--4:00*
G04 e579016d1e7f4addb33e082967b8cc68,7404d47bf86b4b15bb797b085195da26,10*
G04 Gerber Generator version 0.2*
G04 Scale: 100 percent, Rotated: No, Reflected: No *
G04 Dimensions in millimeters *
G04 leading zeros omitted , absolute positions ,3 integer and 3 decimal *
%FSLAX33Y33*%
%MOMM*%
G90*
G71D02*

%ADD10C,0.254000*%
%ADD23C,0.203200*%
%ADD24C,0.152400*%

%LPD*%
G54D10*
G01X1750Y78600D02*
G01X1750Y77000D01*
G01X3600Y77005D02*
G01X4850Y77005D01*
G01X3600Y78605D02*
G01X4850Y78605D01*
G01X3000Y77000D02*
G01X1750Y77000D01*
G01X3000Y78600D02*
G01X1750Y78600D01*
G01X4850Y78605D02*
G01X4850Y77005D01*
G01X3300Y83649D02*
G01X1699Y83649D01*
G01X1705Y81799D02*
G01X1705Y80549D01*
G01X3305Y81799D02*
G01X3305Y80549D01*
G01X1699Y82399D02*
G01X1699Y83649D01*
G01X3300Y82399D02*
G01X3300Y83649D01*
G01X3305Y80549D02*
G01X1705Y80549D01*
G01X9200Y83649D02*
G01X7599Y83649D01*
G01X7605Y81799D02*
G01X7605Y80549D01*
G01X9205Y81799D02*
G01X9205Y80549D01*
G01X7599Y82399D02*
G01X7599Y83649D01*
G01X9200Y82399D02*
G01X9200Y83649D01*
G01X9205Y80549D02*
G01X7605Y80549D01*
G01X5318Y83799D02*
G01X5681Y83799D01*
G01X5681Y82199D02*
G01X5318Y82199D01*
G01X5370Y83329D02*
G01X5370Y83329D01*
G01X5370Y83319D01*
G01X5370Y83319D01*
G01X5370Y83329D01*
G01X5630Y83339D02*
G01X5630Y83339D01*
G01X5630Y83329D01*
G01X5630Y83329D01*
G01X5630Y83339D01*
G01X5370Y82669D02*
G01X5370Y82669D01*
G01X5370Y82659D01*
G01X5370Y82659D01*
G01X5370Y82669D01*
G01X3899Y64750D02*
G01X5500Y64750D01*
G01X5494Y66600D02*
G01X5494Y67850D01*
G01X3894Y66600D02*
G01X3894Y67850D01*
G01X5500Y66000D02*
G01X5500Y64750D01*
G01X3899Y66000D02*
G01X3899Y64750D01*
G01X3894Y67850D02*
G01X5494Y67850D01*
G01X22000Y77792D02*
G01X21593Y78808D01*
G01X21593Y78808D02*
G01X22406Y78808D01*
G01X22406Y78808D02*
G01X22000Y77792D01*
G01X21000Y76800D02*
G01X21000Y79800D01*
G01X23000Y76800D02*
G01X23000Y79800D01*
G01X21492Y77792D02*
G01X22508Y77792D01*
G01X22000Y77538D02*
G01X22000Y79062D01*
G01X22000Y52692D02*
G01X21593Y53708D01*
G01X21593Y53708D02*
G01X22406Y53708D01*
G01X22406Y53708D02*
G01X22000Y52692D01*
G01X21000Y51700D02*
G01X21000Y54700D01*
G01X23000Y51700D02*
G01X23000Y54700D01*
G01X21492Y52692D02*
G01X22508Y52692D01*
G01X22000Y52438D02*
G01X22000Y53962D01*
G01X22000Y35692D02*
G01X21593Y36708D01*
G01X21593Y36708D02*
G01X22406Y36708D01*
G01X22406Y36708D02*
G01X22000Y35692D01*
G01X21000Y34700D02*
G01X21000Y37700D01*
G01X23000Y34700D02*
G01X23000Y37700D01*
G01X21492Y35692D02*
G01X22508Y35692D01*
G01X22000Y35438D02*
G01X22000Y36962D01*
G01X22000Y13191D02*
G01X21593Y14207D01*
G01X21593Y14207D02*
G01X22406Y14207D01*
G01X22406Y14207D02*
G01X22000Y13191D01*
G01X21000Y12200D02*
G01X21000Y15199D01*
G01X23000Y12200D02*
G01X23000Y15199D01*
G01X21492Y13191D02*
G01X22508Y13191D01*
G01X22000Y12937D02*
G01X22000Y14461D01*
G01X23349Y76000D02*
G01X23349Y77200D01*
G01X25399Y75800D02*
G01X26399Y75800D01*
G01X25399Y77400D02*
G01X26399Y77400D01*
G01X24599Y75800D02*
G01X23600Y75800D01*
G01X24599Y77400D02*
G01X23600Y77400D01*
G01X26650Y76000D02*
G01X26650Y77200D01*
G01X26450Y75800D02*
G01X26399Y75800D01*
G01X26449Y77400D02*
G01X26399Y77400D01*
G01X23549Y75800D02*
G01X23600Y75800D01*
G01X23550Y77400D02*
G01X23600Y77400D01*
G01X23349Y50900D02*
G01X23349Y52100D01*
G01X25399Y50700D02*
G01X26399Y50700D01*
G01X25399Y52300D02*
G01X26399Y52300D01*
G01X24599Y50700D02*
G01X23600Y50700D01*
G01X24599Y52300D02*
G01X23600Y52300D01*
G01X26650Y50900D02*
G01X26650Y52100D01*
G01X26450Y50700D02*
G01X26399Y50700D01*
G01X26449Y52300D02*
G01X26399Y52300D01*
G01X23549Y50700D02*
G01X23600Y50700D01*
G01X23550Y52300D02*
G01X23600Y52300D01*
G01X23349Y33900D02*
G01X23349Y35100D01*
G01X25399Y33700D02*
G01X26399Y33700D01*
G01X25399Y35300D02*
G01X26399Y35300D01*
G01X24599Y33700D02*
G01X23600Y33700D01*
G01X24599Y35300D02*
G01X23600Y35300D01*
G01X26650Y33900D02*
G01X26650Y35100D01*
G01X26450Y33700D02*
G01X26399Y33700D01*
G01X26449Y35300D02*
G01X26399Y35300D01*
G01X23549Y33700D02*
G01X23600Y33700D01*
G01X23550Y35300D02*
G01X23600Y35300D01*
G01X23349Y11400D02*
G01X23349Y12600D01*
G01X25399Y11200D02*
G01X26399Y11200D01*
G01X25399Y12800D02*
G01X26399Y12800D01*
G01X24599Y11200D02*
G01X23600Y11200D01*
G01X24599Y12800D02*
G01X23600Y12800D01*
G01X26650Y11400D02*
G01X26650Y12600D01*
G01X26450Y11200D02*
G01X26399Y11200D01*
G01X26449Y12800D02*
G01X26399Y12800D01*
G01X23549Y11200D02*
G01X23600Y11200D01*
G01X23550Y12800D02*
G01X23600Y12800D01*
G01X26549Y79800D02*
G01X26549Y81400D01*
G01X24699Y81394D02*
G01X23449Y81394D01*
G01X24699Y79794D02*
G01X23449Y79794D01*
G01X25299Y81400D02*
G01X26549Y81400D01*
G01X25299Y79800D02*
G01X26549Y79800D01*
G01X23449Y79794D02*
G01X23449Y81394D01*
G01X26549Y54700D02*
G01X26549Y56300D01*
G01X24699Y56294D02*
G01X23449Y56294D01*
G01X24699Y54694D02*
G01X23449Y54694D01*
G01X25299Y56300D02*
G01X26549Y56300D01*
G01X25299Y54700D02*
G01X26549Y54700D01*
G01X23449Y54694D02*
G01X23449Y56294D01*
G01X26549Y37700D02*
G01X26549Y39300D01*
G01X24699Y39294D02*
G01X23449Y39294D01*
G01X24699Y37694D02*
G01X23449Y37694D01*
G01X25299Y39300D02*
G01X26549Y39300D01*
G01X25299Y37700D02*
G01X26549Y37700D01*
G01X23449Y37694D02*
G01X23449Y39294D01*
G01X26549Y15200D02*
G01X26549Y16800D01*
G01X24699Y16794D02*
G01X23449Y16794D01*
G01X24699Y15194D02*
G01X23449Y15194D01*
G01X25299Y16800D02*
G01X26549Y16800D01*
G01X25299Y15200D02*
G01X26549Y15200D01*
G01X23449Y15194D02*
G01X23449Y16794D01*
G01X13450Y56050D02*
G01X18550Y56050D01*
G01X18549Y50950D02*
G01X13450Y50950D01*
G01X13450Y56050D02*
G01X13450Y55931D01*
G01X13450Y54768D02*
G01X13450Y52231D01*
G01X13450Y51068D02*
G01X13450Y50950D01*
G01X18550Y56050D02*
G01X18550Y55931D01*
G01X18550Y54768D02*
G01X18550Y52231D01*
G01X18550Y51068D02*
G01X18550Y50950D01*
G01X14999Y55500D02*
G01X16999Y55500D01*
G01X16999Y55500D01*
G01X17999Y54500D01*
G01X17999Y52500D01*
G01X16999Y51500D01*
G01X14999Y51500D01*
G01X13999Y52500D01*
G01X13999Y54500D01*
G01X13999Y54500D01*
G01X14999Y55500D01*
G01X13450Y39050D02*
G01X18550Y39050D01*
G01X18549Y33950D02*
G01X13450Y33950D01*
G01X13450Y39050D02*
G01X13450Y38931D01*
G01X13450Y37768D02*
G01X13450Y35231D01*
G01X13450Y34068D02*
G01X13450Y33950D01*
G01X18550Y39050D02*
G01X18550Y38931D01*
G01X18550Y37768D02*
G01X18550Y35231D01*
G01X18550Y34068D02*
G01X18550Y33950D01*
G01X14999Y38500D02*
G01X16999Y38500D01*
G01X16999Y38500D01*
G01X17999Y37500D01*
G01X17999Y35500D01*
G01X16999Y34500D01*
G01X14999Y34500D01*
G01X13999Y35500D01*
G01X13999Y37500D01*
G01X13999Y37500D01*
G01X14999Y38500D01*
G01X13450Y16550D02*
G01X18550Y16550D01*
G01X18549Y11450D02*
G01X13450Y11450D01*
G01X13450Y16550D02*
G01X13450Y16431D01*
G01X13450Y15268D02*
G01X13450Y12731D01*
G01X13450Y11568D02*
G01X13450Y11450D01*
G01X18550Y16550D02*
G01X18550Y16431D01*
G01X18550Y15268D02*
G01X18550Y12731D01*
G01X18550Y11568D02*
G01X18550Y11450D01*
G01X14999Y16000D02*
G01X16999Y16000D01*
G01X16999Y16000D01*
G01X17999Y15000D01*
G01X17999Y13000D01*
G01X16999Y12000D01*
G01X14999Y12000D01*
G01X13999Y13000D01*
G01X13999Y15000D01*
G01X13999Y15000D01*
G01X14999Y16000D01*
G01X18549Y73450D02*
G01X13449Y73450D01*
G01X13450Y78550D02*
G01X18549Y78550D01*
G01X18549Y73450D02*
G01X18549Y73568D01*
G01X18549Y74731D02*
G01X18549Y77268D01*
G01X18549Y78431D02*
G01X18549Y78550D01*
G01X13449Y73450D02*
G01X13449Y73568D01*
G01X13449Y74731D02*
G01X13449Y77268D01*
G01X13449Y78431D02*
G01X13449Y78550D01*
G01X16999Y74000D02*
G01X14999Y74000D01*
G01X14999Y74000D01*
G01X13999Y75000D01*
G01X13999Y77000D01*
G01X14999Y78000D01*
G01X16999Y78000D01*
G01X17999Y77000D01*
G01X17999Y75000D01*
G01X17999Y75000D01*
G01X16999Y74000D01*
G54D23*
G01X20407Y15954D02*
G01X20407Y15342D01*
G01X20100Y15646D02*
G01X20714Y15646D01*
G01X20307Y38454D02*
G01X20307Y37842D01*
G01X20000Y38146D02*
G01X20614Y38146D01*
G01X20407Y55454D02*
G01X20407Y54842D01*
G01X20100Y55146D02*
G01X20714Y55146D01*
G01X20307Y80354D02*
G01X20307Y79742D01*
G01X20000Y80046D02*
G01X20614Y80046D01*
G01X6907Y83254D02*
G01X6907Y82642D01*
G01X6600Y82947D02*
G01X7214Y82947D01*
G54D24*
G01X29099Y4254D02*
G01X29099Y3162D01*
G01X29828Y4254D02*
G01X29828Y3162D01*
G01X29099Y3733D02*
G01X29828Y3733D01*
G01X30222Y3992D02*
G01X30222Y4046D01*
G01X30272Y4150D01*
G01X30326Y4200D01*
G01X30430Y4254D01*
G01X30638Y4254D01*
G01X30742Y4200D01*
G01X30793Y4150D01*
G01X30844Y4046D01*
G01X30844Y3941D01*
G01X30793Y3837D01*
G01X30689Y3682D01*
G01X30171Y3162D01*
G01X30897Y3162D01*

%LPD*%
G36*
G01X28736Y88846D02*
G01X28609Y88846D01*
G01X28548Y88812D01*
G01X28478Y88785D01*
G01X28399Y88762D01*
G01X28309Y88744D01*
G01X28309Y88635D01*
G01X28571Y88635D01*
G01X28571Y87495D01*
G01X28238Y87495D01*
G01X28238Y87358D01*
G01X29038Y87358D01*
G01X29038Y87495D01*
G01X28736Y87495D01*
G01X28736Y88846D01*
G37*

%LPD*%
G36*
G01X26965Y88846D02*
G01X26798Y88846D01*
G01X26798Y87358D01*
G01X26965Y87358D01*
G01X26965Y88069D01*
G01X27682Y88069D01*
G01X27682Y87358D01*
G01X27852Y87358D01*
G01X27852Y88846D01*
G01X27682Y88846D01*
G01X27682Y88216D01*
G01X26965Y88216D01*
G01X26965Y88846D01*
G37*

%LPD*%
G01X1101Y4152D02*
G01X1101Y3063D01*
G01X1827Y4152D02*
G01X1827Y3063D01*
G01X1101Y3634D02*
G01X1827Y3634D01*
G01X2274Y4152D02*
G01X2846Y4152D01*
G01X2533Y3738D01*
G01X2691Y3738D01*
G01X2792Y3685D01*
G01X2846Y3634D01*
G01X2896Y3477D01*
G01X2896Y3372D01*
G01X2846Y3218D01*
G01X2741Y3113D01*
G01X2586Y3063D01*
G01X2429Y3063D01*
G01X2274Y3113D01*
G01X2221Y3167D01*
G01X2170Y3271D01*
G01X3600Y76509D02*
G01X3600Y75554D01*
G01X3600Y76509D02*
G01X4009Y76509D01*
G01X4144Y76463D01*
G01X4189Y76418D01*
G01X4235Y76326D01*
G01X4235Y76235D01*
G01X4189Y76146D01*
G01X4144Y76100D01*
G01X4009Y76055D01*
G01X3600Y76055D01*
G01X3918Y76055D02*
G01X4235Y75554D01*
G01X5081Y76509D02*
G01X4626Y76509D01*
G01X4581Y76100D01*
G01X4626Y76146D01*
G01X4763Y76192D01*
G01X4901Y76192D01*
G01X5035Y76146D01*
G01X5127Y76055D01*
G01X5172Y75917D01*
G01X5172Y75826D01*
G01X5127Y75691D01*
G01X5035Y75600D01*
G01X4901Y75554D01*
G01X4763Y75554D01*
G01X4626Y75600D01*
G01X4581Y75646D01*
G01X4535Y75737D01*
G01X1701Y80009D02*
G01X1701Y79054D01*
G01X1701Y80009D02*
G01X2110Y80009D01*
G01X2244Y79963D01*
G01X2290Y79918D01*
G01X2336Y79826D01*
G01X2336Y79735D01*
G01X2290Y79646D01*
G01X2244Y79600D01*
G01X2110Y79554D01*
G01X1701Y79554D01*
G01X2018Y79554D02*
G01X2336Y79054D01*
G01X3182Y79872D02*
G01X3136Y79963D01*
G01X2999Y80009D01*
G01X2910Y80009D01*
G01X2773Y79963D01*
G01X2681Y79826D01*
G01X2635Y79600D01*
G01X2635Y79372D01*
G01X2681Y79191D01*
G01X2773Y79100D01*
G01X2910Y79054D01*
G01X2953Y79054D01*
G01X3090Y79100D01*
G01X3182Y79191D01*
G01X3227Y79326D01*
G01X3227Y79372D01*
G01X3182Y79509D01*
G01X3090Y79600D01*
G01X2953Y79646D01*
G01X2910Y79646D01*
G01X2773Y79600D01*
G01X2681Y79509D01*
G01X2635Y79372D01*
G01X7599Y80009D02*
G01X7599Y79054D01*
G01X7599Y80009D02*
G01X8008Y80009D01*
G01X8145Y79963D01*
G01X8191Y79918D01*
G01X8236Y79826D01*
G01X8236Y79735D01*
G01X8191Y79646D01*
G01X8145Y79600D01*
G01X8008Y79554D01*
G01X7599Y79554D01*
G01X7919Y79554D02*
G01X8236Y79054D01*
G01X9171Y80009D02*
G01X8716Y79054D01*
G01X8536Y80009D02*
G01X9171Y80009D01*
G01X4000Y81709D02*
G01X4000Y80754D01*
G01X4000Y81709D02*
G01X4318Y81709D01*
G01X4455Y81664D01*
G01X4546Y81572D01*
G01X4589Y81481D01*
G01X4635Y81346D01*
G01X4635Y81117D01*
G01X4589Y80980D01*
G01X4546Y80891D01*
G01X4455Y80800D01*
G01X4318Y80754D01*
G01X4000Y80754D01*
G01X5481Y81709D02*
G01X5026Y81709D01*
G01X4980Y81300D01*
G01X5026Y81346D01*
G01X5163Y81389D01*
G01X5301Y81389D01*
G01X5435Y81346D01*
G01X5527Y81255D01*
G01X5572Y81117D01*
G01X5572Y81026D01*
G01X5527Y80891D01*
G01X5435Y80800D01*
G01X5301Y80754D01*
G01X5163Y80754D01*
G01X5026Y80800D01*
G01X4980Y80846D01*
G01X4935Y80937D01*
G01X2403Y66251D02*
G01X3493Y66251D01*
G01X2403Y66251D02*
G01X2403Y66718D01*
G01X2454Y66873D01*
G01X2507Y66926D01*
G01X2612Y66977D01*
G01X2716Y66977D01*
G01X2820Y66926D01*
G01X2871Y66873D01*
G01X2921Y66718D01*
G01X2921Y66251D01*
G01X2921Y66614D02*
G01X3493Y66977D01*
G01X2403Y67582D02*
G01X2454Y67424D01*
G01X2558Y67373D01*
G01X2662Y67373D01*
G01X2767Y67424D01*
G01X2820Y67528D01*
G01X2871Y67737D01*
G01X2921Y67891D01*
G01X3026Y67996D01*
G01X3130Y68049D01*
G01X3287Y68049D01*
G01X3391Y67996D01*
G01X3442Y67945D01*
G01X3493Y67787D01*
G01X3493Y67582D01*
G01X3442Y67424D01*
G01X3391Y67373D01*
G01X3287Y67320D01*
G01X3130Y67320D01*
G01X3026Y67373D01*
G01X2921Y67477D01*
G01X2871Y67632D01*
G01X2820Y67841D01*
G01X2767Y67945D01*
G01X2662Y67996D01*
G01X2558Y67996D01*
G01X2454Y67945D01*
G01X2403Y67787D01*
G01X2403Y67582D01*
G01X21300Y82253D02*
G01X21300Y81163D01*
G01X21300Y82253D02*
G01X21663Y82253D01*
G01X21820Y82202D01*
G01X21922Y82098D01*
G01X21975Y81994D01*
G01X22026Y81836D01*
G01X22026Y81577D01*
G01X21975Y81422D01*
G01X21922Y81318D01*
G01X21820Y81214D01*
G01X21663Y81163D01*
G01X21300Y81163D01*
G01X22369Y82044D02*
G01X22473Y82098D01*
G01X22630Y82253D01*
G01X22630Y81163D01*
G01X21100Y56953D02*
G01X21100Y55863D01*
G01X21100Y56953D02*
G01X21463Y56953D01*
G01X21620Y56902D01*
G01X21722Y56798D01*
G01X21775Y56694D01*
G01X21826Y56536D01*
G01X21826Y56277D01*
G01X21775Y56122D01*
G01X21722Y56018D01*
G01X21620Y55914D01*
G01X21463Y55863D01*
G01X21100Y55863D01*
G01X22222Y56694D02*
G01X22222Y56744D01*
G01X22273Y56849D01*
G01X22326Y56902D01*
G01X22430Y56953D01*
G01X22636Y56953D01*
G01X22740Y56902D01*
G01X22794Y56849D01*
G01X22844Y56744D01*
G01X22844Y56640D01*
G01X22794Y56536D01*
G01X22690Y56381D01*
G01X22169Y55863D01*
G01X22898Y55863D01*
G01X21100Y40053D02*
G01X21100Y38963D01*
G01X21100Y40053D02*
G01X21463Y40053D01*
G01X21620Y40002D01*
G01X21722Y39898D01*
G01X21775Y39794D01*
G01X21826Y39636D01*
G01X21826Y39377D01*
G01X21775Y39222D01*
G01X21722Y39118D01*
G01X21620Y39014D01*
G01X21463Y38963D01*
G01X21100Y38963D01*
G01X22273Y40053D02*
G01X22844Y40053D01*
G01X22535Y39636D01*
G01X22690Y39636D01*
G01X22794Y39585D01*
G01X22844Y39535D01*
G01X22898Y39377D01*
G01X22898Y39273D01*
G01X22844Y39118D01*
G01X22740Y39014D01*
G01X22585Y38963D01*
G01X22430Y38963D01*
G01X22273Y39014D01*
G01X22222Y39065D01*
G01X22169Y39169D01*
G01X21100Y17553D02*
G01X21100Y16463D01*
G01X21100Y17553D02*
G01X21463Y17553D01*
G01X21620Y17502D01*
G01X21722Y17398D01*
G01X21775Y17294D01*
G01X21826Y17136D01*
G01X21826Y16877D01*
G01X21775Y16722D01*
G01X21722Y16618D01*
G01X21620Y16514D01*
G01X21463Y16463D01*
G01X21100Y16463D01*
G01X22690Y17553D02*
G01X22169Y16826D01*
G01X22949Y16826D01*
G01X22690Y17553D02*
G01X22690Y16463D01*
G01X24279Y74994D02*
G01X24226Y75098D01*
G01X24122Y75202D01*
G01X24020Y75253D01*
G01X23812Y75253D01*
G01X23708Y75202D01*
G01X23604Y75098D01*
G01X23550Y74994D01*
G01X23500Y74836D01*
G01X23500Y74577D01*
G01X23550Y74422D01*
G01X23604Y74318D01*
G01X23708Y74214D01*
G01X23812Y74163D01*
G01X24020Y74163D01*
G01X24122Y74214D01*
G01X24226Y74318D01*
G01X24279Y74422D01*
G01X24622Y75044D02*
G01X24726Y75098D01*
G01X24881Y75253D01*
G01X24881Y74163D01*
G01X24279Y49894D02*
G01X24226Y49998D01*
G01X24122Y50102D01*
G01X24020Y50153D01*
G01X23812Y50153D01*
G01X23708Y50102D01*
G01X23604Y49998D01*
G01X23550Y49894D01*
G01X23500Y49736D01*
G01X23500Y49477D01*
G01X23550Y49322D01*
G01X23604Y49218D01*
G01X23708Y49114D01*
G01X23812Y49063D01*
G01X24020Y49063D01*
G01X24122Y49114D01*
G01X24226Y49218D01*
G01X24279Y49322D01*
G01X24673Y49894D02*
G01X24673Y49944D01*
G01X24726Y50049D01*
G01X24777Y50102D01*
G01X24881Y50153D01*
G01X25090Y50153D01*
G01X25194Y50102D01*
G01X25244Y50049D01*
G01X25298Y49944D01*
G01X25298Y49840D01*
G01X25244Y49736D01*
G01X25140Y49581D01*
G01X24622Y49063D01*
G01X25349Y49063D01*
G01X24279Y32894D02*
G01X24226Y32998D01*
G01X24122Y33102D01*
G01X24020Y33153D01*
G01X23812Y33153D01*
G01X23708Y33102D01*
G01X23604Y32998D01*
G01X23550Y32894D01*
G01X23500Y32736D01*
G01X23500Y32477D01*
G01X23550Y32322D01*
G01X23604Y32218D01*
G01X23708Y32114D01*
G01X23812Y32063D01*
G01X24020Y32063D01*
G01X24122Y32114D01*
G01X24226Y32218D01*
G01X24279Y32322D01*
G01X24726Y33153D02*
G01X25298Y33153D01*
G01X24985Y32736D01*
G01X25140Y32736D01*
G01X25244Y32685D01*
G01X25298Y32635D01*
G01X25349Y32477D01*
G01X25349Y32373D01*
G01X25298Y32218D01*
G01X25194Y32114D01*
G01X25036Y32063D01*
G01X24881Y32063D01*
G01X24726Y32114D01*
G01X24673Y32165D01*
G01X24622Y32269D01*
G01X24279Y10394D02*
G01X24226Y10498D01*
G01X24122Y10602D01*
G01X24020Y10653D01*
G01X23812Y10653D01*
G01X23708Y10602D01*
G01X23604Y10498D01*
G01X23550Y10394D01*
G01X23500Y10236D01*
G01X23500Y9977D01*
G01X23550Y9822D01*
G01X23604Y9718D01*
G01X23708Y9614D01*
G01X23812Y9563D01*
G01X24020Y9563D01*
G01X24122Y9614D01*
G01X24226Y9718D01*
G01X24279Y9822D01*
G01X25140Y10653D02*
G01X24622Y9926D01*
G01X25402Y9926D01*
G01X25140Y10653D02*
G01X25140Y9563D01*
G01X23500Y83253D02*
G01X23500Y82163D01*
G01X23500Y83253D02*
G01X23967Y83253D01*
G01X24122Y83202D01*
G01X24175Y83149D01*
G01X24226Y83044D01*
G01X24226Y82940D01*
G01X24175Y82836D01*
G01X24122Y82785D01*
G01X23967Y82735D01*
G01X23500Y82735D01*
G01X23863Y82735D02*
G01X24226Y82163D01*
G01X24569Y83044D02*
G01X24673Y83098D01*
G01X24830Y83253D01*
G01X24830Y82163D01*
G01X23500Y58153D02*
G01X23500Y57063D01*
G01X23500Y58153D02*
G01X23967Y58153D01*
G01X24122Y58102D01*
G01X24175Y58049D01*
G01X24226Y57944D01*
G01X24226Y57840D01*
G01X24175Y57736D01*
G01X24122Y57685D01*
G01X23967Y57635D01*
G01X23500Y57635D01*
G01X23863Y57635D02*
G01X24226Y57063D01*
G01X24622Y57894D02*
G01X24622Y57944D01*
G01X24673Y58049D01*
G01X24726Y58102D01*
G01X24830Y58153D01*
G01X25036Y58153D01*
G01X25140Y58102D01*
G01X25194Y58049D01*
G01X25244Y57944D01*
G01X25244Y57840D01*
G01X25194Y57736D01*
G01X25090Y57581D01*
G01X24569Y57063D01*
G01X25298Y57063D01*
G01X23500Y41153D02*
G01X23500Y40063D01*
G01X23500Y41153D02*
G01X23967Y41153D01*
G01X24122Y41102D01*
G01X24175Y41049D01*
G01X24226Y40944D01*
G01X24226Y40840D01*
G01X24175Y40736D01*
G01X24122Y40685D01*
G01X23967Y40635D01*
G01X23500Y40635D01*
G01X23863Y40635D02*
G01X24226Y40063D01*
G01X24673Y41153D02*
G01X25244Y41153D01*
G01X24935Y40736D01*
G01X25090Y40736D01*
G01X25194Y40685D01*
G01X25244Y40635D01*
G01X25298Y40477D01*
G01X25298Y40373D01*
G01X25244Y40218D01*
G01X25140Y40114D01*
G01X24985Y40063D01*
G01X24830Y40063D01*
G01X24673Y40114D01*
G01X24622Y40165D01*
G01X24569Y40269D01*
G01X23500Y18653D02*
G01X23500Y17563D01*
G01X23500Y18653D02*
G01X23967Y18653D01*
G01X24122Y18602D01*
G01X24175Y18549D01*
G01X24226Y18444D01*
G01X24226Y18340D01*
G01X24175Y18236D01*
G01X24122Y18185D01*
G01X23967Y18135D01*
G01X23500Y18135D01*
G01X23863Y18135D02*
G01X24226Y17563D01*
G01X25090Y18653D02*
G01X24569Y17926D01*
G01X25349Y17926D01*
G01X25090Y18653D02*
G01X25090Y17563D01*
G01X16726Y57546D02*
G01X16622Y57650D01*
G01X16467Y57701D01*
G01X16259Y57701D01*
G01X16104Y57650D01*
G01X15999Y57546D01*
G01X15999Y57442D01*
G01X16050Y57338D01*
G01X16104Y57284D01*
G01X16208Y57233D01*
G01X16520Y57129D01*
G01X16622Y57079D01*
G01X16675Y57025D01*
G01X16726Y56921D01*
G01X16726Y56766D01*
G01X16622Y56662D01*
G01X16467Y56611D01*
G01X16259Y56611D01*
G01X16104Y56662D01*
G01X15999Y56766D01*
G01X17069Y57701D02*
G01X17330Y56611D01*
G01X17590Y57701D02*
G01X17330Y56611D01*
G01X17590Y57701D02*
G01X17849Y56611D01*
G01X18108Y57701D02*
G01X17849Y56611D01*
G01X18504Y57442D02*
G01X18504Y57493D01*
G01X18555Y57597D01*
G01X18608Y57650D01*
G01X18712Y57701D01*
G01X18920Y57701D01*
G01X19022Y57650D01*
G01X19075Y57597D01*
G01X19126Y57493D01*
G01X19126Y57388D01*
G01X19075Y57284D01*
G01X18971Y57129D01*
G01X18451Y56611D01*
G01X19180Y56611D01*
G01X16726Y40546D02*
G01X16622Y40650D01*
G01X16467Y40701D01*
G01X16259Y40701D01*
G01X16104Y40650D01*
G01X15999Y40546D01*
G01X15999Y40442D01*
G01X16050Y40338D01*
G01X16104Y40284D01*
G01X16208Y40233D01*
G01X16520Y40129D01*
G01X16622Y40079D01*
G01X16675Y40025D01*
G01X16726Y39921D01*
G01X16726Y39766D01*
G01X16622Y39662D01*
G01X16467Y39611D01*
G01X16259Y39611D01*
G01X16104Y39662D01*
G01X15999Y39766D01*
G01X17069Y40701D02*
G01X17330Y39611D01*
G01X17590Y40701D02*
G01X17330Y39611D01*
G01X17590Y40701D02*
G01X17849Y39611D01*
G01X18108Y40701D02*
G01X17849Y39611D01*
G01X18555Y40701D02*
G01X19126Y40701D01*
G01X18816Y40284D01*
G01X18971Y40284D01*
G01X19075Y40233D01*
G01X19126Y40183D01*
G01X19180Y40025D01*
G01X19180Y39921D01*
G01X19126Y39766D01*
G01X19022Y39662D01*
G01X18867Y39611D01*
G01X18712Y39611D01*
G01X18555Y39662D01*
G01X18504Y39713D01*
G01X18451Y39817D01*
G01X16726Y18046D02*
G01X16622Y18150D01*
G01X16467Y18201D01*
G01X16259Y18201D01*
G01X16104Y18150D01*
G01X15999Y18046D01*
G01X15999Y17942D01*
G01X16050Y17838D01*
G01X16104Y17784D01*
G01X16208Y17733D01*
G01X16520Y17629D01*
G01X16622Y17579D01*
G01X16675Y17525D01*
G01X16726Y17421D01*
G01X16726Y17266D01*
G01X16622Y17162D01*
G01X16467Y17111D01*
G01X16259Y17111D01*
G01X16104Y17162D01*
G01X15999Y17266D01*
G01X17069Y18201D02*
G01X17330Y17111D01*
G01X17590Y18201D02*
G01X17330Y17111D01*
G01X17590Y18201D02*
G01X17849Y17111D01*
G01X18108Y18201D02*
G01X17849Y17111D01*
G01X18971Y18201D02*
G01X18451Y17474D01*
G01X19230Y17474D01*
G01X18971Y18201D02*
G01X18971Y17111D01*
G01X14226Y79998D02*
G01X14122Y80102D01*
G01X13967Y80153D01*
G01X13759Y80153D01*
G01X13604Y80102D01*
G01X13499Y79998D01*
G01X13499Y79894D01*
G01X13550Y79789D01*
G01X13604Y79736D01*
G01X13708Y79685D01*
G01X14020Y79581D01*
G01X14122Y79530D01*
G01X14175Y79477D01*
G01X14226Y79373D01*
G01X14226Y79218D01*
G01X14122Y79114D01*
G01X13967Y79063D01*
G01X13759Y79063D01*
G01X13604Y79114D01*
G01X13499Y79218D01*
G01X14569Y80153D02*
G01X14830Y79063D01*
G01X15090Y80153D02*
G01X14830Y79063D01*
G01X15090Y80153D02*
G01X15349Y79063D01*
G01X15608Y80153D02*
G01X15349Y79063D01*
G01X15951Y79944D02*
G01X16055Y79998D01*
G01X16212Y80153D01*
G01X16212Y79063D01*
G54D10*
G75*
G01X26650Y76000D02*
G02X26450Y75800I-200J0D01*
G01*
G75*
G01X26650Y77200D02*
G03X26450Y77400I-200J0D01*
G01*
G75*
G01X23350Y76000D02*
G03X23550Y75800I200J0D01*
G01*
G75*
G01X23350Y77200D02*
G02X23550Y77400I200J0D01*
G01*
G75*
G01X26650Y50900D02*
G02X26450Y50700I-200J0D01*
G01*
G75*
G01X26650Y52100D02*
G03X26450Y52300I-200J0D01*
G01*
G75*
G01X23350Y50900D02*
G03X23550Y50700I200J0D01*
G01*
G75*
G01X23350Y52100D02*
G02X23550Y52300I200J0D01*
G01*
G75*
G01X26650Y33900D02*
G02X26450Y33700I-200J0D01*
G01*
G75*
G01X26650Y35100D02*
G03X26450Y35300I-200J0D01*
G01*
G75*
G01X23350Y33900D02*
G03X23550Y33700I200J0D01*
G01*
G75*
G01X23350Y35100D02*
G02X23550Y35300I200J0D01*
G01*
G75*
G01X26650Y11400D02*
G02X26450Y11200I-200J0D01*
G01*
G75*
G01X26650Y12600D02*
G03X26450Y12800I-200J0D01*
G01*
G75*
G01X23350Y11400D02*
G03X23550Y11200I200J0D01*
G01*
G75*
G01X23350Y12600D02*
G02X23550Y12800I200J0D01*
G01*
G75*
G01X4392Y82569D02*
G03X4392Y82569I-112J0D01*
G01*
G75*
G01X17200Y53500D02*
G03X17200Y53500I-1200J0D01*
G01*
G75*
G01X16707Y53500D02*
G03X16707Y53500I-707J0D01*
G01*
G75*
G01X17200Y36500D02*
G03X17200Y36500I-1200J0D01*
G01*
G75*
G01X16707Y36500D02*
G03X16707Y36500I-707J0D01*
G01*
G75*
G01X17200Y14000D02*
G03X17200Y14000I-1200J0D01*
G01*
G75*
G01X16707Y14000D02*
G03X16707Y14000I-707J0D01*
G01*
G75*
G01X17200Y76000D02*
G03X17200Y76000I-1200J0D01*
G01*
G75*
G01X16707Y76000D02*
G03X16707Y76000I-707J0D01*
G01*
M00*
M02*
