G04 Layer: BottomSilkLayer*
G04 EasyEDA v6.3.43, 2020-06-01T13:25:17--4:00*
G04 027e7c98d4664958ba99b1e46bb510d5,7404d47bf86b4b15bb797b085195da26,10*
G04 Gerber Generator version 0.2*
G04 Scale: 100 percent, Rotated: No, Reflected: No *
G04 Dimensions in millimeters *
G04 leading zeros omitted , absolute positions ,3 integer and 3 decimal *
%FSLAX33Y33*%
%MOMM*%
G90*
G71D02*

%ADD10C,0.254000*%
%ADD23C,0.203200*%
%ADD24C,0.152400*%
%ADD25C,0.202999*%
%ADD26C,0.499999*%
%ADD27C,0.150012*%

%LPD*%

%LPD*%
G36*
G01X26798Y57849D02*
G01X26766Y58001D01*
G01X26189Y57992D01*
G01X25611Y57983D01*
G01X25587Y57894D01*
G01X25581Y57868D01*
G01X25573Y57828D01*
G01X25562Y57775D01*
G01X25550Y57712D01*
G01X25537Y57641D01*
G01X25523Y57564D01*
G01X25509Y57483D01*
G01X25479Y57317D01*
G01X25464Y57236D01*
G01X25449Y57160D01*
G01X25434Y57090D01*
G01X25420Y57029D01*
G01X25408Y56978D01*
G01X25397Y56940D01*
G01X25388Y56916D01*
G01X25351Y56838D01*
G01X24617Y56538D01*
G01X24585Y56556D01*
G01X24570Y56565D01*
G01X24538Y56586D01*
G01X24492Y56617D01*
G01X24434Y56656D01*
G01X24287Y56754D01*
G01X24203Y56811D01*
G01X24115Y56871D01*
G01X24026Y56931D01*
G01X23942Y56987D01*
G01X23865Y57038D01*
G01X23797Y57082D01*
G01X23739Y57118D01*
G01X23694Y57146D01*
G01X23663Y57163D01*
G01X23649Y57170D01*
G01X23635Y57161D01*
G01X23606Y57137D01*
G01X23565Y57100D01*
G01X23513Y57052D01*
G01X23453Y56995D01*
G01X23387Y56930D01*
G01X23316Y56861D01*
G01X23172Y56717D01*
G01X23103Y56646D01*
G01X23037Y56579D01*
G01X22979Y56518D01*
G01X22929Y56465D01*
G01X22889Y56421D01*
G01X22863Y56390D01*
G01X22852Y56373D01*
G01X22841Y56341D01*
G01X23110Y55949D01*
G01X23165Y55869D01*
G01X23218Y55791D01*
G01X23267Y55718D01*
G01X23312Y55651D01*
G01X23350Y55592D01*
G01X23382Y55542D01*
G01X23405Y55505D01*
G01X23419Y55482D01*
G01X23459Y55407D01*
G01X23125Y54619D01*
G01X22961Y54587D01*
G01X22921Y54579D01*
G01X22867Y54569D01*
G01X22803Y54557D01*
G01X22731Y54544D01*
G01X22653Y54529D01*
G01X22572Y54514D01*
G01X22489Y54499D01*
G01X22407Y54484D01*
G01X22016Y54414D01*
G01X22016Y53252D01*
G01X22120Y53230D01*
G01X22149Y53224D01*
G01X22193Y53216D01*
G01X22248Y53205D01*
G01X22314Y53192D01*
G01X22388Y53178D01*
G01X22468Y53163D01*
G01X22551Y53148D01*
G01X22636Y53132D01*
G01X23049Y53054D01*
G01X23089Y53014D01*
G01X23105Y52989D01*
G01X23130Y52941D01*
G01X23160Y52875D01*
G01X23196Y52796D01*
G01X23234Y52707D01*
G01X23272Y52614D01*
G01X23310Y52520D01*
G01X23345Y52430D01*
G01X23375Y52349D01*
G01X23399Y52281D01*
G01X23415Y52230D01*
G01X23420Y52200D01*
G01X23420Y52154D01*
G01X23133Y51742D01*
G01X23075Y51659D01*
G01X23022Y51580D01*
G01X22973Y51507D01*
G01X22930Y51443D01*
G01X22895Y51388D01*
G01X22869Y51345D01*
G01X22852Y51315D01*
G01X22846Y51301D01*
G01X22854Y51287D01*
G01X22876Y51259D01*
G01X22912Y51218D01*
G01X22959Y51166D01*
G01X23016Y51105D01*
G01X23082Y51037D01*
G01X23154Y50963D01*
G01X23231Y50885D01*
G01X23617Y50499D01*
G01X23655Y50499D01*
G01X23672Y50505D01*
G01X23704Y50522D01*
G01X23749Y50549D01*
G01X23807Y50584D01*
G01X23874Y50627D01*
G01X23949Y50676D01*
G01X24030Y50730D01*
G01X24116Y50788D01*
G01X24538Y51077D01*
G01X24747Y50959D01*
G01X24957Y50842D01*
G01X24983Y50870D01*
G01X24988Y50880D01*
G01X24999Y50900D01*
G01X25013Y50931D01*
G01X25031Y50972D01*
G01X25053Y51021D01*
G01X25078Y51077D01*
G01X25105Y51141D01*
G01X25135Y51211D01*
G01X25167Y51286D01*
G01X25200Y51366D01*
G01X25235Y51450D01*
G01X25271Y51536D01*
G01X25325Y51670D01*
G01X25353Y51737D01*
G01X25381Y51805D01*
G01X25408Y51871D01*
G01X25436Y51937D01*
G01X25462Y52001D01*
G01X25488Y52063D01*
G01X25512Y52122D01*
G01X25536Y52179D01*
G01X25558Y52232D01*
G01X25579Y52281D01*
G01X25597Y52326D01*
G01X25614Y52367D01*
G01X25629Y52402D01*
G01X25642Y52431D01*
G01X25684Y52533D01*
G01X25718Y52619D01*
G01X25742Y52681D01*
G01X25750Y52709D01*
G01X25738Y52725D01*
G01X25706Y52754D01*
G01X25659Y52792D01*
G01X25600Y52833D01*
G01X25534Y52882D01*
G01X25462Y52940D01*
G01X25395Y52998D01*
G01X25340Y53050D01*
G01X25229Y53164D01*
G01X25147Y53340D01*
G01X25064Y53515D01*
G01X25064Y54122D01*
G01X25232Y54480D01*
G01X25351Y54612D01*
G01X25470Y54743D01*
G01X25681Y54847D01*
G01X25893Y54951D01*
G01X26196Y54950D01*
G01X26500Y54949D01*
G01X26806Y54809D01*
G01X26976Y54648D01*
G01X27147Y54487D01*
G01X27229Y54302D01*
G01X27312Y54118D01*
G01X27333Y53940D01*
G01X27354Y53761D01*
G01X27314Y53590D01*
G01X27298Y53530D01*
G01X27280Y53472D01*
G01X27260Y53415D01*
G01X27237Y53360D01*
G01X27212Y53307D01*
G01X27185Y53255D01*
G01X27155Y53205D01*
G01X27123Y53157D01*
G01X27089Y53111D01*
G01X27052Y53066D01*
G01X27014Y53024D01*
G01X26972Y52983D01*
G01X26929Y52944D01*
G01X26883Y52907D01*
G01X26835Y52872D01*
G01X26785Y52838D01*
G01X26644Y52749D01*
G01X26644Y52703D01*
G01X26645Y52695D01*
G01X26648Y52682D01*
G01X26654Y52663D01*
G01X26662Y52640D01*
G01X26672Y52612D01*
G01X26684Y52579D01*
G01X26698Y52541D01*
G01X26714Y52498D01*
G01X26732Y52451D01*
G01X26753Y52400D01*
G01X26775Y52344D01*
G01X26799Y52283D01*
G01X26825Y52219D01*
G01X26853Y52150D01*
G01X26882Y52077D01*
G01X26914Y52000D01*
G01X26947Y51919D01*
G01X26982Y51834D01*
G01X27019Y51746D01*
G01X27057Y51654D01*
G01X27097Y51558D01*
G01X27138Y51458D01*
G01X27182Y51355D01*
G01X27226Y51249D01*
G01X27259Y51172D01*
G01X27290Y51099D01*
G01X27318Y51033D01*
G01X27343Y50975D01*
G01X27364Y50926D01*
G01X27381Y50889D01*
G01X27392Y50864D01*
G01X27398Y50854D01*
G01X27419Y50858D01*
G01X27470Y50879D01*
G01X27542Y50913D01*
G01X27628Y50957D01*
G01X27848Y51072D01*
G01X28266Y50786D01*
G01X28350Y50728D01*
G01X28431Y50674D01*
G01X28506Y50626D01*
G01X28573Y50583D01*
G01X28630Y50548D01*
G01X28675Y50522D01*
G01X28708Y50505D01*
G01X28724Y50499D01*
G01X28765Y50499D01*
G01X29141Y50874D01*
G01X29516Y51248D01*
G01X29516Y51341D01*
G01X29228Y51765D01*
G01X28939Y52190D01*
G01X29104Y52605D01*
G01X29137Y52689D01*
G01X29170Y52768D01*
G01X29200Y52840D01*
G01X29227Y52904D01*
G01X29251Y52957D01*
G01X29271Y52998D01*
G01X29285Y53025D01*
G01X29294Y53037D01*
G01X29308Y53042D01*
G01X29340Y53050D01*
G01X29386Y53060D01*
G01X29446Y53072D01*
G01X29517Y53087D01*
G01X29597Y53102D01*
G01X29684Y53119D01*
G01X29777Y53136D01*
G01X29870Y53154D01*
G01X29960Y53171D01*
G01X30045Y53188D01*
G01X30121Y53204D01*
G01X30188Y53218D01*
G01X30243Y53230D01*
G01X30283Y53240D01*
G01X30307Y53248D01*
G01X30380Y53275D01*
G01X30377Y53836D01*
G01X30373Y54397D01*
G01X30335Y54411D01*
G01X30318Y54416D01*
G01X30281Y54424D01*
G01X30228Y54435D01*
G01X30160Y54449D01*
G01X30081Y54464D01*
G01X29991Y54482D01*
G01X29894Y54500D01*
G01X29791Y54519D01*
G01X29689Y54538D01*
G01X29592Y54557D01*
G01X29504Y54576D01*
G01X29425Y54593D01*
G01X29360Y54608D01*
G01X29308Y54621D01*
G01X29274Y54631D01*
G01X29259Y54638D01*
G01X29250Y54651D01*
G01X29236Y54678D01*
G01X29216Y54718D01*
G01X29193Y54768D01*
G01X29166Y54828D01*
G01X29136Y54894D01*
G01X29104Y54967D01*
G01X29071Y55044D01*
G01X28908Y55424D01*
G01X29200Y55853D01*
G01X29259Y55940D01*
G01X29315Y56024D01*
G01X29366Y56103D01*
G01X29411Y56174D01*
G01X29449Y56235D01*
G01X29479Y56285D01*
G01X29499Y56322D01*
G01X29508Y56343D01*
G01X29524Y56405D01*
G01X29145Y56787D01*
G01X29068Y56863D01*
G01X28996Y56935D01*
G01X28928Y57000D01*
G01X28869Y57056D01*
G01X28818Y57103D01*
G01X28778Y57139D01*
G01X28750Y57161D01*
G01X28736Y57169D01*
G01X28720Y57163D01*
G01X28687Y57144D01*
G01X28639Y57115D01*
G01X28577Y57077D01*
G01X28504Y57030D01*
G01X28422Y56976D01*
G01X28333Y56917D01*
G01X28238Y56854D01*
G01X27771Y56538D01*
G01X27407Y56681D01*
G01X27333Y56710D01*
G01X27263Y56739D01*
G01X27197Y56767D01*
G01X27139Y56793D01*
G01X27089Y56816D01*
G01X27049Y56835D01*
G01X27021Y56851D01*
G01X27007Y56861D01*
G01X26971Y56898D01*
G01X26901Y57297D01*
G01X26886Y57380D01*
G01X26871Y57464D01*
G01X26856Y57546D01*
G01X26842Y57624D01*
G01X26828Y57695D01*
G01X26816Y57758D01*
G01X26806Y57810D01*
G01X26798Y57849D01*
G37*

%LPD*%
G54D10*
G01X7314Y60812D02*
G01X3809Y60812D01*
G01X3809Y60812D02*
G01X3809Y61599D01*
G01X3809Y61599D02*
G01X6298Y61599D01*
G01X6298Y61599D02*
G01X6298Y62793D01*
G01X6298Y66806D02*
G01X6298Y68000D01*
G01X6298Y68000D02*
G01X3809Y68000D01*
G01X3809Y68000D02*
G01X3809Y68787D01*
G01X3809Y68787D02*
G01X7314Y68787D01*
G01X11302Y66806D02*
G01X11302Y62793D01*
G54D23*
G01X23528Y72250D02*
G01X25433Y72250D01*
G01X25433Y69710D01*
G01X33Y69710D01*
G01X33Y72250D01*
G54D25*
G01X33Y72250D02*
G01X23528Y72250D01*
G54D23*
G01X23528Y87490D02*
G01X25433Y87490D01*
G01X25433Y84950D01*
G01X33Y84950D01*
G01X33Y87490D01*
G54D25*
G01X33Y87490D02*
G01X23528Y87490D01*
G54D10*
G01X25433Y87490D02*
G01X31021Y87490D01*
G01X31021Y69710D01*
G01X33Y69710D01*
G01X33Y87490D01*
G01X26703Y87490D01*
G01X31021Y84950D02*
G01X26195Y84950D01*
G01X26195Y72250D01*
G01X31021Y72250D01*
G54D26*
G01X30894Y76441D02*
G01X27211Y76441D01*
G01X27211Y83045D01*
G01X29878Y83045D01*
G54D27*
G01X147Y75386D02*
G01X3576Y75386D01*
G01X3576Y81736D01*
G01X20Y81736D01*
G54D23*
G01X7115Y32550D02*
G01X6099Y32550D01*
G01X6653Y31811D01*
G01X6376Y31811D01*
G01X6191Y31719D01*
G01X6099Y31626D01*
G01X6006Y31349D01*
G01X6006Y31165D01*
G01X6099Y30887D01*
G01X6284Y30703D01*
G01X6561Y30610D01*
G01X6838Y30610D01*
G01X7115Y30703D01*
G01X7207Y30795D01*
G01X7300Y30980D01*
G01X5397Y32550D02*
G01X4658Y30610D01*
G01X3919Y32550D02*
G01X4658Y30610D01*
G01X3125Y32550D02*
G01X2109Y32550D01*
G01X2663Y31811D01*
G01X2386Y31811D01*
G01X2201Y31719D01*
G01X2109Y31626D01*
G01X2016Y31349D01*
G01X2016Y31165D01*
G01X2109Y30887D01*
G01X2293Y30703D01*
G01X2570Y30610D01*
G01X2848Y30610D01*
G01X3125Y30703D01*
G01X3217Y30795D01*
G01X3309Y30980D01*
G01X28614Y32188D02*
G01X28706Y32373D01*
G01X28891Y32558D01*
G01X29076Y32650D01*
G01X29445Y32650D01*
G01X29630Y32558D01*
G01X29815Y32373D01*
G01X29907Y32188D01*
G01X30000Y31911D01*
G01X30000Y31449D01*
G01X29907Y31172D01*
G01X29815Y30987D01*
G01X29630Y30803D01*
G01X29445Y30710D01*
G01X29076Y30710D01*
G01X28891Y30803D01*
G01X28706Y30987D01*
G01X28614Y31172D01*
G01X28614Y31449D01*
G01X29076Y31449D02*
G01X28614Y31449D01*
G01X28004Y32650D02*
G01X28004Y30710D01*
G01X28004Y32650D02*
G01X26711Y30710D01*
G01X26711Y32650D02*
G01X26711Y30710D01*
G01X26102Y32650D02*
G01X26102Y30710D01*
G01X26102Y32650D02*
G01X25455Y32650D01*
G01X25178Y32558D01*
G01X24993Y32373D01*
G01X24901Y32188D01*
G01X24809Y31911D01*
G01X24809Y31449D01*
G01X24901Y31172D01*
G01X24993Y30987D01*
G01X25178Y30803D01*
G01X25455Y30710D01*
G01X26102Y30710D01*
G01X7115Y11050D02*
G01X6099Y11050D01*
G01X6653Y10311D01*
G01X6376Y10311D01*
G01X6191Y10219D01*
G01X6099Y10126D01*
G01X6006Y9849D01*
G01X6006Y9665D01*
G01X6099Y9387D01*
G01X6284Y9203D01*
G01X6561Y9110D01*
G01X6838Y9110D01*
G01X7115Y9203D01*
G01X7207Y9295D01*
G01X7300Y9480D01*
G01X5397Y11050D02*
G01X4658Y9110D01*
G01X3919Y11050D02*
G01X4658Y9110D01*
G01X3125Y11050D02*
G01X2109Y11050D01*
G01X2663Y10311D01*
G01X2386Y10311D01*
G01X2201Y10219D01*
G01X2109Y10126D01*
G01X2016Y9849D01*
G01X2016Y9665D01*
G01X2109Y9387D01*
G01X2293Y9203D01*
G01X2571Y9110D01*
G01X2848Y9110D01*
G01X3125Y9203D01*
G01X3217Y9295D01*
G01X3309Y9480D01*
G01X28614Y10688D02*
G01X28706Y10873D01*
G01X28891Y11058D01*
G01X29076Y11150D01*
G01X29445Y11150D01*
G01X29630Y11058D01*
G01X29815Y10873D01*
G01X29907Y10688D01*
G01X30000Y10411D01*
G01X30000Y9949D01*
G01X29907Y9672D01*
G01X29815Y9487D01*
G01X29630Y9303D01*
G01X29445Y9210D01*
G01X29076Y9210D01*
G01X28891Y9303D01*
G01X28706Y9487D01*
G01X28614Y9672D01*
G01X28614Y9949D01*
G01X29076Y9949D02*
G01X28614Y9949D01*
G01X28005Y11150D02*
G01X28005Y9210D01*
G01X28005Y11150D02*
G01X26711Y9210D01*
G01X26711Y11150D02*
G01X26711Y9210D01*
G01X26102Y11150D02*
G01X26102Y9210D01*
G01X26102Y11150D02*
G01X25455Y11150D01*
G01X25178Y11058D01*
G01X24993Y10873D01*
G01X24901Y10688D01*
G01X24809Y10411D01*
G01X24809Y9949D01*
G01X24901Y9672D01*
G01X24993Y9487D01*
G01X25178Y9303D01*
G01X25455Y9210D01*
G01X26102Y9210D01*
G54D24*
G01X11906Y37620D02*
G01X11802Y37672D01*
G01X11698Y37776D01*
G01X11646Y37880D01*
G01X11646Y38088D01*
G01X11698Y38192D01*
G01X11802Y38296D01*
G01X11906Y38348D01*
G01X12062Y38400D01*
G01X12322Y38400D01*
G01X12477Y38348D01*
G01X12581Y38296D01*
G01X12685Y38192D01*
G01X12737Y38088D01*
G01X12737Y37880D01*
G01X12685Y37776D01*
G01X12581Y37672D01*
G01X12477Y37620D01*
G01X12322Y37620D01*
G01X12322Y37880D02*
G01X12322Y37620D01*
G01X11646Y37277D02*
G01X12737Y37277D01*
G01X11646Y37277D02*
G01X11646Y36810D01*
G01X11698Y36654D01*
G01X11750Y36602D01*
G01X11854Y36550D01*
G01X12010Y36550D01*
G01X12114Y36602D01*
G01X12166Y36654D01*
G01X12218Y36810D01*
G01X12218Y37277D01*
G01X11646Y36207D02*
G01X12737Y36207D01*
G01X11646Y35552D02*
G01X11698Y35656D01*
G01X11802Y35760D01*
G01X11906Y35812D01*
G01X12062Y35864D01*
G01X12322Y35864D01*
G01X12477Y35812D01*
G01X12581Y35760D01*
G01X12685Y35656D01*
G01X12737Y35552D01*
G01X12737Y35345D01*
G01X12685Y35241D01*
G01X12581Y35137D01*
G01X12477Y35085D01*
G01X12322Y35033D01*
G01X12062Y35033D01*
G01X11906Y35085D01*
G01X11802Y35137D01*
G01X11698Y35241D01*
G01X11646Y35345D01*
G01X11646Y35552D01*
G01X11854Y34690D02*
G01X11802Y34586D01*
G01X11646Y34430D01*
G01X12737Y34430D01*
G01X11646Y33568D02*
G01X12374Y34087D01*
G01X12374Y33308D01*
G01X11646Y33568D02*
G01X12737Y33568D01*
G01X14506Y37620D02*
G01X14402Y37672D01*
G01X14298Y37776D01*
G01X14246Y37880D01*
G01X14246Y38088D01*
G01X14298Y38192D01*
G01X14402Y38296D01*
G01X14506Y38348D01*
G01X14662Y38400D01*
G01X14922Y38400D01*
G01X15077Y38348D01*
G01X15181Y38296D01*
G01X15285Y38192D01*
G01X15337Y38088D01*
G01X15337Y37880D01*
G01X15285Y37776D01*
G01X15181Y37672D01*
G01X15077Y37620D01*
G01X14922Y37620D01*
G01X14922Y37880D02*
G01X14922Y37620D01*
G01X14246Y37277D02*
G01X15337Y37277D01*
G01X14246Y37277D02*
G01X14246Y36810D01*
G01X14298Y36654D01*
G01X14350Y36602D01*
G01X14454Y36550D01*
G01X14610Y36550D01*
G01X14714Y36602D01*
G01X14766Y36654D01*
G01X14818Y36810D01*
G01X14818Y37277D01*
G01X14246Y36207D02*
G01X15337Y36207D01*
G01X14246Y35552D02*
G01X14298Y35656D01*
G01X14402Y35760D01*
G01X14506Y35812D01*
G01X14662Y35864D01*
G01X14922Y35864D01*
G01X15077Y35812D01*
G01X15181Y35760D01*
G01X15285Y35656D01*
G01X15337Y35552D01*
G01X15337Y35345D01*
G01X15285Y35241D01*
G01X15181Y35137D01*
G01X15077Y35085D01*
G01X14922Y35033D01*
G01X14662Y35033D01*
G01X14506Y35085D01*
G01X14402Y35137D01*
G01X14298Y35241D01*
G01X14246Y35345D01*
G01X14246Y35552D01*
G01X14454Y34690D02*
G01X14402Y34586D01*
G01X14246Y34430D01*
G01X15337Y34430D01*
G01X14246Y33464D02*
G01X14246Y33983D01*
G01X14714Y34035D01*
G01X14662Y33983D01*
G01X14610Y33828D01*
G01X14610Y33672D01*
G01X14662Y33516D01*
G01X14766Y33412D01*
G01X14922Y33360D01*
G01X15025Y33360D01*
G01X15181Y33412D01*
G01X15285Y33516D01*
G01X15337Y33672D01*
G01X15337Y33828D01*
G01X15285Y33983D01*
G01X15233Y34035D01*
G01X15129Y34087D01*
G01X17106Y37620D02*
G01X17002Y37672D01*
G01X16898Y37776D01*
G01X16846Y37880D01*
G01X16846Y38088D01*
G01X16898Y38192D01*
G01X17002Y38296D01*
G01X17106Y38348D01*
G01X17262Y38400D01*
G01X17521Y38400D01*
G01X17677Y38348D01*
G01X17781Y38296D01*
G01X17885Y38192D01*
G01X17937Y38088D01*
G01X17937Y37880D01*
G01X17885Y37776D01*
G01X17781Y37672D01*
G01X17677Y37620D01*
G01X17521Y37620D01*
G01X17521Y37880D02*
G01X17521Y37620D01*
G01X16846Y37277D02*
G01X17937Y37277D01*
G01X16846Y37277D02*
G01X16846Y36810D01*
G01X16898Y36654D01*
G01X16950Y36602D01*
G01X17054Y36550D01*
G01X17210Y36550D01*
G01X17314Y36602D01*
G01X17366Y36654D01*
G01X17418Y36810D01*
G01X17418Y37277D01*
G01X16846Y36207D02*
G01X17937Y36207D01*
G01X16846Y35552D02*
G01X16898Y35656D01*
G01X17002Y35760D01*
G01X17106Y35812D01*
G01X17262Y35864D01*
G01X17521Y35864D01*
G01X17677Y35812D01*
G01X17781Y35760D01*
G01X17885Y35656D01*
G01X17937Y35552D01*
G01X17937Y35345D01*
G01X17885Y35241D01*
G01X17781Y35137D01*
G01X17677Y35085D01*
G01X17521Y35033D01*
G01X17262Y35033D01*
G01X17106Y35085D01*
G01X17002Y35137D01*
G01X16898Y35241D01*
G01X16846Y35345D01*
G01X16846Y35552D01*
G01X16846Y34586D02*
G01X16846Y34015D01*
G01X17262Y34326D01*
G01X17262Y34170D01*
G01X17314Y34067D01*
G01X17366Y34015D01*
G01X17521Y33963D01*
G01X17625Y33963D01*
G01X17781Y34015D01*
G01X17885Y34119D01*
G01X17937Y34274D01*
G01X17937Y34430D01*
G01X17885Y34586D01*
G01X17833Y34638D01*
G01X17729Y34690D01*
G01X17106Y33568D02*
G01X17054Y33568D01*
G01X16950Y33516D01*
G01X16898Y33464D01*
G01X16846Y33360D01*
G01X16846Y33152D01*
G01X16898Y33048D01*
G01X16950Y32996D01*
G01X17054Y32944D01*
G01X17158Y32944D01*
G01X17262Y32996D01*
G01X17418Y33100D01*
G01X17937Y33620D01*
G01X17937Y32892D01*
G01X19706Y37620D02*
G01X19602Y37672D01*
G01X19498Y37776D01*
G01X19446Y37880D01*
G01X19446Y38088D01*
G01X19498Y38192D01*
G01X19602Y38296D01*
G01X19706Y38348D01*
G01X19862Y38400D01*
G01X20121Y38400D01*
G01X20277Y38348D01*
G01X20381Y38296D01*
G01X20485Y38192D01*
G01X20537Y38088D01*
G01X20537Y37880D01*
G01X20485Y37776D01*
G01X20381Y37672D01*
G01X20277Y37620D01*
G01X20121Y37620D01*
G01X20121Y37880D02*
G01X20121Y37620D01*
G01X19446Y37277D02*
G01X20537Y37277D01*
G01X19446Y37277D02*
G01X19446Y36810D01*
G01X19498Y36654D01*
G01X19550Y36602D01*
G01X19654Y36550D01*
G01X19810Y36550D01*
G01X19914Y36602D01*
G01X19966Y36654D01*
G01X20018Y36810D01*
G01X20018Y37277D01*
G01X19446Y36207D02*
G01X20537Y36207D01*
G01X19446Y35552D02*
G01X19498Y35656D01*
G01X19602Y35760D01*
G01X19706Y35812D01*
G01X19862Y35864D01*
G01X20121Y35864D01*
G01X20277Y35812D01*
G01X20381Y35760D01*
G01X20485Y35656D01*
G01X20537Y35552D01*
G01X20537Y35345D01*
G01X20485Y35241D01*
G01X20381Y35137D01*
G01X20277Y35085D01*
G01X20121Y35033D01*
G01X19862Y35033D01*
G01X19706Y35085D01*
G01X19602Y35137D01*
G01X19498Y35241D01*
G01X19446Y35345D01*
G01X19446Y35552D01*
G01X19446Y34586D02*
G01X19446Y34015D01*
G01X19862Y34326D01*
G01X19862Y34170D01*
G01X19914Y34067D01*
G01X19966Y34015D01*
G01X20121Y33963D01*
G01X20225Y33963D01*
G01X20381Y34015D01*
G01X20485Y34119D01*
G01X20537Y34274D01*
G01X20537Y34430D01*
G01X20485Y34586D01*
G01X20433Y34638D01*
G01X20329Y34690D01*
G01X19446Y33516D02*
G01X19446Y32944D01*
G01X19862Y33256D01*
G01X19862Y33100D01*
G01X19914Y32996D01*
G01X19966Y32944D01*
G01X20121Y32892D01*
G01X20225Y32892D01*
G01X20381Y32944D01*
G01X20485Y33048D01*
G01X20537Y33204D01*
G01X20537Y33360D01*
G01X20485Y33516D01*
G01X20433Y33568D01*
G01X20329Y33620D01*
G01X19706Y15920D02*
G01X19602Y15972D01*
G01X19498Y16076D01*
G01X19446Y16180D01*
G01X19446Y16388D01*
G01X19498Y16492D01*
G01X19602Y16596D01*
G01X19706Y16648D01*
G01X19862Y16700D01*
G01X20121Y16700D01*
G01X20277Y16648D01*
G01X20381Y16596D01*
G01X20485Y16492D01*
G01X20537Y16388D01*
G01X20537Y16180D01*
G01X20485Y16076D01*
G01X20381Y15972D01*
G01X20277Y15920D01*
G01X20121Y15920D01*
G01X20121Y16180D02*
G01X20121Y15920D01*
G01X19446Y15577D02*
G01X20537Y15577D01*
G01X19446Y15577D02*
G01X19446Y15110D01*
G01X19498Y14954D01*
G01X19550Y14902D01*
G01X19654Y14850D01*
G01X19810Y14850D01*
G01X19914Y14902D01*
G01X19966Y14954D01*
G01X20018Y15110D01*
G01X20018Y15577D01*
G01X19446Y14507D02*
G01X20537Y14507D01*
G01X19446Y13852D02*
G01X19498Y13956D01*
G01X19602Y14060D01*
G01X19706Y14112D01*
G01X19862Y14164D01*
G01X20121Y14164D01*
G01X20277Y14112D01*
G01X20381Y14060D01*
G01X20485Y13956D01*
G01X20537Y13852D01*
G01X20537Y13645D01*
G01X20485Y13541D01*
G01X20381Y13437D01*
G01X20277Y13385D01*
G01X20121Y13333D01*
G01X19862Y13333D01*
G01X19706Y13385D01*
G01X19602Y13437D01*
G01X19498Y13541D01*
G01X19446Y13645D01*
G01X19446Y13852D01*
G01X19446Y12886D02*
G01X19446Y12315D01*
G01X19862Y12626D01*
G01X19862Y12470D01*
G01X19914Y12367D01*
G01X19966Y12315D01*
G01X20121Y12263D01*
G01X20225Y12263D01*
G01X20381Y12315D01*
G01X20485Y12419D01*
G01X20537Y12574D01*
G01X20537Y12730D01*
G01X20485Y12886D01*
G01X20433Y12938D01*
G01X20329Y12990D01*
G01X19446Y11816D02*
G01X19446Y11244D01*
G01X19862Y11556D01*
G01X19862Y11400D01*
G01X19914Y11296D01*
G01X19966Y11244D01*
G01X20121Y11192D01*
G01X20225Y11192D01*
G01X20381Y11244D01*
G01X20485Y11348D01*
G01X20537Y11504D01*
G01X20537Y11660D01*
G01X20485Y11816D01*
G01X20433Y11868D01*
G01X20329Y11920D01*
G01X17106Y15920D02*
G01X17002Y15972D01*
G01X16898Y16076D01*
G01X16846Y16180D01*
G01X16846Y16388D01*
G01X16898Y16492D01*
G01X17002Y16596D01*
G01X17106Y16648D01*
G01X17262Y16700D01*
G01X17521Y16700D01*
G01X17677Y16648D01*
G01X17781Y16596D01*
G01X17885Y16492D01*
G01X17937Y16388D01*
G01X17937Y16180D01*
G01X17885Y16076D01*
G01X17781Y15972D01*
G01X17677Y15920D01*
G01X17521Y15920D01*
G01X17521Y16180D02*
G01X17521Y15920D01*
G01X16846Y15577D02*
G01X17937Y15577D01*
G01X16846Y15577D02*
G01X16846Y15110D01*
G01X16898Y14954D01*
G01X16950Y14902D01*
G01X17054Y14850D01*
G01X17210Y14850D01*
G01X17314Y14902D01*
G01X17366Y14954D01*
G01X17418Y15110D01*
G01X17418Y15577D01*
G01X16846Y14507D02*
G01X17937Y14507D01*
G01X16846Y13852D02*
G01X16898Y13956D01*
G01X17002Y14060D01*
G01X17106Y14112D01*
G01X17262Y14164D01*
G01X17521Y14164D01*
G01X17677Y14112D01*
G01X17781Y14060D01*
G01X17885Y13956D01*
G01X17937Y13852D01*
G01X17937Y13645D01*
G01X17885Y13541D01*
G01X17781Y13437D01*
G01X17677Y13385D01*
G01X17521Y13333D01*
G01X17262Y13333D01*
G01X17106Y13385D01*
G01X17002Y13437D01*
G01X16898Y13541D01*
G01X16846Y13645D01*
G01X16846Y13852D01*
G01X16846Y12886D02*
G01X16846Y12315D01*
G01X17262Y12626D01*
G01X17262Y12470D01*
G01X17314Y12367D01*
G01X17366Y12315D01*
G01X17521Y12263D01*
G01X17625Y12263D01*
G01X17781Y12315D01*
G01X17885Y12419D01*
G01X17937Y12574D01*
G01X17937Y12730D01*
G01X17885Y12886D01*
G01X17833Y12938D01*
G01X17729Y12990D01*
G01X17106Y11868D02*
G01X17054Y11868D01*
G01X16950Y11816D01*
G01X16898Y11764D01*
G01X16846Y11660D01*
G01X16846Y11452D01*
G01X16898Y11348D01*
G01X16950Y11296D01*
G01X17054Y11244D01*
G01X17158Y11244D01*
G01X17262Y11296D01*
G01X17418Y11400D01*
G01X17937Y11920D01*
G01X17937Y11192D01*
G01X14506Y15920D02*
G01X14402Y15972D01*
G01X14298Y16076D01*
G01X14246Y16180D01*
G01X14246Y16388D01*
G01X14298Y16492D01*
G01X14402Y16596D01*
G01X14506Y16648D01*
G01X14662Y16700D01*
G01X14922Y16700D01*
G01X15077Y16648D01*
G01X15181Y16596D01*
G01X15285Y16492D01*
G01X15337Y16388D01*
G01X15337Y16180D01*
G01X15285Y16076D01*
G01X15181Y15972D01*
G01X15077Y15920D01*
G01X14922Y15920D01*
G01X14922Y16180D02*
G01X14922Y15920D01*
G01X14246Y15577D02*
G01X15337Y15577D01*
G01X14246Y15577D02*
G01X14246Y15110D01*
G01X14298Y14954D01*
G01X14350Y14902D01*
G01X14454Y14850D01*
G01X14610Y14850D01*
G01X14714Y14902D01*
G01X14766Y14954D01*
G01X14818Y15110D01*
G01X14818Y15577D01*
G01X14246Y14507D02*
G01X15337Y14507D01*
G01X14246Y13852D02*
G01X14298Y13956D01*
G01X14402Y14060D01*
G01X14506Y14112D01*
G01X14662Y14164D01*
G01X14922Y14164D01*
G01X15077Y14112D01*
G01X15181Y14060D01*
G01X15285Y13956D01*
G01X15337Y13852D01*
G01X15337Y13645D01*
G01X15285Y13541D01*
G01X15181Y13437D01*
G01X15077Y13385D01*
G01X14922Y13333D01*
G01X14662Y13333D01*
G01X14506Y13385D01*
G01X14402Y13437D01*
G01X14298Y13541D01*
G01X14246Y13645D01*
G01X14246Y13852D01*
G01X14454Y12990D02*
G01X14402Y12886D01*
G01X14246Y12730D01*
G01X15337Y12730D01*
G01X14246Y11764D02*
G01X14246Y12283D01*
G01X14714Y12335D01*
G01X14662Y12283D01*
G01X14610Y12128D01*
G01X14610Y11972D01*
G01X14662Y11816D01*
G01X14766Y11712D01*
G01X14922Y11660D01*
G01X15025Y11660D01*
G01X15181Y11712D01*
G01X15285Y11816D01*
G01X15337Y11972D01*
G01X15337Y12128D01*
G01X15285Y12283D01*
G01X15233Y12335D01*
G01X15129Y12387D01*
G01X11906Y15920D02*
G01X11802Y15972D01*
G01X11698Y16076D01*
G01X11646Y16180D01*
G01X11646Y16388D01*
G01X11698Y16492D01*
G01X11802Y16596D01*
G01X11906Y16648D01*
G01X12062Y16700D01*
G01X12322Y16700D01*
G01X12477Y16648D01*
G01X12581Y16596D01*
G01X12685Y16492D01*
G01X12737Y16388D01*
G01X12737Y16180D01*
G01X12685Y16076D01*
G01X12581Y15972D01*
G01X12477Y15920D01*
G01X12322Y15920D01*
G01X12322Y16180D02*
G01X12322Y15920D01*
G01X11646Y15577D02*
G01X12737Y15577D01*
G01X11646Y15577D02*
G01X11646Y15110D01*
G01X11698Y14954D01*
G01X11750Y14902D01*
G01X11854Y14850D01*
G01X12010Y14850D01*
G01X12114Y14902D01*
G01X12166Y14954D01*
G01X12218Y15110D01*
G01X12218Y15577D01*
G01X11646Y14507D02*
G01X12737Y14507D01*
G01X11646Y13852D02*
G01X11698Y13956D01*
G01X11802Y14060D01*
G01X11906Y14112D01*
G01X12062Y14164D01*
G01X12322Y14164D01*
G01X12477Y14112D01*
G01X12581Y14060D01*
G01X12685Y13956D01*
G01X12737Y13852D01*
G01X12737Y13645D01*
G01X12685Y13541D01*
G01X12581Y13437D01*
G01X12477Y13385D01*
G01X12322Y13333D01*
G01X12062Y13333D01*
G01X11906Y13385D01*
G01X11802Y13437D01*
G01X11698Y13541D01*
G01X11646Y13645D01*
G01X11646Y13852D01*
G01X11854Y12990D02*
G01X11802Y12886D01*
G01X11646Y12730D01*
G01X12737Y12730D01*
G01X11646Y11868D02*
G01X12374Y12387D01*
G01X12374Y11608D01*
G01X11646Y11868D02*
G01X12737Y11868D01*

%LPD*%
G36*
G01X11354Y47594D02*
G01X11186Y47594D01*
G01X11186Y46248D01*
G01X10528Y46248D01*
G01X10528Y46106D01*
G01X11354Y46106D01*
G01X11354Y47594D01*
G37*

%LPD*%
G36*
G01X14729Y47594D02*
G01X14562Y47594D01*
G01X14562Y46248D01*
G01X13901Y46248D01*
G01X13901Y46106D01*
G01X14729Y46106D01*
G01X14729Y47594D01*
G37*

%LPD*%
G36*
G01X18105Y47594D02*
G01X17935Y47594D01*
G01X17935Y46248D01*
G01X17277Y46248D01*
G01X17277Y46106D01*
G01X18105Y46106D01*
G01X18105Y47594D01*
G37*

%LPD*%
G36*
G01X21481Y47594D02*
G01X21310Y47594D01*
G01X21310Y46248D01*
G01X20652Y46248D01*
G01X20652Y46106D01*
G01X21481Y46106D01*
G01X21481Y47594D01*
G37*

%LPD*%
G36*
G01X9811Y47618D02*
G01X9756Y47620D01*
G01X9690Y47616D01*
G01X9629Y47605D01*
G01X9571Y47587D01*
G01X9519Y47565D01*
G01X9470Y47538D01*
G01X9426Y47507D01*
G01X9387Y47474D01*
G01X9352Y47439D01*
G01X9446Y47330D01*
G01X9508Y47388D01*
G01X9580Y47433D01*
G01X9662Y47462D01*
G01X9756Y47472D01*
G01X9809Y47469D01*
G01X9860Y47461D01*
G01X9908Y47448D01*
G01X9953Y47429D01*
G01X9995Y47406D01*
G01X10035Y47377D01*
G01X10071Y47344D01*
G01X10104Y47306D01*
G01X10134Y47264D01*
G01X10160Y47217D01*
G01X10183Y47166D01*
G01X10201Y47111D01*
G01X10216Y47052D01*
G01X10227Y46989D01*
G01X10233Y46923D01*
G01X10236Y46853D01*
G01X10233Y46783D01*
G01X10227Y46716D01*
G01X10217Y46653D01*
G01X10202Y46593D01*
G01X10185Y46538D01*
G01X10162Y46486D01*
G01X10137Y46439D01*
G01X10108Y46396D01*
G01X10075Y46358D01*
G01X10039Y46324D01*
G01X10000Y46295D01*
G01X9958Y46272D01*
G01X9913Y46253D01*
G01X9865Y46239D01*
G01X9814Y46230D01*
G01X9761Y46228D01*
G01X9708Y46230D01*
G01X9658Y46239D01*
G01X9612Y46253D01*
G01X9567Y46272D01*
G01X9525Y46296D01*
G01X9486Y46325D01*
G01X9447Y46359D01*
G01X9410Y46398D01*
G01X9316Y46294D01*
G01X9361Y46245D01*
G01X9408Y46202D01*
G01X9459Y46166D01*
G01X9513Y46136D01*
G01X9570Y46112D01*
G01X9632Y46095D01*
G01X9698Y46084D01*
G01X9769Y46081D01*
G01X9823Y46083D01*
G01X9876Y46089D01*
G01X9927Y46099D01*
G01X9976Y46114D01*
G01X10024Y46133D01*
G01X10069Y46156D01*
G01X10112Y46182D01*
G01X10153Y46213D01*
G01X10191Y46247D01*
G01X10227Y46284D01*
G01X10259Y46326D01*
G01X10289Y46371D01*
G01X10316Y46419D01*
G01X10340Y46471D01*
G01X10360Y46526D01*
G01X10377Y46585D01*
G01X10391Y46646D01*
G01X10401Y46711D01*
G01X10407Y46779D01*
G01X10409Y46850D01*
G01X10407Y46920D01*
G01X10401Y46988D01*
G01X10390Y47052D01*
G01X10377Y47113D01*
G01X10359Y47172D01*
G01X10339Y47227D01*
G01X10314Y47279D01*
G01X10287Y47327D01*
G01X10256Y47372D01*
G01X10223Y47414D01*
G01X10187Y47452D01*
G01X10148Y47486D01*
G01X10106Y47517D01*
G01X10063Y47544D01*
G01X10016Y47566D01*
G01X9968Y47586D01*
G01X9917Y47600D01*
G01X9865Y47611D01*
G01X9811Y47618D01*
G37*

%LPD*%
G36*
G01X11930Y47594D02*
G01X11762Y47594D01*
G01X11762Y46535D01*
G01X11765Y46473D01*
G01X11772Y46414D01*
G01X11785Y46358D01*
G01X11803Y46306D01*
G01X11826Y46257D01*
G01X11855Y46214D01*
G01X11891Y46175D01*
G01X11932Y46142D01*
G01X11980Y46116D01*
G01X12034Y46097D01*
G01X12095Y46085D01*
G01X12164Y46081D01*
G01X12230Y46084D01*
G01X12291Y46095D01*
G01X12348Y46114D01*
G01X12400Y46139D01*
G01X12448Y46171D01*
G01X12490Y46211D01*
G01X12529Y46258D01*
G01X12563Y46312D01*
G01X12441Y46395D01*
G01X12387Y46318D01*
G01X12325Y46266D01*
G01X12255Y46237D01*
G01X12177Y46228D01*
G01X12118Y46232D01*
G01X12068Y46246D01*
G01X12026Y46269D01*
G01X11991Y46304D01*
G01X11964Y46348D01*
G01X11945Y46404D01*
G01X11934Y46471D01*
G01X11930Y46550D01*
G01X11930Y47594D01*
G37*

%LPD*%
G36*
G01X13187Y47618D02*
G01X13132Y47620D01*
G01X13066Y47616D01*
G01X13005Y47605D01*
G01X12947Y47587D01*
G01X12894Y47565D01*
G01X12846Y47538D01*
G01X12802Y47507D01*
G01X12762Y47474D01*
G01X12728Y47439D01*
G01X12822Y47330D01*
G01X12884Y47388D01*
G01X12955Y47433D01*
G01X13037Y47462D01*
G01X13129Y47472D01*
G01X13182Y47469D01*
G01X13234Y47461D01*
G01X13282Y47448D01*
G01X13328Y47429D01*
G01X13370Y47406D01*
G01X13410Y47377D01*
G01X13447Y47344D01*
G01X13480Y47306D01*
G01X13510Y47264D01*
G01X13536Y47217D01*
G01X13558Y47166D01*
G01X13577Y47111D01*
G01X13592Y47052D01*
G01X13602Y46989D01*
G01X13609Y46923D01*
G01X13612Y46853D01*
G01X13609Y46783D01*
G01X13603Y46716D01*
G01X13593Y46653D01*
G01X13578Y46593D01*
G01X13560Y46538D01*
G01X13538Y46486D01*
G01X13513Y46439D01*
G01X13484Y46396D01*
G01X13451Y46358D01*
G01X13415Y46324D01*
G01X13376Y46295D01*
G01X13334Y46272D01*
G01X13289Y46253D01*
G01X13241Y46239D01*
G01X13190Y46230D01*
G01X13137Y46228D01*
G01X13084Y46230D01*
G01X13034Y46239D01*
G01X12987Y46253D01*
G01X12943Y46272D01*
G01X12900Y46296D01*
G01X12860Y46325D01*
G01X12821Y46359D01*
G01X12784Y46398D01*
G01X12692Y46294D01*
G01X12736Y46245D01*
G01X12784Y46202D01*
G01X12834Y46166D01*
G01X12889Y46136D01*
G01X12946Y46112D01*
G01X13008Y46095D01*
G01X13074Y46084D01*
G01X13144Y46081D01*
G01X13199Y46083D01*
G01X13251Y46089D01*
G01X13303Y46099D01*
G01X13352Y46114D01*
G01X13399Y46133D01*
G01X13445Y46156D01*
G01X13488Y46182D01*
G01X13528Y46213D01*
G01X13567Y46247D01*
G01X13602Y46284D01*
G01X13635Y46326D01*
G01X13665Y46371D01*
G01X13692Y46419D01*
G01X13716Y46471D01*
G01X13736Y46526D01*
G01X13753Y46585D01*
G01X13767Y46646D01*
G01X13776Y46711D01*
G01X13782Y46779D01*
G01X13784Y46850D01*
G01X13782Y46920D01*
G01X13776Y46988D01*
G01X13766Y47052D01*
G01X13752Y47113D01*
G01X13735Y47172D01*
G01X13714Y47227D01*
G01X13690Y47279D01*
G01X13662Y47327D01*
G01X13632Y47372D01*
G01X13599Y47414D01*
G01X13562Y47452D01*
G01X13524Y47486D01*
G01X13482Y47517D01*
G01X13438Y47544D01*
G01X13392Y47566D01*
G01X13343Y47586D01*
G01X13293Y47600D01*
G01X13241Y47611D01*
G01X13187Y47618D01*
G37*

%LPD*%
G36*
G01X15306Y47594D02*
G01X15138Y47594D01*
G01X15138Y46535D01*
G01X15140Y46473D01*
G01X15148Y46414D01*
G01X15161Y46358D01*
G01X15178Y46306D01*
G01X15202Y46257D01*
G01X15231Y46214D01*
G01X15266Y46175D01*
G01X15307Y46142D01*
G01X15355Y46116D01*
G01X15408Y46097D01*
G01X15469Y46085D01*
G01X15537Y46081D01*
G01X15603Y46084D01*
G01X15664Y46095D01*
G01X15721Y46114D01*
G01X15774Y46139D01*
G01X15821Y46171D01*
G01X15865Y46211D01*
G01X15904Y46258D01*
G01X15938Y46312D01*
G01X15816Y46395D01*
G01X15762Y46318D01*
G01X15701Y46266D01*
G01X15631Y46237D01*
G01X15552Y46228D01*
G01X15494Y46232D01*
G01X15444Y46246D01*
G01X15401Y46269D01*
G01X15367Y46304D01*
G01X15340Y46348D01*
G01X15321Y46404D01*
G01X15309Y46471D01*
G01X15306Y46550D01*
G01X15306Y47594D01*
G37*

%LPD*%
G36*
G01X16563Y47618D02*
G01X16507Y47620D01*
G01X16441Y47616D01*
G01X16380Y47605D01*
G01X16322Y47587D01*
G01X16269Y47565D01*
G01X16220Y47538D01*
G01X16177Y47507D01*
G01X16137Y47474D01*
G01X16103Y47439D01*
G01X16197Y47330D01*
G01X16259Y47388D01*
G01X16331Y47433D01*
G01X16413Y47462D01*
G01X16505Y47472D01*
G01X16558Y47469D01*
G01X16609Y47461D01*
G01X16658Y47448D01*
G01X16703Y47429D01*
G01X16746Y47406D01*
G01X16786Y47377D01*
G01X16822Y47344D01*
G01X16855Y47306D01*
G01X16885Y47264D01*
G01X16912Y47217D01*
G01X16934Y47166D01*
G01X16953Y47111D01*
G01X16967Y47052D01*
G01X16978Y46989D01*
G01X16985Y46923D01*
G01X16987Y46853D01*
G01X16985Y46783D01*
G01X16979Y46716D01*
G01X16968Y46653D01*
G01X16954Y46593D01*
G01X16936Y46538D01*
G01X16914Y46486D01*
G01X16888Y46439D01*
G01X16859Y46396D01*
G01X16827Y46358D01*
G01X16791Y46324D01*
G01X16752Y46295D01*
G01X16709Y46272D01*
G01X16664Y46253D01*
G01X16616Y46239D01*
G01X16566Y46230D01*
G01X16512Y46228D01*
G01X16459Y46230D01*
G01X16410Y46239D01*
G01X16363Y46253D01*
G01X16318Y46272D01*
G01X16276Y46296D01*
G01X16235Y46325D01*
G01X16197Y46359D01*
G01X16159Y46398D01*
G01X16065Y46294D01*
G01X16110Y46245D01*
G01X16158Y46202D01*
G01X16210Y46166D01*
G01X16264Y46136D01*
G01X16322Y46112D01*
G01X16384Y46095D01*
G01X16450Y46084D01*
G01X16520Y46081D01*
G01X16574Y46083D01*
G01X16627Y46089D01*
G01X16678Y46099D01*
G01X16728Y46114D01*
G01X16775Y46133D01*
G01X16821Y46156D01*
G01X16863Y46182D01*
G01X16904Y46213D01*
G01X16943Y46247D01*
G01X16978Y46284D01*
G01X17011Y46326D01*
G01X17041Y46371D01*
G01X17068Y46419D01*
G01X17091Y46471D01*
G01X17112Y46526D01*
G01X17128Y46585D01*
G01X17142Y46646D01*
G01X17152Y46711D01*
G01X17158Y46779D01*
G01X17160Y46850D01*
G01X17158Y46920D01*
G01X17152Y46988D01*
G01X17142Y47052D01*
G01X17128Y47113D01*
G01X17111Y47172D01*
G01X17090Y47227D01*
G01X17066Y47279D01*
G01X17038Y47327D01*
G01X17008Y47372D01*
G01X16975Y47414D01*
G01X16938Y47452D01*
G01X16899Y47486D01*
G01X16858Y47517D01*
G01X16814Y47544D01*
G01X16768Y47566D01*
G01X16719Y47586D01*
G01X16669Y47600D01*
G01X16616Y47611D01*
G01X16563Y47618D01*
G37*

%LPD*%
G36*
G01X18681Y47594D02*
G01X18514Y47594D01*
G01X18514Y46535D01*
G01X18516Y46473D01*
G01X18523Y46414D01*
G01X18536Y46358D01*
G01X18553Y46306D01*
G01X18576Y46257D01*
G01X18605Y46214D01*
G01X18640Y46175D01*
G01X18681Y46142D01*
G01X18729Y46116D01*
G01X18783Y46097D01*
G01X18845Y46085D01*
G01X18913Y46081D01*
G01X18979Y46084D01*
G01X19040Y46095D01*
G01X19097Y46114D01*
G01X19149Y46139D01*
G01X19197Y46171D01*
G01X19240Y46211D01*
G01X19279Y46258D01*
G01X19314Y46312D01*
G01X19192Y46395D01*
G01X19137Y46318D01*
G01X19076Y46266D01*
G01X19007Y46237D01*
G01X18928Y46228D01*
G01X18869Y46232D01*
G01X18820Y46246D01*
G01X18777Y46269D01*
G01X18742Y46304D01*
G01X18715Y46348D01*
G01X18697Y46404D01*
G01X18685Y46471D01*
G01X18681Y46550D01*
G01X18681Y47594D01*
G37*

%LPD*%
G36*
G01X19938Y47618D02*
G01X19883Y47620D01*
G01X19817Y47616D01*
G01X19755Y47605D01*
G01X19698Y47587D01*
G01X19645Y47565D01*
G01X19596Y47538D01*
G01X19552Y47507D01*
G01X19513Y47474D01*
G01X19479Y47439D01*
G01X19570Y47330D01*
G01X19633Y47388D01*
G01X19706Y47433D01*
G01X19788Y47462D01*
G01X19880Y47472D01*
G01X19933Y47469D01*
G01X19984Y47461D01*
G01X20032Y47448D01*
G01X20078Y47429D01*
G01X20121Y47406D01*
G01X20160Y47377D01*
G01X20197Y47344D01*
G01X20230Y47306D01*
G01X20260Y47264D01*
G01X20286Y47217D01*
G01X20309Y47166D01*
G01X20328Y47111D01*
G01X20343Y47052D01*
G01X20354Y46989D01*
G01X20360Y46923D01*
G01X20363Y46853D01*
G01X20360Y46783D01*
G01X20354Y46716D01*
G01X20344Y46653D01*
G01X20329Y46593D01*
G01X20311Y46538D01*
G01X20289Y46486D01*
G01X20264Y46439D01*
G01X20234Y46396D01*
G01X20202Y46358D01*
G01X20166Y46324D01*
G01X20127Y46295D01*
G01X20084Y46272D01*
G01X20039Y46253D01*
G01X19991Y46239D01*
G01X19939Y46230D01*
G01X19885Y46228D01*
G01X19833Y46230D01*
G01X19784Y46239D01*
G01X19737Y46253D01*
G01X19693Y46272D01*
G01X19651Y46296D01*
G01X19610Y46325D01*
G01X19571Y46359D01*
G01X19535Y46398D01*
G01X19441Y46294D01*
G01X19486Y46245D01*
G01X19534Y46202D01*
G01X19585Y46166D01*
G01X19640Y46136D01*
G01X19697Y46112D01*
G01X19759Y46095D01*
G01X19825Y46084D01*
G01X19896Y46081D01*
G01X19949Y46083D01*
G01X20002Y46089D01*
G01X20053Y46099D01*
G01X20102Y46114D01*
G01X20150Y46133D01*
G01X20195Y46156D01*
G01X20238Y46182D01*
G01X20279Y46213D01*
G01X20317Y46247D01*
G01X20353Y46284D01*
G01X20385Y46326D01*
G01X20415Y46371D01*
G01X20443Y46419D01*
G01X20467Y46471D01*
G01X20487Y46526D01*
G01X20504Y46585D01*
G01X20517Y46646D01*
G01X20528Y46711D01*
G01X20534Y46779D01*
G01X20536Y46850D01*
G01X20534Y46920D01*
G01X20528Y46988D01*
G01X20517Y47052D01*
G01X20504Y47113D01*
G01X20486Y47172D01*
G01X20466Y47227D01*
G01X20441Y47279D01*
G01X20414Y47327D01*
G01X20383Y47372D01*
G01X20350Y47414D01*
G01X20314Y47452D01*
G01X20275Y47486D01*
G01X20233Y47517D01*
G01X20190Y47544D01*
G01X20143Y47566D01*
G01X20095Y47586D01*
G01X20044Y47600D01*
G01X19992Y47611D01*
G01X19938Y47618D01*
G37*

%LPD*%
G36*
G01X22057Y47594D02*
G01X21887Y47594D01*
G01X21887Y46535D01*
G01X21889Y46473D01*
G01X21897Y46414D01*
G01X21909Y46358D01*
G01X21927Y46306D01*
G01X21950Y46257D01*
G01X21980Y46214D01*
G01X22015Y46175D01*
G01X22057Y46142D01*
G01X22104Y46116D01*
G01X22159Y46097D01*
G01X22220Y46085D01*
G01X22288Y46081D01*
G01X22354Y46084D01*
G01X22416Y46095D01*
G01X22473Y46114D01*
G01X22525Y46139D01*
G01X22573Y46171D01*
G01X22616Y46211D01*
G01X22655Y46258D01*
G01X22690Y46312D01*
G01X22568Y46395D01*
G01X22513Y46318D01*
G01X22452Y46266D01*
G01X22382Y46237D01*
G01X22303Y46228D01*
G01X22245Y46232D01*
G01X22195Y46246D01*
G01X22153Y46269D01*
G01X22118Y46304D01*
G01X22091Y46348D01*
G01X22072Y46404D01*
G01X22061Y46471D01*
G01X22057Y46550D01*
G01X22057Y47594D01*
G37*

%LPD*%
G01X19998Y58952D02*
G01X19998Y57863D01*
G01X19998Y58952D02*
G01X19584Y57863D01*
G01X19168Y58952D02*
G01X19584Y57863D01*
G01X19168Y58952D02*
G01X19168Y57863D01*
G01X18203Y58589D02*
G01X18203Y57863D01*
G01X18203Y58434D02*
G01X18307Y58538D01*
G01X18411Y58589D01*
G01X18566Y58589D01*
G01X18670Y58538D01*
G01X18774Y58434D01*
G01X18825Y58277D01*
G01X18825Y58172D01*
G01X18774Y58018D01*
G01X18670Y57913D01*
G01X18566Y57863D01*
G01X18411Y57863D01*
G01X18307Y57913D01*
G01X18203Y58018D01*
G01X17860Y58952D02*
G01X17860Y57863D01*
G01X17339Y58589D02*
G01X17860Y58071D01*
G01X17651Y58277D02*
G01X17288Y57863D01*
G01X16945Y58277D02*
G01X16321Y58277D01*
G01X16321Y58381D01*
G01X16374Y58485D01*
G01X16425Y58538D01*
G01X16529Y58589D01*
G01X16684Y58589D01*
G01X16788Y58538D01*
G01X16892Y58434D01*
G01X16945Y58277D01*
G01X16945Y58172D01*
G01X16892Y58018D01*
G01X16788Y57913D01*
G01X16684Y57863D01*
G01X16529Y57863D01*
G01X16425Y57913D01*
G01X16321Y58018D01*
G01X15978Y58589D02*
G01X15978Y57863D01*
G01X15978Y58277D02*
G01X15927Y58434D01*
G01X15823Y58538D01*
G01X15719Y58589D01*
G01X15564Y58589D01*
G01X15167Y58485D02*
G01X15221Y58434D01*
G01X15167Y58381D01*
G01X15117Y58434D01*
G01X15167Y58485D01*
G01X15167Y58122D02*
G01X15221Y58071D01*
G01X15167Y58018D01*
G01X15117Y58071D01*
G01X15167Y58122D01*
G01X13349Y58434D02*
G01X13453Y58538D01*
G01X13557Y58589D01*
G01X13712Y58589D01*
G01X13816Y58538D01*
G01X13920Y58434D01*
G01X13974Y58277D01*
G01X13974Y58172D01*
G01X13920Y58018D01*
G01X13816Y57913D01*
G01X13712Y57863D01*
G01X13557Y57863D01*
G01X13453Y57913D01*
G01X13349Y58018D01*
G01X13006Y58277D02*
G01X12384Y58277D01*
G01X12384Y58381D01*
G01X12434Y58485D01*
G01X12488Y58538D01*
G01X12592Y58589D01*
G01X12747Y58589D01*
G01X12851Y58538D01*
G01X12955Y58434D01*
G01X13006Y58277D01*
G01X13006Y58172D01*
G01X12955Y58018D01*
G01X12851Y57913D01*
G01X12747Y57863D01*
G01X12592Y57863D01*
G01X12488Y57913D01*
G01X12384Y58018D01*
G01X11782Y58589D02*
G01X11883Y58538D01*
G01X11987Y58434D01*
G01X12041Y58277D01*
G01X12041Y58172D01*
G01X11987Y58018D01*
G01X11883Y57913D01*
G01X11782Y57863D01*
G01X11624Y57863D01*
G01X11520Y57913D01*
G01X11416Y58018D01*
G01X11365Y58172D01*
G01X11365Y58277D01*
G01X11416Y58434D01*
G01X11520Y58538D01*
G01X11624Y58589D01*
G01X11782Y58589D01*
G01X11022Y58952D02*
G01X11022Y57863D01*
G01X10420Y58589D02*
G01X10524Y58538D01*
G01X10626Y58434D01*
G01X10679Y58277D01*
G01X10679Y58172D01*
G01X10626Y58018D01*
G01X10524Y57913D01*
G01X10420Y57863D01*
G01X10263Y57863D01*
G01X10158Y57913D01*
G01X10054Y58018D01*
G01X10004Y58172D01*
G01X10004Y58277D01*
G01X10054Y58434D01*
G01X10158Y58538D01*
G01X10263Y58589D01*
G01X10420Y58589D01*
G01X9661Y58952D02*
G01X9610Y58901D01*
G01X9557Y58952D01*
G01X9610Y59006D01*
G01X9661Y58952D01*
G01X9610Y58589D02*
G01X9610Y57863D01*
G01X8591Y58952D02*
G01X8591Y57863D01*
G01X8591Y58434D02*
G01X8695Y58538D01*
G01X8797Y58589D01*
G01X8955Y58589D01*
G01X9059Y58538D01*
G01X9163Y58434D01*
G01X9214Y58277D01*
G01X9214Y58172D01*
G01X9163Y58018D01*
G01X9059Y57913D01*
G01X8955Y57863D01*
G01X8797Y57863D01*
G01X8695Y57913D01*
G01X8591Y58018D01*
G01X8248Y58277D02*
G01X7624Y58277D01*
G01X7624Y58381D01*
G01X7677Y58485D01*
G01X7728Y58538D01*
G01X7832Y58589D01*
G01X7987Y58589D01*
G01X8091Y58538D01*
G01X8195Y58434D01*
G01X8248Y58277D01*
G01X8248Y58172D01*
G01X8195Y58018D01*
G01X8091Y57913D01*
G01X7987Y57863D01*
G01X7832Y57863D01*
G01X7728Y57913D01*
G01X7624Y58018D01*
G01X19999Y56753D02*
G01X19999Y55662D01*
G01X19999Y56753D02*
G01X19584Y55662D01*
G01X19168Y56753D02*
G01X19584Y55662D01*
G01X19168Y56753D02*
G01X19168Y55662D01*
G01X18565Y56389D02*
G01X18669Y56337D01*
G01X18773Y56233D01*
G01X18825Y56077D01*
G01X18825Y55974D01*
G01X18773Y55818D01*
G01X18669Y55714D01*
G01X18565Y55662D01*
G01X18410Y55662D01*
G01X18306Y55714D01*
G01X18202Y55818D01*
G01X18150Y55974D01*
G01X18150Y56077D01*
G01X18202Y56233D01*
G01X18306Y56337D01*
G01X18410Y56389D01*
G01X18565Y56389D01*
G01X17183Y56753D02*
G01X17183Y55662D01*
G01X17183Y56233D02*
G01X17287Y56337D01*
G01X17391Y56389D01*
G01X17547Y56389D01*
G01X17651Y56337D01*
G01X17755Y56233D01*
G01X17807Y56077D01*
G01X17807Y55974D01*
G01X17755Y55818D01*
G01X17651Y55714D01*
G01X17547Y55662D01*
G01X17391Y55662D01*
G01X17287Y55714D01*
G01X17183Y55818D01*
G01X16841Y56077D02*
G01X16217Y56077D01*
G01X16217Y56181D01*
G01X16269Y56285D01*
G01X16321Y56337D01*
G01X16425Y56389D01*
G01X16581Y56389D01*
G01X16685Y56337D01*
G01X16789Y56233D01*
G01X16841Y56077D01*
G01X16841Y55974D01*
G01X16789Y55818D01*
G01X16685Y55714D01*
G01X16581Y55662D01*
G01X16425Y55662D01*
G01X16321Y55714D01*
G01X16217Y55818D01*
G01X15874Y56753D02*
G01X15874Y55662D01*
G01X15479Y56285D02*
G01X15531Y56233D01*
G01X15479Y56181D01*
G01X15427Y56233D01*
G01X15479Y56285D01*
G01X15479Y55922D02*
G01X15531Y55870D01*
G01X15479Y55818D01*
G01X15427Y55870D01*
G01X15479Y55922D01*
G01X14284Y56753D02*
G01X14284Y55974D01*
G01X14232Y55818D01*
G01X14129Y55714D01*
G01X13973Y55662D01*
G01X13869Y55662D01*
G01X13713Y55714D01*
G01X13609Y55818D01*
G01X13557Y55974D01*
G01X13557Y56753D01*
G01X12591Y56389D02*
G01X12591Y55558D01*
G01X12643Y55402D01*
G01X12695Y55350D01*
G01X12799Y55298D01*
G01X12954Y55298D01*
G01X13058Y55350D01*
G01X12591Y56233D02*
G01X12695Y56337D01*
G01X12799Y56389D01*
G01X12954Y56389D01*
G01X13058Y56337D01*
G01X13162Y56233D01*
G01X13214Y56077D01*
G01X13214Y55974D01*
G01X13162Y55818D01*
G01X13058Y55714D01*
G01X12954Y55662D01*
G01X12799Y55662D01*
G01X12695Y55714D01*
G01X12591Y55818D01*
G01X11988Y56389D02*
G01X12092Y56337D01*
G01X12196Y56233D01*
G01X12248Y56077D01*
G01X12248Y55974D01*
G01X12196Y55818D01*
G01X12092Y55714D01*
G01X11988Y55662D01*
G01X11832Y55662D01*
G01X11728Y55714D01*
G01X11624Y55818D01*
G01X11572Y55974D01*
G01X11572Y56077D01*
G01X11624Y56233D01*
G01X11728Y56337D01*
G01X11832Y56389D01*
G01X11988Y56389D01*
G01X11230Y56129D02*
G01X10294Y56129D01*
G01X9951Y56753D02*
G01X9951Y55662D01*
G01X9951Y56753D02*
G01X9276Y56753D01*
G01X9951Y56233D02*
G01X9536Y56233D01*
G01X9951Y55662D02*
G01X9276Y55662D01*
G01X8206Y56597D02*
G01X8310Y56701D01*
G01X8466Y56753D01*
G01X8673Y56753D01*
G01X8829Y56701D01*
G01X8933Y56597D01*
G01X8933Y56493D01*
G01X8881Y56389D01*
G01X8829Y56337D01*
G01X8725Y56285D01*
G01X8414Y56181D01*
G01X8310Y56129D01*
G01X8258Y56077D01*
G01X8206Y55974D01*
G01X8206Y55818D01*
G01X8310Y55714D01*
G01X8466Y55662D01*
G01X8673Y55662D01*
G01X8829Y55714D01*
G01X8933Y55818D01*
G01X7863Y56753D02*
G01X7863Y55662D01*
G01X7863Y56753D02*
G01X7395Y56753D01*
G01X7239Y56701D01*
G01X7187Y56649D01*
G01X7135Y56545D01*
G01X7135Y56389D01*
G01X7187Y56285D01*
G01X7239Y56233D01*
G01X7395Y56181D01*
G01X7863Y56181D01*
G01X6689Y56753D02*
G01X6117Y56753D01*
G01X6429Y56337D01*
G01X6273Y56337D01*
G01X6169Y56285D01*
G01X6117Y56233D01*
G01X6065Y56077D01*
G01X6065Y55974D01*
G01X6117Y55818D01*
G01X6221Y55714D01*
G01X6377Y55662D01*
G01X6533Y55662D01*
G01X6689Y55714D01*
G01X6741Y55766D01*
G01X6793Y55870D01*
G01X5670Y56493D02*
G01X5670Y56545D01*
G01X5618Y56649D01*
G01X5566Y56701D01*
G01X5463Y56753D01*
G01X5255Y56753D01*
G01X5151Y56701D01*
G01X5099Y56649D01*
G01X5047Y56545D01*
G01X5047Y56441D01*
G01X5099Y56337D01*
G01X5203Y56181D01*
G01X5722Y55662D01*
G01X4995Y55662D01*
G01X19999Y54453D02*
G01X19999Y53362D01*
G01X19999Y54453D02*
G01X19532Y54453D01*
G01X19376Y54401D01*
G01X19324Y54349D01*
G01X19272Y54245D01*
G01X19272Y54141D01*
G01X19324Y54037D01*
G01X19376Y53985D01*
G01X19532Y53934D01*
G01X19999Y53934D01*
G01X19636Y53934D02*
G01X19272Y53362D01*
G01X18929Y53778D02*
G01X18306Y53778D01*
G01X18306Y53882D01*
G01X18358Y53985D01*
G01X18410Y54037D01*
G01X18514Y54089D01*
G01X18669Y54089D01*
G01X18773Y54037D01*
G01X18877Y53934D01*
G01X18929Y53778D01*
G01X18929Y53674D01*
G01X18877Y53518D01*
G01X18773Y53414D01*
G01X18669Y53362D01*
G01X18514Y53362D01*
G01X18410Y53414D01*
G01X18306Y53518D01*
G01X17963Y54089D02*
G01X17651Y53362D01*
G01X17339Y54089D02*
G01X17651Y53362D01*
G01X16996Y54453D02*
G01X16945Y54401D01*
G01X16893Y54453D01*
G01X16945Y54505D01*
G01X16996Y54453D01*
G01X16945Y54089D02*
G01X16945Y53362D01*
G01X15978Y53934D02*
G01X16030Y54037D01*
G01X16186Y54089D01*
G01X16342Y54089D01*
G01X16498Y54037D01*
G01X16550Y53934D01*
G01X16498Y53830D01*
G01X16394Y53778D01*
G01X16134Y53726D01*
G01X16030Y53674D01*
G01X15978Y53570D01*
G01X15978Y53518D01*
G01X16030Y53414D01*
G01X16186Y53362D01*
G01X16342Y53362D01*
G01X16498Y53414D01*
G01X16550Y53518D01*
G01X15635Y54453D02*
G01X15583Y54401D01*
G01X15531Y54453D01*
G01X15583Y54505D01*
G01X15635Y54453D01*
G01X15583Y54089D02*
G01X15583Y53362D01*
G01X14929Y54089D02*
G01X15033Y54037D01*
G01X15136Y53934D01*
G01X15188Y53778D01*
G01X15188Y53674D01*
G01X15136Y53518D01*
G01X15033Y53414D01*
G01X14929Y53362D01*
G01X14773Y53362D01*
G01X14669Y53414D01*
G01X14565Y53518D01*
G01X14513Y53674D01*
G01X14513Y53778D01*
G01X14565Y53934D01*
G01X14669Y54037D01*
G01X14773Y54089D01*
G01X14929Y54089D01*
G01X14170Y54089D02*
G01X14170Y53362D01*
G01X14170Y53882D02*
G01X14014Y54037D01*
G01X13910Y54089D01*
G01X13754Y54089D01*
G01X13651Y54037D01*
G01X13599Y53882D01*
G01X13599Y53362D01*
G01X13204Y53985D02*
G01X13256Y53934D01*
G01X13204Y53882D01*
G01X13152Y53934D01*
G01X13204Y53985D01*
G01X13204Y53622D02*
G01X13256Y53570D01*
G01X13204Y53518D01*
G01X13152Y53570D01*
G01X13204Y53622D01*
G01X11645Y54453D02*
G01X11645Y53362D01*
G01X12009Y54453D02*
G01X11281Y54453D01*
G01X10939Y54453D02*
G01X10887Y54401D01*
G01X10835Y54453D01*
G01X10887Y54505D01*
G01X10939Y54453D01*
G01X10887Y54089D02*
G01X10887Y53362D01*
G01X10492Y54089D02*
G01X10492Y53362D01*
G01X10492Y53882D02*
G01X10336Y54037D01*
G01X10232Y54089D01*
G01X10076Y54089D01*
G01X9972Y54037D01*
G01X9920Y53882D01*
G01X9920Y53362D01*
G01X9525Y54089D02*
G01X9214Y53362D01*
G01X8902Y54089D02*
G01X9214Y53362D01*
G01X9318Y53154D01*
G01X9421Y53050D01*
G01X9525Y52998D01*
G01X9577Y52998D01*
G01X8559Y54453D02*
G01X8559Y53362D01*
G01X8559Y54453D02*
G01X8091Y54453D01*
G01X7936Y54401D01*
G01X7884Y54349D01*
G01X7832Y54245D01*
G01X7832Y54089D01*
G01X7884Y53985D01*
G01X7936Y53934D01*
G01X8091Y53882D01*
G01X8559Y53882D01*
G01X7489Y54453D02*
G01X7489Y53362D01*
G01X6367Y54193D02*
G01X6419Y54297D01*
G01X6522Y54401D01*
G01X6626Y54453D01*
G01X6834Y54453D01*
G01X6938Y54401D01*
G01X7042Y54297D01*
G01X7094Y54193D01*
G01X7146Y54037D01*
G01X7146Y53778D01*
G01X7094Y53622D01*
G01X7042Y53518D01*
G01X6938Y53414D01*
G01X6834Y53362D01*
G01X6626Y53362D01*
G01X6522Y53414D01*
G01X6419Y53518D01*
G01X6367Y53622D01*
G01X5712Y54453D02*
G01X5816Y54401D01*
G01X5920Y54297D01*
G01X5972Y54193D01*
G01X6024Y54037D01*
G01X6024Y53778D01*
G01X5972Y53622D01*
G01X5920Y53518D01*
G01X5816Y53414D01*
G01X5712Y53362D01*
G01X5504Y53362D01*
G01X5400Y53414D01*
G01X5296Y53518D01*
G01X5244Y53622D01*
G01X5192Y53778D01*
G01X5192Y54037D01*
G01X5244Y54193D01*
G01X5296Y54297D01*
G01X5400Y54401D01*
G01X5504Y54453D01*
G01X5712Y54453D01*
G01X3738Y54453D02*
G01X3894Y54401D01*
G01X3997Y54245D01*
G01X4049Y53985D01*
G01X4049Y53830D01*
G01X3997Y53570D01*
G01X3894Y53414D01*
G01X3738Y53362D01*
G01X3634Y53362D01*
G01X3478Y53414D01*
G01X3374Y53570D01*
G01X3322Y53830D01*
G01X3322Y53985D01*
G01X3374Y54245D01*
G01X3478Y54401D01*
G01X3634Y54453D01*
G01X3738Y54453D01*
G01X2927Y53622D02*
G01X2979Y53570D01*
G01X2927Y53518D01*
G01X2875Y53570D01*
G01X2927Y53622D01*
G01X2480Y54193D02*
G01X2480Y54245D01*
G01X2428Y54349D01*
G01X2376Y54401D01*
G01X2273Y54453D01*
G01X2065Y54453D01*
G01X1961Y54401D01*
G01X1909Y54349D01*
G01X1857Y54245D01*
G01X1857Y54141D01*
G01X1909Y54037D01*
G01X2013Y53882D01*
G01X2532Y53362D01*
G01X1805Y53362D01*

%LPD*%
G36*
G01X8230Y50714D02*
G01X8205Y50719D01*
G01X8183Y50714D01*
G01X8165Y50703D01*
G01X8154Y50685D01*
G01X8150Y50663D01*
G01X8154Y50638D01*
G01X8165Y50620D01*
G01X8183Y50608D01*
G01X8205Y50604D01*
G01X8230Y50608D01*
G01X8248Y50620D01*
G01X8260Y50638D01*
G01X8264Y50663D01*
G01X8260Y50685D01*
G01X8248Y50703D01*
G01X8230Y50714D01*
G37*

%LPD*%
G36*
G01X15927Y50714D02*
G01X15904Y50719D01*
G01X15881Y50714D01*
G01X15863Y50703D01*
G01X15850Y50685D01*
G01X15846Y50663D01*
G01X15850Y50638D01*
G01X15863Y50620D01*
G01X15881Y50608D01*
G01X15904Y50604D01*
G01X15927Y50608D01*
G01X15945Y50620D01*
G01X15956Y50638D01*
G01X15960Y50663D01*
G01X15956Y50685D01*
G01X15945Y50703D01*
G01X15927Y50714D01*
G37*

%LPD*%
G36*
G01X17555Y50467D02*
G01X17530Y50472D01*
G01X17506Y50467D01*
G01X17487Y50453D01*
G01X17474Y50432D01*
G01X17469Y50404D01*
G01X17474Y50378D01*
G01X17487Y50357D01*
G01X17506Y50345D01*
G01X17530Y50340D01*
G01X17555Y50345D01*
G01X17575Y50357D01*
G01X17588Y50378D01*
G01X17593Y50404D01*
G01X17588Y50432D01*
G01X17575Y50453D01*
G01X17555Y50467D01*
G37*

%LPD*%
G36*
G01X4555Y50254D02*
G01X4299Y50254D01*
G01X4299Y50188D01*
G01X4555Y50188D01*
G01X4555Y50254D01*
G37*

%LPD*%
G36*
G01X1673Y50688D02*
G01X1609Y50696D01*
G01X1562Y50692D01*
G01X1520Y50680D01*
G01X1484Y50661D01*
G01X1453Y50636D01*
G01X1428Y50604D01*
G01X1410Y50567D01*
G01X1400Y50524D01*
G01X1396Y50477D01*
G01X1401Y50421D01*
G01X1417Y50363D01*
G01X1442Y50306D01*
G01X1477Y50247D01*
G01X1520Y50188D01*
G01X1572Y50127D01*
G01X1630Y50065D01*
G01X1695Y50002D01*
G01X1633Y50008D01*
G01X1603Y50009D01*
G01X1574Y50010D01*
G01X1360Y50010D01*
G01X1360Y49939D01*
G01X1820Y49939D01*
G01X1820Y49987D01*
G01X1738Y50062D01*
G01X1667Y50133D01*
G01X1608Y50198D01*
G01X1560Y50260D01*
G01X1523Y50318D01*
G01X1497Y50373D01*
G01X1482Y50425D01*
G01X1477Y50475D01*
G01X1486Y50535D01*
G01X1512Y50583D01*
G01X1556Y50615D01*
G01X1619Y50627D01*
G01X1663Y50620D01*
G01X1705Y50602D01*
G01X1743Y50573D01*
G01X1777Y50538D01*
G01X1825Y50586D01*
G01X1780Y50630D01*
G01X1729Y50665D01*
G01X1673Y50688D01*
G37*

%LPD*%
G36*
G01X2955Y50680D02*
G01X2750Y50680D01*
G01X2690Y50677D01*
G01X2636Y50669D01*
G01X2589Y50655D01*
G01X2548Y50633D01*
G01X2516Y50604D01*
G01X2493Y50567D01*
G01X2478Y50521D01*
G01X2473Y50467D01*
G01X2478Y50413D01*
G01X2493Y50366D01*
G01X2516Y50326D01*
G01X2548Y50294D01*
G01X2588Y50270D01*
G01X2635Y50252D01*
G01X2688Y50242D01*
G01X2747Y50238D01*
G01X2871Y50238D01*
G01X2871Y49939D01*
G01X2955Y49939D01*
G01X2955Y50680D01*
G37*

%LPC*%
G36*
G01X2871Y50614D02*
G01X2762Y50614D01*
G01X2672Y50607D01*
G01X2608Y50582D01*
G01X2569Y50537D01*
G01X2557Y50467D01*
G01X2569Y50395D01*
G01X2606Y50345D01*
G01X2669Y50316D01*
G01X2757Y50307D01*
G01X2871Y50307D01*
G01X2871Y50614D01*
G37*

%LPD*%
G36*
G01X4152Y50680D02*
G01X3727Y50680D01*
G01X3727Y50609D01*
G01X4068Y50609D01*
G01X4068Y50365D01*
G01X3781Y50365D01*
G01X3781Y50294D01*
G01X4068Y50294D01*
G01X4068Y50010D01*
G01X3717Y50010D01*
G01X3717Y49939D01*
G01X4152Y49939D01*
G01X4152Y50680D01*
G37*

%LPD*%
G36*
G01X8249Y50487D02*
G01X8165Y50487D01*
G01X8165Y49939D01*
G01X8249Y49939D01*
G01X8249Y50487D01*
G37*

%LPD*%
G36*
G01X11563Y50492D02*
G01X11515Y50500D01*
G01X11442Y50486D01*
G01X11390Y50446D01*
G01X11358Y50379D01*
G01X11347Y50287D01*
G01X11347Y49939D01*
G01X11431Y49939D01*
G01X11431Y50277D01*
G01X11438Y50344D01*
G01X11457Y50392D01*
G01X11490Y50420D01*
G01X11538Y50429D01*
G01X11571Y50423D01*
G01X11607Y50406D01*
G01X11644Y50379D01*
G01X11683Y50340D01*
G01X11683Y49939D01*
G01X11764Y49939D01*
G01X11764Y50277D01*
G01X11771Y50344D01*
G01X11790Y50392D01*
G01X11823Y50420D01*
G01X11871Y50429D01*
G01X11904Y50423D01*
G01X11939Y50406D01*
G01X11976Y50379D01*
G01X12015Y50340D01*
G01X12015Y49939D01*
G01X12097Y49939D01*
G01X12097Y50487D01*
G01X12031Y50487D01*
G01X12023Y50406D01*
G01X12018Y50406D01*
G01X11981Y50442D01*
G01X11940Y50472D01*
G01X11895Y50492D01*
G01X11848Y50500D01*
G01X11792Y50492D01*
G01X11749Y50471D01*
G01X11718Y50438D01*
G01X11698Y50393D01*
G01X11653Y50437D01*
G01X11609Y50471D01*
G01X11563Y50492D01*
G37*

%LPD*%
G36*
G01X15297Y50746D02*
G01X15213Y50746D01*
G01X15213Y50523D01*
G01X15218Y50406D01*
G01X15178Y50442D01*
G01X15135Y50472D01*
G01X15087Y50492D01*
G01X15033Y50500D01*
G01X14959Y50486D01*
G01X14907Y50446D01*
G01X14876Y50379D01*
G01X14865Y50287D01*
G01X14865Y49939D01*
G01X14949Y49939D01*
G01X14949Y50277D01*
G01X14956Y50344D01*
G01X14975Y50392D01*
G01X15009Y50420D01*
G01X15058Y50429D01*
G01X15100Y50423D01*
G01X15137Y50406D01*
G01X15174Y50379D01*
G01X15213Y50340D01*
G01X15213Y49939D01*
G01X15297Y49939D01*
G01X15297Y50746D01*
G37*

%LPD*%
G36*
G01X15945Y50487D02*
G01X15864Y50487D01*
G01X15864Y49939D01*
G01X15945Y49939D01*
G01X15945Y50487D01*
G37*

%LPD*%
G36*
G01X20004Y50746D02*
G01X19922Y50746D01*
G01X19922Y50523D01*
G01X19925Y50406D01*
G01X19884Y50442D01*
G01X19841Y50472D01*
G01X19794Y50492D01*
G01X19742Y50500D01*
G01X19668Y50486D01*
G01X19616Y50446D01*
G01X19585Y50379D01*
G01X19575Y50287D01*
G01X19575Y49939D01*
G01X19658Y49939D01*
G01X19658Y50277D01*
G01X19664Y50344D01*
G01X19683Y50392D01*
G01X19716Y50420D01*
G01X19765Y50429D01*
G01X19807Y50423D01*
G01X19845Y50406D01*
G01X19882Y50379D01*
G01X19922Y50340D01*
G01X19922Y49939D01*
G01X20004Y49939D01*
G01X20004Y50746D01*
G37*

%LPD*%
G36*
G01X2221Y50689D02*
G01X2160Y50696D01*
G01X2076Y50683D01*
G01X2009Y50646D01*
G01X1965Y50589D01*
G01X1949Y50510D01*
G01X1959Y50447D01*
G01X1986Y50396D01*
G01X2028Y50357D01*
G01X2082Y50330D01*
G01X2082Y50325D01*
G01X2021Y50301D01*
G01X1970Y50261D01*
G01X1937Y50206D01*
G01X1924Y50137D01*
G01X1929Y50090D01*
G01X1942Y50047D01*
G01X1964Y50011D01*
G01X1993Y49980D01*
G01X2027Y49956D01*
G01X2067Y49938D01*
G01X2110Y49927D01*
G01X2158Y49924D01*
G01X2237Y49932D01*
G01X2302Y49955D01*
G01X2353Y49988D01*
G01X2394Y50025D01*
G01X2351Y50081D01*
G01X2316Y50048D01*
G01X2274Y50021D01*
G01X2224Y50002D01*
G01X2163Y49995D01*
G01X2100Y50005D01*
G01X2051Y50034D01*
G01X2019Y50079D01*
G01X2008Y50139D01*
G01X2021Y50202D01*
G01X2061Y50250D01*
G01X2134Y50281D01*
G01X2244Y50292D01*
G01X2244Y50358D01*
G01X2145Y50369D01*
G01X2080Y50400D01*
G01X2044Y50447D01*
G01X2033Y50505D01*
G01X2042Y50555D01*
G01X2069Y50594D01*
G01X2109Y50618D01*
G01X2163Y50627D01*
G01X2208Y50622D01*
G01X2249Y50606D01*
G01X2287Y50583D01*
G01X2320Y50553D01*
G01X2366Y50607D01*
G01X2322Y50642D01*
G01X2275Y50670D01*
G01X2221Y50689D01*
G37*

%LPD*%
G36*
G01X3438Y50681D02*
G01X3346Y50696D01*
G01X3282Y50689D01*
G01X3225Y50670D01*
G01X3173Y50641D01*
G01X3131Y50604D01*
G01X3174Y50548D01*
G01X3210Y50579D01*
G01X3250Y50601D01*
G01X3296Y50614D01*
G01X3346Y50619D01*
G01X3405Y50611D01*
G01X3451Y50589D01*
G01X3481Y50554D01*
G01X3491Y50508D01*
G01X3480Y50458D01*
G01X3450Y50423D01*
G01X3410Y50397D01*
G01X3367Y50378D01*
G01X3260Y50332D01*
G01X3200Y50300D01*
G01X3150Y50260D01*
G01X3117Y50205D01*
G01X3105Y50132D01*
G01X3110Y50089D01*
G01X3123Y50050D01*
G01X3144Y50014D01*
G01X3173Y49983D01*
G01X3208Y49959D01*
G01X3251Y49939D01*
G01X3300Y49928D01*
G01X3354Y49924D01*
G01X3431Y49931D01*
G01X3500Y49954D01*
G01X3561Y49989D01*
G01X3613Y50035D01*
G01X3562Y50094D01*
G01X3519Y50054D01*
G01X3468Y50025D01*
G01X3412Y50006D01*
G01X3354Y50000D01*
G01X3285Y50009D01*
G01X3234Y50034D01*
G01X3201Y50074D01*
G01X3189Y50127D01*
G01X3199Y50178D01*
G01X3226Y50214D01*
G01X3266Y50241D01*
G01X3316Y50264D01*
G01X3425Y50312D01*
G01X3478Y50338D01*
G01X3526Y50376D01*
G01X3561Y50428D01*
G01X3575Y50500D01*
G01X3558Y50579D01*
G01X3511Y50641D01*
G01X3438Y50681D01*
G37*

%LPD*%
G36*
G01X4966Y50495D02*
G01X4916Y50500D01*
G01X4867Y50495D01*
G01X4821Y50481D01*
G01X4779Y50457D01*
G01X4741Y50425D01*
G01X4709Y50384D01*
G01X4686Y50335D01*
G01X4670Y50278D01*
G01X4665Y50213D01*
G01X4670Y50148D01*
G01X4686Y50091D01*
G01X4709Y50041D01*
G01X4741Y50000D01*
G01X4779Y49967D01*
G01X4821Y49943D01*
G01X4867Y49928D01*
G01X4916Y49924D01*
G01X4966Y49928D01*
G01X5013Y49943D01*
G01X5056Y49967D01*
G01X5094Y50000D01*
G01X5125Y50041D01*
G01X5149Y50091D01*
G01X5165Y50148D01*
G01X5170Y50213D01*
G01X5165Y50278D01*
G01X5149Y50335D01*
G01X5125Y50384D01*
G01X5094Y50425D01*
G01X5056Y50457D01*
G01X5013Y50481D01*
G01X4966Y50495D01*
G37*

%LPC*%
G36*
G01X4984Y50415D02*
G01X4916Y50432D01*
G01X4849Y50415D01*
G01X4796Y50371D01*
G01X4761Y50301D01*
G01X4749Y50213D01*
G01X4761Y50123D01*
G01X4796Y50054D01*
G01X4849Y50010D01*
G01X4916Y49995D01*
G01X4984Y50010D01*
G01X5037Y50054D01*
G01X5072Y50123D01*
G01X5084Y50213D01*
G01X5072Y50301D01*
G01X5037Y50371D01*
G01X4984Y50415D01*
G37*

%LPD*%
G36*
G01X5942Y50680D02*
G01X5864Y50680D01*
G01X5864Y50238D01*
G01X5869Y50157D01*
G01X5884Y50090D01*
G01X5908Y50035D01*
G01X5940Y49992D01*
G01X5979Y49961D01*
G01X6023Y49939D01*
G01X6072Y49927D01*
G01X6125Y49924D01*
G01X6179Y49927D01*
G01X6229Y49939D01*
G01X6274Y49961D01*
G01X6313Y49992D01*
G01X6345Y50035D01*
G01X6369Y50090D01*
G01X6384Y50157D01*
G01X6389Y50238D01*
G01X6389Y50680D01*
G01X6306Y50680D01*
G01X6306Y50238D01*
G01X6291Y50124D01*
G01X6253Y50051D01*
G01X6195Y50011D01*
G01X6125Y50000D01*
G01X6089Y50002D01*
G01X6055Y50011D01*
G01X6024Y50027D01*
G01X5997Y50051D01*
G01X5974Y50083D01*
G01X5957Y50124D01*
G01X5946Y50175D01*
G01X5942Y50238D01*
G01X5942Y50680D01*
G37*

%LPD*%
G36*
G01X7194Y50495D02*
G01X7146Y50500D01*
G01X7098Y50496D01*
G01X7055Y50482D01*
G01X7018Y50460D01*
G01X6987Y50431D01*
G01X6962Y50394D01*
G01X6945Y50350D01*
G01X6934Y50299D01*
G01X6930Y50244D01*
G01X6931Y50230D01*
G01X6933Y50204D01*
G01X6935Y50193D01*
G01X7309Y50193D01*
G01X7293Y50109D01*
G01X7255Y50045D01*
G01X7197Y50004D01*
G01X7121Y49990D01*
G01X7083Y49993D01*
G01X7048Y50002D01*
G01X7015Y50016D01*
G01X6984Y50035D01*
G01X6953Y49979D01*
G01X6990Y49958D01*
G01X7031Y49940D01*
G01X7078Y49928D01*
G01X7131Y49924D01*
G01X7184Y49928D01*
G01X7233Y49943D01*
G01X7277Y49967D01*
G01X7316Y50000D01*
G01X7348Y50041D01*
G01X7372Y50091D01*
G01X7388Y50148D01*
G01X7393Y50213D01*
G01X7388Y50276D01*
G01X7372Y50333D01*
G01X7348Y50382D01*
G01X7317Y50423D01*
G01X7280Y50456D01*
G01X7238Y50480D01*
G01X7194Y50495D01*
G37*

%LPC*%
G36*
G01X7205Y50422D02*
G01X7146Y50434D01*
G01X7087Y50422D01*
G01X7042Y50387D01*
G01X7014Y50331D01*
G01X7004Y50254D01*
G01X7311Y50254D01*
G01X7292Y50330D01*
G01X7255Y50387D01*
G01X7205Y50422D01*
G37*

%LPD*%
G36*
G01X7624Y50746D02*
G01X7543Y50746D01*
G01X7543Y49939D01*
G01X7609Y49939D01*
G01X7616Y50005D01*
G01X7619Y50005D01*
G01X7655Y49973D01*
G01X7696Y49947D01*
G01X7741Y49930D01*
G01X7789Y49924D01*
G01X7839Y49928D01*
G01X7883Y49942D01*
G01X7922Y49966D01*
G01X7955Y49999D01*
G01X7980Y50040D01*
G01X7999Y50090D01*
G01X8011Y50147D01*
G01X8015Y50213D01*
G01X8010Y50276D01*
G01X7996Y50332D01*
G01X7973Y50381D01*
G01X7943Y50422D01*
G01X7908Y50455D01*
G01X7867Y50480D01*
G01X7823Y50495D01*
G01X7776Y50500D01*
G01X7732Y50496D01*
G01X7693Y50483D01*
G01X7656Y50464D01*
G01X7619Y50437D01*
G01X7624Y50531D01*
G01X7624Y50746D01*
G37*

%LPC*%
G36*
G01X7829Y50415D02*
G01X7764Y50432D01*
G01X7728Y50428D01*
G01X7695Y50417D01*
G01X7660Y50398D01*
G01X7624Y50371D01*
G01X7624Y50073D01*
G01X7660Y50038D01*
G01X7696Y50014D01*
G01X7734Y49999D01*
G01X7771Y49995D01*
G01X7839Y50009D01*
G01X7888Y50052D01*
G01X7918Y50121D01*
G01X7929Y50213D01*
G01X7916Y50300D01*
G01X7881Y50370D01*
G01X7829Y50415D01*
G37*

%LPD*%
G36*
G01X8700Y50495D02*
G01X8650Y50500D01*
G01X8601Y50495D01*
G01X8553Y50481D01*
G01X8510Y50457D01*
G01X8473Y50425D01*
G01X8441Y50384D01*
G01X8417Y50335D01*
G01X8402Y50278D01*
G01X8396Y50213D01*
G01X8402Y50148D01*
G01X8417Y50091D01*
G01X8441Y50041D01*
G01X8473Y50000D01*
G01X8510Y49967D01*
G01X8553Y49943D01*
G01X8601Y49928D01*
G01X8650Y49924D01*
G01X8700Y49928D01*
G01X8746Y49943D01*
G01X8789Y49967D01*
G01X8826Y50000D01*
G01X8857Y50041D01*
G01X8881Y50091D01*
G01X8896Y50148D01*
G01X8901Y50213D01*
G01X8896Y50278D01*
G01X8881Y50335D01*
G01X8857Y50384D01*
G01X8826Y50425D01*
G01X8789Y50457D01*
G01X8746Y50481D01*
G01X8700Y50495D01*
G37*

%LPC*%
G36*
G01X8718Y50415D02*
G01X8650Y50432D01*
G01X8582Y50415D01*
G01X8529Y50371D01*
G01X8495Y50301D01*
G01X8482Y50213D01*
G01X8495Y50123D01*
G01X8529Y50054D01*
G01X8582Y50010D01*
G01X8650Y49995D01*
G01X8718Y50010D01*
G01X8771Y50054D01*
G01X8805Y50123D01*
G01X8818Y50213D01*
G01X8805Y50301D01*
G01X8771Y50371D01*
G01X8718Y50415D01*
G37*

%LPD*%
G36*
G01X9143Y50746D02*
G01X9061Y50746D01*
G01X9061Y50033D01*
G01X9059Y50015D01*
G01X9054Y50003D01*
G01X9046Y49997D01*
G01X9036Y49995D01*
G01X9016Y49995D01*
G01X9003Y49931D01*
G01X9013Y49929D01*
G01X9025Y49926D01*
G01X9038Y49924D01*
G01X9054Y49924D01*
G01X9094Y49931D01*
G01X9122Y49953D01*
G01X9138Y49989D01*
G01X9143Y50038D01*
G01X9143Y50746D01*
G37*

%LPD*%
G36*
G01X9594Y50495D02*
G01X9544Y50500D01*
G01X9495Y50495D01*
G01X9449Y50481D01*
G01X9406Y50457D01*
G01X9369Y50425D01*
G01X9337Y50384D01*
G01X9313Y50335D01*
G01X9298Y50278D01*
G01X9293Y50213D01*
G01X9298Y50148D01*
G01X9313Y50091D01*
G01X9337Y50041D01*
G01X9369Y50000D01*
G01X9406Y49967D01*
G01X9449Y49943D01*
G01X9495Y49928D01*
G01X9544Y49924D01*
G01X9594Y49928D01*
G01X9641Y49943D01*
G01X9684Y49967D01*
G01X9722Y50000D01*
G01X9753Y50041D01*
G01X9777Y50091D01*
G01X9793Y50148D01*
G01X9798Y50213D01*
G01X9793Y50278D01*
G01X9777Y50335D01*
G01X9753Y50384D01*
G01X9722Y50425D01*
G01X9684Y50457D01*
G01X9641Y50481D01*
G01X9594Y50495D01*
G37*

%LPC*%
G36*
G01X9612Y50415D02*
G01X9544Y50432D01*
G01X9477Y50415D01*
G01X9424Y50371D01*
G01X9389Y50301D01*
G01X9376Y50213D01*
G01X9389Y50123D01*
G01X9424Y50054D01*
G01X9477Y50010D01*
G01X9544Y49995D01*
G01X9612Y50010D01*
G01X9665Y50054D01*
G01X9700Y50123D01*
G01X9712Y50213D01*
G01X9700Y50301D01*
G01X9665Y50371D01*
G01X9612Y50415D01*
G37*

%LPD*%
G36*
G01X10157Y50495D02*
G01X10110Y50500D01*
G01X10062Y50496D01*
G01X10019Y50482D01*
G01X9982Y50460D01*
G01X9951Y50431D01*
G01X9927Y50394D01*
G01X9909Y50350D01*
G01X9898Y50299D01*
G01X9895Y50244D01*
G01X9895Y50217D01*
G01X9896Y50204D01*
G01X9897Y50193D01*
G01X10273Y50193D01*
G01X10257Y50109D01*
G01X10218Y50045D01*
G01X10160Y50004D01*
G01X10085Y49990D01*
G01X10046Y49993D01*
G01X10010Y50002D01*
G01X9977Y50016D01*
G01X9945Y50035D01*
G01X9915Y49979D01*
G01X9953Y49958D01*
G01X9995Y49940D01*
G01X10042Y49928D01*
G01X10095Y49924D01*
G01X10148Y49928D01*
G01X10197Y49943D01*
G01X10241Y49967D01*
G01X10279Y50000D01*
G01X10311Y50041D01*
G01X10335Y50091D01*
G01X10349Y50148D01*
G01X10354Y50213D01*
G01X10349Y50276D01*
G01X10334Y50333D01*
G01X10310Y50382D01*
G01X10279Y50423D01*
G01X10243Y50456D01*
G01X10201Y50480D01*
G01X10157Y50495D01*
G37*

%LPC*%
G36*
G01X10167Y50422D02*
G01X10108Y50434D01*
G01X10049Y50422D01*
G01X10004Y50387D01*
G01X9975Y50331D01*
G01X9966Y50254D01*
G01X10273Y50254D01*
G01X10254Y50330D01*
G01X10217Y50387D01*
G01X10167Y50422D01*
G37*

%LPD*%
G36*
G01X10636Y50495D02*
G01X10585Y50500D01*
G01X10535Y50495D01*
G01X10492Y50480D01*
G01X10455Y50459D01*
G01X10423Y50434D01*
G01X10469Y50381D01*
G01X10492Y50402D01*
G01X10519Y50417D01*
G01X10548Y50428D01*
G01X10580Y50432D01*
G01X10653Y50415D01*
G01X10710Y50371D01*
G01X10748Y50301D01*
G01X10761Y50213D01*
G01X10748Y50123D01*
G01X10712Y50054D01*
G01X10656Y50010D01*
G01X10583Y49995D01*
G01X10545Y49999D01*
G01X10510Y50011D01*
G01X10478Y50029D01*
G01X10451Y50051D01*
G01X10413Y49995D01*
G01X10453Y49965D01*
G01X10496Y49943D01*
G01X10542Y49929D01*
G01X10591Y49924D01*
G01X10643Y49928D01*
G01X10692Y49943D01*
G01X10735Y49967D01*
G01X10772Y50000D01*
G01X10802Y50041D01*
G01X10825Y50091D01*
G01X10839Y50148D01*
G01X10845Y50213D01*
G01X10839Y50278D01*
G01X10823Y50335D01*
G01X10799Y50384D01*
G01X10766Y50425D01*
G01X10728Y50457D01*
G01X10684Y50481D01*
G01X10636Y50495D01*
G37*

%LPD*%
G36*
G01X12549Y50495D02*
G01X12501Y50500D01*
G01X12451Y50495D01*
G01X12404Y50481D01*
G01X12361Y50457D01*
G01X12323Y50425D01*
G01X12291Y50384D01*
G01X12267Y50335D01*
G01X12252Y50278D01*
G01X12247Y50213D01*
G01X12252Y50148D01*
G01X12267Y50091D01*
G01X12291Y50041D01*
G01X12323Y50000D01*
G01X12361Y49967D01*
G01X12404Y49943D01*
G01X12451Y49928D01*
G01X12501Y49924D01*
G01X12549Y49928D01*
G01X12596Y49943D01*
G01X12638Y49967D01*
G01X12676Y50000D01*
G01X12707Y50041D01*
G01X12731Y50091D01*
G01X12747Y50148D01*
G01X12752Y50213D01*
G01X12747Y50278D01*
G01X12731Y50335D01*
G01X12707Y50384D01*
G01X12676Y50425D01*
G01X12638Y50457D01*
G01X12596Y50481D01*
G01X12549Y50495D01*
G37*

%LPC*%
G36*
G01X12567Y50415D02*
G01X12501Y50432D01*
G01X12433Y50415D01*
G01X12380Y50371D01*
G01X12345Y50301D01*
G01X12333Y50213D01*
G01X12345Y50123D01*
G01X12380Y50054D01*
G01X12433Y50010D01*
G01X12501Y49995D01*
G01X12567Y50010D01*
G01X12619Y50054D01*
G01X12654Y50123D01*
G01X12666Y50213D01*
G01X12654Y50301D01*
G01X12619Y50371D01*
G01X12567Y50415D01*
G37*

%LPD*%
G36*
G01X13032Y50495D02*
G01X12981Y50500D01*
G01X12931Y50495D01*
G01X12888Y50480D01*
G01X12852Y50459D01*
G01X12821Y50434D01*
G01X12864Y50381D01*
G01X12889Y50402D01*
G01X12916Y50417D01*
G01X12946Y50428D01*
G01X12978Y50432D01*
G01X13049Y50415D01*
G01X13105Y50371D01*
G01X13143Y50301D01*
G01X13156Y50213D01*
G01X13143Y50123D01*
G01X13108Y50054D01*
G01X13052Y50010D01*
G01X12981Y49995D01*
G01X12942Y49999D01*
G01X12907Y50011D01*
G01X12875Y50029D01*
G01X12846Y50051D01*
G01X12810Y49995D01*
G01X12849Y49965D01*
G01X12892Y49943D01*
G01X12939Y49929D01*
G01X12988Y49924D01*
G01X13040Y49928D01*
G01X13088Y49943D01*
G01X13131Y49967D01*
G01X13169Y50000D01*
G01X13200Y50041D01*
G01X13222Y50091D01*
G01X13237Y50148D01*
G01X13242Y50213D01*
G01X13237Y50278D01*
G01X13221Y50335D01*
G01X13197Y50384D01*
G01X13164Y50425D01*
G01X13125Y50457D01*
G01X13081Y50481D01*
G01X13032Y50495D01*
G37*

%LPD*%
G36*
G01X13445Y50051D02*
G01X13420Y50056D01*
G01X13397Y50051D01*
G01X13377Y50038D01*
G01X13364Y50017D01*
G01X13359Y49990D01*
G01X13364Y49963D01*
G01X13377Y49942D01*
G01X13397Y49928D01*
G01X13420Y49924D01*
G01X13445Y49928D01*
G01X13465Y49942D01*
G01X13479Y49963D01*
G01X13484Y49990D01*
G01X13479Y50017D01*
G01X13465Y50038D01*
G01X13445Y50051D01*
G37*

%LPD*%
G36*
G01X14073Y50746D02*
G01X13992Y50746D01*
G01X13992Y50523D01*
G01X13994Y50421D01*
G01X13955Y50452D01*
G01X13911Y50477D01*
G01X13866Y50494D01*
G01X13819Y50500D01*
G01X13768Y50495D01*
G01X13723Y50480D01*
G01X13685Y50456D01*
G01X13654Y50424D01*
G01X13630Y50384D01*
G01X13612Y50336D01*
G01X13601Y50282D01*
G01X13598Y50221D01*
G01X13603Y50154D01*
G01X13618Y50095D01*
G01X13641Y50044D01*
G01X13671Y50001D01*
G01X13707Y49968D01*
G01X13748Y49943D01*
G01X13792Y49929D01*
G01X13839Y49924D01*
G01X13878Y49929D01*
G01X13919Y49943D01*
G01X13959Y49965D01*
G01X13997Y49995D01*
G01X13999Y49995D01*
G01X14009Y49939D01*
G01X14073Y49939D01*
G01X14073Y50746D01*
G37*

%LPC*%
G36*
G01X13873Y50426D02*
G01X13837Y50432D01*
G01X13767Y50416D01*
G01X13720Y50373D01*
G01X13693Y50306D01*
G01X13684Y50221D01*
G01X13697Y50126D01*
G01X13732Y50055D01*
G01X13785Y50010D01*
G01X13852Y49995D01*
G01X13882Y49998D01*
G01X13916Y50008D01*
G01X13953Y50027D01*
G01X13992Y50056D01*
G01X13992Y50350D01*
G01X13950Y50385D01*
G01X13911Y50411D01*
G01X13873Y50426D01*
G37*

%LPD*%
G36*
G01X14347Y50487D02*
G01X14266Y50487D01*
G01X14266Y49939D01*
G01X14334Y49939D01*
G01X14340Y50025D01*
G01X14345Y50025D01*
G01X14384Y49983D01*
G01X14426Y49951D01*
G01X14474Y49931D01*
G01X14528Y49924D01*
G01X14602Y49937D01*
G01X14653Y49978D01*
G01X14683Y50044D01*
G01X14693Y50137D01*
G01X14693Y50487D01*
G01X14611Y50487D01*
G01X14611Y50147D01*
G01X14605Y50079D01*
G01X14585Y50033D01*
G01X14551Y50006D01*
G01X14502Y49997D01*
G01X14461Y50002D01*
G01X14424Y50020D01*
G01X14387Y50050D01*
G01X14347Y50094D01*
G01X14347Y50487D01*
G37*

%LPD*%
G36*
G01X15643Y50642D02*
G01X15574Y50642D01*
G01X15574Y50487D01*
G01X15422Y50487D01*
G01X15422Y50419D01*
G01X15574Y50419D01*
G01X15574Y50101D01*
G01X15570Y50055D01*
G01X15556Y50021D01*
G01X15529Y49999D01*
G01X15488Y49992D01*
G01X15472Y49993D01*
G01X15455Y49997D01*
G01X15439Y50002D01*
G01X15424Y50007D01*
G01X15406Y49944D01*
G01X15430Y49936D01*
G01X15456Y49930D01*
G01X15482Y49925D01*
G01X15505Y49924D01*
G01X15577Y49937D01*
G01X15623Y49973D01*
G01X15648Y50031D01*
G01X15655Y50104D01*
G01X15655Y50419D01*
G01X15739Y50419D01*
G01X15739Y50482D01*
G01X15653Y50487D01*
G01X15643Y50642D01*
G37*

%LPD*%
G36*
G01X17555Y50051D02*
G01X17530Y50056D01*
G01X17506Y50051D01*
G01X17487Y50038D01*
G01X17474Y50017D01*
G01X17469Y49990D01*
G01X17474Y49963D01*
G01X17487Y49942D01*
G01X17506Y49928D01*
G01X17530Y49924D01*
G01X17555Y49928D01*
G01X17575Y49942D01*
G01X17588Y49963D01*
G01X17593Y49990D01*
G01X17588Y50017D01*
G01X17575Y50038D01*
G01X17555Y50051D01*
G37*

%LPD*%
G36*
G01X17967Y50488D02*
G01X17888Y50500D01*
G01X17840Y50495D01*
G01X17796Y50482D01*
G01X17755Y50463D01*
G01X17720Y50439D01*
G01X17761Y50386D01*
G01X17790Y50405D01*
G01X17820Y50420D01*
G01X17852Y50431D01*
G01X17888Y50434D01*
G01X17936Y50427D01*
G01X17969Y50409D01*
G01X17989Y50382D01*
G01X17995Y50350D01*
G01X17984Y50315D01*
G01X17958Y50289D01*
G01X17919Y50269D01*
G01X17875Y50254D01*
G01X17814Y50228D01*
G01X17760Y50196D01*
G01X17720Y50152D01*
G01X17705Y50086D01*
G01X17718Y50023D01*
G01X17755Y49971D01*
G01X17817Y49936D01*
G01X17901Y49924D01*
G01X17959Y49929D01*
G01X18013Y49945D01*
G01X18062Y49969D01*
G01X18104Y50000D01*
G01X18063Y50056D01*
G01X18027Y50029D01*
G01X17989Y50008D01*
G01X17946Y49994D01*
G01X17898Y49990D01*
G01X17848Y49997D01*
G01X17812Y50016D01*
G01X17791Y50045D01*
G01X17784Y50081D01*
G01X17795Y50119D01*
G01X17824Y50149D01*
G01X17865Y50170D01*
G01X17911Y50188D01*
G01X17970Y50212D01*
G01X18022Y50244D01*
G01X18059Y50287D01*
G01X18073Y50348D01*
G01X18061Y50407D01*
G01X18026Y50455D01*
G01X17967Y50488D01*
G37*

%LPD*%
G36*
G01X19013Y50642D02*
G01X18942Y50642D01*
G01X18942Y50487D01*
G01X18792Y50487D01*
G01X18792Y50419D01*
G01X18942Y50419D01*
G01X18942Y50101D01*
G01X18938Y50055D01*
G01X18924Y50021D01*
G01X18897Y49999D01*
G01X18856Y49992D01*
G01X18840Y49993D01*
G01X18823Y49997D01*
G01X18807Y50002D01*
G01X18792Y50007D01*
G01X18777Y49944D01*
G01X18801Y49936D01*
G01X18825Y49930D01*
G01X18850Y49925D01*
G01X18873Y49924D01*
G01X18946Y49937D01*
G01X18993Y49973D01*
G01X19018Y50031D01*
G01X19026Y50104D01*
G01X19026Y50419D01*
G01X19110Y50419D01*
G01X19110Y50482D01*
G01X19023Y50487D01*
G01X19013Y50642D01*
G37*

%LPD*%
G36*
G01X19364Y50642D02*
G01X19295Y50642D01*
G01X19295Y50487D01*
G01X19145Y50487D01*
G01X19145Y50419D01*
G01X19295Y50419D01*
G01X19295Y50101D01*
G01X19291Y50055D01*
G01X19277Y50021D01*
G01X19250Y49999D01*
G01X19209Y49992D01*
G01X19193Y49993D01*
G01X19176Y49997D01*
G01X19160Y50002D01*
G01X19145Y50007D01*
G01X19130Y49944D01*
G01X19154Y49936D01*
G01X19178Y49930D01*
G01X19203Y49925D01*
G01X19227Y49924D01*
G01X19299Y49937D01*
G01X19346Y49973D01*
G01X19371Y50031D01*
G01X19379Y50104D01*
G01X19379Y50419D01*
G01X19460Y50419D01*
G01X19460Y50482D01*
G01X19374Y50487D01*
G01X19364Y50642D01*
G37*

%LPD*%
G36*
G01X6562Y50741D02*
G01X6501Y50741D01*
G01X6816Y49756D01*
G01X6877Y49756D01*
G01X6562Y50741D01*
G37*

%LPD*%
G36*
G01X10936Y50741D02*
G01X10875Y50741D01*
G01X11187Y49756D01*
G01X11248Y49756D01*
G01X10936Y50741D01*
G37*

%LPD*%
G36*
G01X16669Y50741D02*
G01X16608Y50741D01*
G01X16923Y49756D01*
G01X16984Y49756D01*
G01X16669Y50741D01*
G37*

%LPD*%
G36*
G01X17068Y50741D02*
G01X17007Y50741D01*
G01X17322Y49756D01*
G01X17382Y49756D01*
G01X17068Y50741D01*
G37*

%LPD*%
G36*
G01X18458Y50494D02*
G01X18411Y50500D01*
G01X18360Y50495D01*
G01X18316Y50480D01*
G01X18278Y50456D01*
G01X18247Y50424D01*
G01X18222Y50384D01*
G01X18204Y50336D01*
G01X18194Y50282D01*
G01X18190Y50221D01*
G01X18195Y50154D01*
G01X18210Y50095D01*
G01X18233Y50044D01*
G01X18263Y50001D01*
G01X18299Y49968D01*
G01X18340Y49943D01*
G01X18385Y49929D01*
G01X18432Y49924D01*
G01X18470Y49928D01*
G01X18508Y49941D01*
G01X18547Y49962D01*
G01X18586Y49990D01*
G01X18584Y49893D01*
G01X18584Y49703D01*
G01X18665Y49703D01*
G01X18665Y50487D01*
G01X18599Y50487D01*
G01X18592Y50421D01*
G01X18586Y50421D01*
G01X18547Y50451D01*
G01X18504Y50476D01*
G01X18458Y50494D01*
G37*

%LPC*%
G36*
G01X18466Y50426D02*
G01X18429Y50432D01*
G01X18359Y50416D01*
G01X18312Y50373D01*
G01X18285Y50306D01*
G01X18277Y50221D01*
G01X18289Y50126D01*
G01X18324Y50055D01*
G01X18377Y50010D01*
G01X18444Y49995D01*
G01X18474Y49998D01*
G01X18508Y50008D01*
G01X18545Y50027D01*
G01X18584Y50056D01*
G01X18584Y50350D01*
G01X18543Y50385D01*
G01X18504Y50411D01*
G01X18466Y50426D01*
G37*

%LPD*%
G36*
G01X5574Y50486D02*
G01X5495Y50500D01*
G01X5473Y50499D01*
G01X5454Y50496D01*
G01X5435Y50491D01*
G01X5419Y50487D01*
G01X5231Y50487D01*
G01X5231Y50421D01*
G01X5345Y50421D01*
G01X5326Y50399D01*
G01X5311Y50372D01*
G01X5301Y50340D01*
G01X5297Y50305D01*
G01X5313Y50225D01*
G01X5356Y50164D01*
G01X5419Y50125D01*
G01X5495Y50111D01*
G01X5517Y50113D01*
G01X5539Y50117D01*
G01X5561Y50123D01*
G01X5582Y50132D01*
G01X5596Y50118D01*
G01X5607Y50103D01*
G01X5615Y50085D01*
G01X5617Y50063D01*
G01X5613Y50038D01*
G01X5597Y50018D01*
G01X5567Y50004D01*
G01X5521Y50000D01*
G01X5409Y50000D01*
G01X5327Y49992D01*
G01X5268Y49969D01*
G01X5233Y49929D01*
G01X5221Y49870D01*
G01X5226Y49834D01*
G01X5240Y49799D01*
G01X5264Y49767D01*
G01X5295Y49739D01*
G01X5335Y49715D01*
G01X5382Y49697D01*
G01X5435Y49686D01*
G01X5495Y49682D01*
G01X5587Y49692D01*
G01X5659Y49721D01*
G01X5705Y49768D01*
G01X5721Y49832D01*
G01X5716Y49866D01*
G01X5700Y49899D01*
G01X5674Y49930D01*
G01X5640Y49957D01*
G01X5640Y49962D01*
G01X5659Y49977D01*
G01X5675Y49996D01*
G01X5685Y50021D01*
G01X5688Y50051D01*
G01X5683Y50083D01*
G01X5669Y50110D01*
G01X5649Y50134D01*
G01X5627Y50152D01*
G01X5627Y50157D01*
G01X5654Y50183D01*
G01X5676Y50217D01*
G01X5692Y50257D01*
G01X5698Y50305D01*
G01X5683Y50385D01*
G01X5639Y50447D01*
G01X5574Y50486D01*
G37*

%LPC*%
G36*
G01X5615Y49916D02*
G01X5587Y49939D01*
G01X5568Y49935D01*
G01X5550Y49933D01*
G01X5533Y49932D01*
G01X5518Y49931D01*
G01X5417Y49931D01*
G01X5368Y49928D01*
G01X5332Y49915D01*
G01X5310Y49893D01*
G01X5302Y49857D01*
G01X5315Y49814D01*
G01X5352Y49777D01*
G01X5408Y49750D01*
G01X5483Y49741D01*
G01X5552Y49748D01*
G01X5605Y49769D01*
G01X5637Y49801D01*
G01X5648Y49842D01*
G01X5644Y49867D01*
G01X5633Y49892D01*
G01X5615Y49916D01*
G37*
G36*
G01X5544Y50429D02*
G01X5495Y50439D01*
G01X5449Y50429D01*
G01X5409Y50403D01*
G01X5383Y50361D01*
G01X5373Y50305D01*
G01X5383Y50249D01*
G01X5409Y50205D01*
G01X5449Y50177D01*
G01X5495Y50167D01*
G01X5543Y50177D01*
G01X5582Y50205D01*
G01X5610Y50249D01*
G01X5620Y50305D01*
G01X5610Y50361D01*
G01X5583Y50403D01*
G01X5544Y50429D01*
G37*

%LPD*%
G36*
G01X16409Y50486D02*
G01X16331Y50500D01*
G01X16309Y50499D01*
G01X16288Y50496D01*
G01X16270Y50491D01*
G01X16255Y50487D01*
G01X16064Y50487D01*
G01X16064Y50421D01*
G01X16179Y50421D01*
G01X16161Y50399D01*
G01X16146Y50372D01*
G01X16136Y50340D01*
G01X16133Y50305D01*
G01X16148Y50225D01*
G01X16190Y50164D01*
G01X16253Y50125D01*
G01X16331Y50111D01*
G01X16351Y50113D01*
G01X16373Y50117D01*
G01X16394Y50123D01*
G01X16415Y50132D01*
G01X16429Y50118D01*
G01X16440Y50103D01*
G01X16448Y50085D01*
G01X16450Y50063D01*
G01X16446Y50038D01*
G01X16430Y50018D01*
G01X16400Y50004D01*
G01X16354Y50000D01*
G01X16245Y50000D01*
G01X16161Y49992D01*
G01X16102Y49969D01*
G01X16066Y49929D01*
G01X16054Y49870D01*
G01X16059Y49834D01*
G01X16073Y49799D01*
G01X16097Y49767D01*
G01X16128Y49739D01*
G01X16168Y49715D01*
G01X16215Y49697D01*
G01X16268Y49686D01*
G01X16328Y49682D01*
G01X16420Y49692D01*
G01X16492Y49721D01*
G01X16538Y49768D01*
G01X16554Y49832D01*
G01X16549Y49866D01*
G01X16533Y49899D01*
G01X16507Y49930D01*
G01X16473Y49957D01*
G01X16473Y49962D01*
G01X16493Y49977D01*
G01X16509Y49996D01*
G01X16520Y50021D01*
G01X16524Y50051D01*
G01X16518Y50083D01*
G01X16503Y50110D01*
G01X16483Y50134D01*
G01X16463Y50152D01*
G01X16463Y50157D01*
G01X16489Y50183D01*
G01X16512Y50217D01*
G01X16528Y50257D01*
G01X16534Y50305D01*
G01X16518Y50385D01*
G01X16474Y50447D01*
G01X16409Y50486D01*
G37*

%LPC*%
G36*
G01X16449Y49916D02*
G01X16422Y49939D01*
G01X16403Y49935D01*
G01X16384Y49933D01*
G01X16366Y49932D01*
G01X16351Y49931D01*
G01X16250Y49931D01*
G01X16201Y49928D01*
G01X16165Y49915D01*
G01X16143Y49893D01*
G01X16135Y49857D01*
G01X16148Y49814D01*
G01X16185Y49777D01*
G01X16242Y49750D01*
G01X16316Y49741D01*
G01X16385Y49748D01*
G01X16438Y49769D01*
G01X16470Y49801D01*
G01X16481Y49842D01*
G01X16477Y49867D01*
G01X16467Y49892D01*
G01X16449Y49916D01*
G37*
G36*
G01X16378Y50429D02*
G01X16331Y50439D01*
G01X16283Y50429D01*
G01X16243Y50403D01*
G01X16216Y50361D01*
G01X16206Y50305D01*
G01X16217Y50249D01*
G01X16244Y50205D01*
G01X16284Y50177D01*
G01X16331Y50167D01*
G01X16378Y50177D01*
G01X16417Y50205D01*
G01X16443Y50249D01*
G01X16453Y50305D01*
G01X16443Y50361D01*
G01X16417Y50403D01*
G01X16378Y50429D01*
G37*

%LPD*%
G01X13102Y67832D02*
G01X14037Y67832D01*
G01X13570Y68300D02*
G01X13570Y67364D01*
G01X12946Y65702D02*
G01X13777Y65702D01*
G01X13933Y65754D01*
G01X13985Y65806D01*
G01X14037Y65910D01*
G01X14037Y66014D01*
G01X13985Y66117D01*
G01X13933Y66169D01*
G01X13777Y66221D01*
G01X13673Y66221D01*
G01X13102Y64632D02*
G01X12998Y64735D01*
G01X12946Y64891D01*
G01X12946Y65099D01*
G01X12998Y65255D01*
G01X13102Y65359D01*
G01X13206Y65359D01*
G01X13310Y65307D01*
G01X13362Y65255D01*
G01X13414Y65151D01*
G01X13518Y64839D01*
G01X13570Y64735D01*
G01X13622Y64683D01*
G01X13725Y64632D01*
G01X13881Y64632D01*
G01X13985Y64735D01*
G01X14037Y64891D01*
G01X14037Y65099D01*
G01X13985Y65255D01*
G01X13881Y65359D01*
G01X12946Y63925D02*
G01X14037Y63925D01*
G01X12946Y64289D02*
G01X12946Y63561D01*
G01X13570Y62418D02*
G01X13570Y61483D01*
G54D23*
G01X991Y80999D02*
G01X2376Y80999D01*
G01X2654Y80907D01*
G01X2838Y80722D01*
G01X2931Y80445D01*
G01X2931Y80261D01*
G01X2838Y79983D01*
G01X2654Y79799D01*
G01X2376Y79706D01*
G01X991Y79706D01*
G01X1268Y77804D02*
G01X1083Y77988D01*
G01X991Y78265D01*
G01X991Y78635D01*
G01X1083Y78912D01*
G01X1268Y79097D01*
G01X1453Y79097D01*
G01X1638Y79004D01*
G01X1730Y78912D01*
G01X1822Y78727D01*
G01X2007Y78173D01*
G01X2099Y77988D01*
G01X2192Y77896D01*
G01X2376Y77804D01*
G01X2654Y77804D01*
G01X2838Y77988D01*
G01X2931Y78265D01*
G01X2931Y78635D01*
G01X2838Y78912D01*
G01X2654Y79097D01*
G01X991Y77194D02*
G01X2931Y77194D01*
G01X991Y77194D02*
G01X991Y76363D01*
G01X1083Y76086D01*
G01X1176Y75993D01*
G01X1360Y75901D01*
G01X1545Y75901D01*
G01X1730Y75993D01*
G01X1822Y76086D01*
G01X1915Y76363D01*
G01X1915Y77194D02*
G01X1915Y76363D01*
G01X2007Y76086D01*
G01X2099Y75993D01*
G01X2284Y75901D01*
G01X2561Y75901D01*
G01X2746Y75993D01*
G01X2838Y76086D01*
G01X2931Y76363D01*
G01X2931Y77194D01*
G54D10*
G01X3400Y30000D02*
G01X5900Y30000D01*
G01X5900Y20000D01*
G01X3400Y20000D01*
G01X3400Y30000D01*
G01X26200Y30000D02*
G01X28700Y30000D01*
G01X28700Y20000D01*
G01X26200Y20000D01*
G01X26200Y30000D01*
G01X3400Y8499D02*
G01X5900Y8499D01*
G01X5900Y999D01*
G01X3400Y999D01*
G01X3400Y8499D01*
G01X26200Y8499D02*
G01X28700Y8499D01*
G01X28700Y999D01*
G01X26200Y999D01*
G01X26200Y8499D01*
G01X21299Y59964D02*
G01X31100Y59964D01*
G01X31100Y48628D01*
G01X21299Y48628D01*
G01X21299Y59964D01*
G01X700Y59964D02*
G01X31139Y59964D01*
G01X31139Y48600D01*
G01X700Y48600D01*
G01X700Y59964D01*
G01X728Y59968D02*
G01X21229Y59968D01*
G01X21229Y52168D01*
G01X728Y52168D01*
G01X728Y59968D01*
M00*
M02*
