;Layer: Drill PTH
;EasyEDA v6.3.43, 2020-06-01T13:25:17--4:00
;027e7c98d4664958ba99b1e46bb510d5,7404d47bf86b4b15bb797b085195da26,10
;Gerber Generator version 0.2
M48
METRIC,LZ,000.000
;Holesize 1 = 0.305 METRIC
T01C0.305
;Holesize 2 = 1.016 METRIC
T02C1.016
%
G05
G90
T01
X+027200Y+056900
X+027200Y+039899
X+027200Y+017400
X+027200Y+077900
T02
X+007180Y+021200
X+004640Y+021200
X+004640Y+028820
X+004640Y+026280
X+004640Y+023740
X+007180Y+023740
X+007180Y+026280
X+007180Y+028820
X+017340Y+028820
X+017340Y+026280
X+017340Y+023740
X+014800Y+023740
X+014800Y+026280
X+014800Y+021200
X+017340Y+021200
X+012260Y+021200
X+009720Y+021200
X+009720Y+028820
X+009720Y+026280
X+009720Y+023740
X+012260Y+023740
X+012260Y+026280
X+012259Y+028820
X+022420Y+021200
X+019880Y+021200
X+019880Y+028820
X+019880Y+026280
X+019880Y+023740
X+022420Y+023740
X+022420Y+026280
X+022420Y+028820
X+024960Y+028820
X+024960Y+026280
X+024960Y+023740
X+024960Y+021200
X+027500Y+028820
X+027500Y+026280
X+027500Y+023740
X+027500Y+021200
X+014800Y+028820
X+027500Y+002199
X+027500Y+004739
X+027500Y+007279
X+024960Y+002199
X+024960Y+004739
X+024960Y+007279
X+022420Y+007279
X+022420Y+004739
X+019880Y+004739
X+019880Y+007279
X+019880Y+002199
X+022420Y+002199
X+012260Y+007279
X+012260Y+004739
X+009720Y+004739
X+009720Y+007279
X+009720Y+002199
X+012260Y+002199
X+017340Y+002199
X+014800Y+002199
X+014800Y+007279
X+014800Y+004739
X+017340Y+004739
X+017340Y+007279
X+007180Y+007279
X+007180Y+004739
X+004640Y+004739
X+004640Y+007279
X+004640Y+002199
X+007180Y+002199
X+012259Y+031360
X+014799Y+031360
X+017339Y+031360
X+019879Y+031360
X+019919Y+009820
X+017379Y+009820
X+014839Y+009820
X+012299Y+009820
X+001303Y+070980
X+003843Y+070980
X+006383Y+070980
X+008923Y+070980
X+011463Y+070980
X+014003Y+070980
X+016543Y+070980
X+019083Y+070980
X+021623Y+070980
X+024163Y+070980
X+001303Y+086220
X+003843Y+086220
X+006383Y+086220
X+008923Y+086220
X+011463Y+086220
X+014003Y+086220
X+016543Y+086220
X+019083Y+086220
X+021623Y+086220
X+024163Y+086220
M30
