G04 Layer: TopPasteMaskLayer*
G04 EasyEDA v6.4.0, 2020-07-11T15:36:10--4:00*
G04 5c711a7485794da784dbd98b48a371f8,7404d47bf86b4b15bb797b085195da26,10*
G04 Gerber Generator version 0.2*
G04 Scale: 100 percent, Rotated: No, Reflected: No *
G04 Dimensions in millimeters *
G04 leading zeros omitted , absolute positions ,3 integer and 3 decimal *
%FSLAX33Y33*%
%MOMM*%
G90*
G71D02*

%ADD13R,0.799998X0.499999*%
%ADD14R,0.999998X1.099998*%
%ADD15R,1.099998X0.999998*%
%ADD16R,0.499999X0.550012*%
%ADD17R,1.299997X0.699999*%

%LPD*%
G54D13*
G01X4699Y66799D03*
G01X4699Y65799D03*
G54D14*
G01X4100Y77800D03*
G01X2500Y77800D03*
G54D15*
G01X2500Y81299D03*
G01X2500Y82899D03*
G01X8400Y81299D03*
G01X8400Y82899D03*
G54D16*
G01X4900Y82549D03*
G01X4900Y83449D03*
G01X6100Y83449D03*
G01X6100Y82549D03*
G54D14*
G01X25899Y76600D03*
G01X24099Y76600D03*
G01X25899Y51600D03*
G01X24099Y51600D03*
G01X25899Y34700D03*
G01X24099Y34700D03*
G01X25899Y12200D03*
G01X24099Y12200D03*
G01X24199Y80600D03*
G01X25800Y80600D03*
G01X24199Y55500D03*
G01X25800Y55500D03*
G01X24199Y38500D03*
G01X25800Y38500D03*
G01X24199Y16000D03*
G01X25800Y16000D03*
G54D17*
G01X12999Y55350D03*
G01X18999Y55350D03*
G01X12999Y51649D03*
G01X18999Y51649D03*
G01X12999Y38350D03*
G01X18999Y38350D03*
G01X12999Y34649D03*
G01X18999Y34649D03*
G01X12999Y15850D03*
G01X18999Y15850D03*
G01X12999Y12149D03*
G01X18999Y12149D03*
G01X18999Y74150D03*
G01X12999Y74150D03*
G01X18999Y77850D03*
G01X12999Y77850D03*
M00*
M02*
