G04 Layer: TopPasteMaskLayer*
G04 EasyEDA v6.3.41, 2020-05-07T17:32:53--4:00*
G04 d717aee7dc5049f39d0e7fcf31ef931a,7404d47bf86b4b15bb797b085195da26,10*
G04 Gerber Generator version 0.2*
G04 Scale: 100 percent, Rotated: No, Reflected: No *
G04 Dimensions in millimeters *
G04 leading zeros omitted , absolute positions ,3 integer and 3 decimal *
%FSLAX33Y33*%
%MOMM*%
G90*
G71D02*

%ADD13R,1.550010X0.999998*%
%ADD14R,0.499999X0.550012*%
%ADD15R,0.999998X1.550010*%
%ADD16R,1.399997X1.199998*%
%ADD17R,0.999998X1.099998*%
%ADD18R,1.299997X0.699999*%

%LPD*%
G54D13*
G01X2899Y81500D03*
G01X2899Y83500D03*
G54D14*
G01X4900Y82549D03*
G01X4900Y83449D03*
G01X6100Y83449D03*
G01X6100Y82549D03*
G54D15*
G01X4499Y79200D03*
G01X2499Y79200D03*
G54D13*
G01X8200Y81400D03*
G01X8200Y83400D03*
G54D16*
G01X21999Y76600D03*
G01X21999Y79999D03*
G01X21999Y51500D03*
G01X21999Y54899D03*
G01X21999Y34500D03*
G01X21999Y37899D03*
G01X21999Y12000D03*
G01X21999Y15400D03*
G54D17*
G01X25899Y76600D03*
G01X24099Y76600D03*
G01X25899Y51500D03*
G01X24099Y51500D03*
G01X25899Y34500D03*
G01X24099Y34500D03*
G01X25899Y12000D03*
G01X24099Y12000D03*
G01X24199Y80600D03*
G01X25800Y80600D03*
G01X24199Y55500D03*
G01X25800Y55500D03*
G01X24199Y38500D03*
G01X25800Y38500D03*
G01X24199Y16000D03*
G01X25800Y16000D03*
G54D18*
G01X12999Y55350D03*
G01X18999Y55350D03*
G01X12999Y51649D03*
G01X18999Y51649D03*
G01X12999Y38350D03*
G01X18999Y38350D03*
G01X12999Y34649D03*
G01X18999Y34649D03*
G01X12999Y15850D03*
G01X18999Y15850D03*
G01X12999Y12149D03*
G01X18999Y12149D03*
G01X18999Y74150D03*
G01X12999Y74150D03*
G01X18999Y77850D03*
G01X12999Y77850D03*
M00*
M02*
