G04 Layer: TopSolderMaskLayer*
G04 EasyEDA v6.3.41, 2020-05-07T17:32:53--4:00*
G04 d717aee7dc5049f39d0e7fcf31ef931a,7404d47bf86b4b15bb797b085195da26,10*
G04 Gerber Generator version 0.2*
G04 Scale: 100 percent, Rotated: No, Reflected: No *
G04 Dimensions in millimeters *
G04 leading zeros omitted , absolute positions ,3 integer and 3 decimal *
%FSLAX33Y33*%
%MOMM*%
G90*
G71D02*

%ADD27C,2.032203*%
%ADD28C,1.448003*%

%LPD*%
G54D27*
G01X7180Y21199D03*
G01X4640Y21199D03*
G01X4640Y28819D03*
G01X4640Y26279D03*
G01X4640Y23739D03*
G01X7180Y23739D03*
G01X7180Y26279D03*
G01X7180Y28819D03*
G01X17340Y28819D03*
G01X17340Y26279D03*
G01X17340Y23739D03*
G01X14800Y23739D03*
G01X14800Y26279D03*
G01X14800Y21199D03*
G01X17340Y21199D03*
G01X12260Y21199D03*
G01X9720Y21199D03*
G01X9720Y28819D03*
G01X9720Y26279D03*
G01X9720Y23739D03*
G01X12260Y23739D03*
G01X12260Y26279D03*
G01X12260Y28819D03*
G01X22420Y21199D03*
G01X19880Y21199D03*
G01X19880Y28819D03*
G01X19880Y26279D03*
G01X19880Y23739D03*
G01X22420Y23739D03*
G01X22420Y26279D03*
G01X22420Y28819D03*
G01X24960Y28819D03*
G01X24960Y26279D03*
G01X24960Y23739D03*
G01X24960Y21199D03*
G01X27500Y28819D03*
G01X27500Y26279D03*
G01X27500Y23739D03*
G01X27500Y21199D03*
G01X14800Y28819D03*
G01X27500Y2199D03*
G01X27500Y4739D03*
G01X27500Y7279D03*
G01X24960Y2199D03*
G01X24960Y4739D03*
G01X24960Y7279D03*
G01X22420Y7279D03*
G01X22420Y4739D03*
G01X19880Y4739D03*
G01X19880Y7279D03*
G01X19880Y2199D03*
G01X22420Y2199D03*
G01X12260Y7279D03*
G01X12260Y4739D03*
G01X9720Y4739D03*
G01X9720Y7279D03*
G01X9720Y2199D03*
G01X12260Y2199D03*
G01X17340Y2199D03*
G01X14800Y2199D03*
G01X14800Y7279D03*
G01X14800Y4739D03*
G01X17340Y4739D03*
G01X17340Y7279D03*
G01X7180Y7279D03*
G01X7180Y4739D03*
G01X4640Y4739D03*
G01X4640Y7279D03*
G01X4640Y2199D03*
G01X7180Y2199D03*
G01X12260Y31359D03*
G01X14800Y31359D03*
G01X17340Y31359D03*
G01X19880Y31359D03*
G01X19919Y9819D03*
G01X17379Y9819D03*
G01X14839Y9819D03*
G01X12299Y9819D03*
G54D28*
G01X29999Y88000D03*
G01X29999Y2000D03*
G01X1999Y2000D03*
G36*
G01X2023Y80898D02*
G01X2023Y82102D01*
G01X3775Y82102D01*
G01X3775Y80898D01*
G01X2023Y80898D01*
G37*
G36*
G01X2023Y82897D02*
G01X2023Y84101D01*
G01X3775Y84101D01*
G01X3775Y82897D01*
G01X2023Y82897D01*
G37*
G36*
G01X4547Y82173D02*
G01X4547Y82925D01*
G01X5251Y82925D01*
G01X5251Y82173D01*
G01X4547Y82173D01*
G37*
G36*
G01X4547Y83073D02*
G01X4547Y83824D01*
G01X5251Y83824D01*
G01X5251Y83073D01*
G01X4547Y83073D01*
G37*
G36*
G01X5749Y83073D02*
G01X5749Y83824D01*
G01X6452Y83824D01*
G01X6452Y83073D01*
G01X5749Y83073D01*
G37*
G36*
G01X5749Y82173D02*
G01X5749Y82925D01*
G01X6452Y82925D01*
G01X6452Y82173D01*
G01X5749Y82173D01*
G37*
G54D27*
G01X1303Y70980D03*
G01X3843Y70980D03*
G01X6383Y70980D03*
G01X8923Y70980D03*
G01X11463Y70980D03*
G01X14003Y70980D03*
G01X16543Y70980D03*
G01X19083Y70980D03*
G01X21623Y70980D03*
G01X24163Y70980D03*
G01X1303Y86220D03*
G01X3843Y86220D03*
G01X6383Y86220D03*
G01X8923Y86220D03*
G01X11463Y86220D03*
G01X14003Y86220D03*
G01X16543Y86220D03*
G01X19083Y86220D03*
G01X21623Y86220D03*
G01X24163Y86220D03*
G36*
G01X3897Y78323D02*
G01X3897Y80075D01*
G01X5101Y80075D01*
G01X5101Y78323D01*
G01X3897Y78323D01*
G37*
G36*
G01X1898Y78323D02*
G01X1898Y80075D01*
G01X3102Y80075D01*
G01X3102Y78323D01*
G01X1898Y78323D01*
G37*
G36*
G01X7324Y80797D02*
G01X7324Y82001D01*
G01X9076Y82001D01*
G01X9076Y80797D01*
G01X7324Y80797D01*
G37*
G36*
G01X7324Y82798D02*
G01X7324Y84002D01*
G01X9076Y84002D01*
G01X9076Y82798D01*
G01X7324Y82798D01*
G37*
G36*
G01X21197Y75897D02*
G01X21197Y77302D01*
G01X22802Y77302D01*
G01X22802Y75897D01*
G01X21197Y75897D01*
G37*
G36*
G01X21197Y79298D02*
G01X21197Y80700D01*
G01X22802Y80700D01*
G01X22802Y79298D01*
G01X21197Y79298D01*
G37*
G36*
G01X21197Y50797D02*
G01X21197Y52201D01*
G01X22802Y52201D01*
G01X22802Y50797D01*
G01X21197Y50797D01*
G37*
G36*
G01X21197Y54198D02*
G01X21197Y55600D01*
G01X22802Y55600D01*
G01X22802Y54198D01*
G01X21197Y54198D01*
G37*
G36*
G01X21197Y33799D02*
G01X21197Y35201D01*
G01X22802Y35201D01*
G01X22802Y33799D01*
G01X21197Y33799D01*
G37*
G36*
G01X21197Y37198D02*
G01X21197Y38602D01*
G01X22802Y38602D01*
G01X22802Y37198D01*
G01X21197Y37198D01*
G37*
G36*
G01X21197Y11297D02*
G01X21197Y12702D01*
G01X22802Y12702D01*
G01X22802Y11297D01*
G01X21197Y11297D01*
G37*
G36*
G01X21197Y14698D02*
G01X21197Y16100D01*
G01X22802Y16100D01*
G01X22802Y14698D01*
G01X21197Y14698D01*
G37*
G36*
G01X25297Y75948D02*
G01X25297Y77251D01*
G01X26501Y77251D01*
G01X26501Y75948D01*
G01X25297Y75948D01*
G37*
G36*
G01X23498Y75948D02*
G01X23498Y77251D01*
G01X24700Y77251D01*
G01X24700Y75948D01*
G01X23498Y75948D01*
G37*
G36*
G01X25297Y50848D02*
G01X25297Y52151D01*
G01X26501Y52151D01*
G01X26501Y50848D01*
G01X25297Y50848D01*
G37*
G36*
G01X23498Y50848D02*
G01X23498Y52151D01*
G01X24700Y52151D01*
G01X24700Y50848D01*
G01X23498Y50848D01*
G37*
G36*
G01X25297Y33847D02*
G01X25297Y35150D01*
G01X26501Y35150D01*
G01X26501Y33847D01*
G01X25297Y33847D01*
G37*
G36*
G01X23498Y33847D02*
G01X23498Y35150D01*
G01X24700Y35150D01*
G01X24700Y33847D01*
G01X23498Y33847D01*
G37*
G36*
G01X25297Y11348D02*
G01X25297Y12651D01*
G01X26501Y12651D01*
G01X26501Y11348D01*
G01X25297Y11348D01*
G37*
G36*
G01X23498Y11348D02*
G01X23498Y12651D01*
G01X24700Y12651D01*
G01X24700Y11348D01*
G01X23498Y11348D01*
G37*
G36*
G01X23597Y79948D02*
G01X23597Y81251D01*
G01X24801Y81251D01*
G01X24801Y79948D01*
G01X23597Y79948D01*
G37*
G36*
G01X25198Y79948D02*
G01X25198Y81251D01*
G01X26402Y81251D01*
G01X26402Y79948D01*
G01X25198Y79948D01*
G37*
G36*
G01X23597Y54848D02*
G01X23597Y56151D01*
G01X24801Y56151D01*
G01X24801Y54848D01*
G01X23597Y54848D01*
G37*
G36*
G01X25198Y54848D02*
G01X25198Y56151D01*
G01X26402Y56151D01*
G01X26402Y54848D01*
G01X25198Y54848D01*
G37*
G36*
G01X23597Y37848D02*
G01X23597Y39151D01*
G01X24801Y39151D01*
G01X24801Y37848D01*
G01X23597Y37848D01*
G37*
G36*
G01X25198Y37848D02*
G01X25198Y39151D01*
G01X26402Y39151D01*
G01X26402Y37848D01*
G01X25198Y37848D01*
G37*
G36*
G01X23597Y15349D02*
G01X23597Y16652D01*
G01X24801Y16652D01*
G01X24801Y15349D01*
G01X23597Y15349D01*
G37*
G36*
G01X25198Y15349D02*
G01X25198Y16652D01*
G01X26402Y16652D01*
G01X26402Y15349D01*
G01X25198Y15349D01*
G37*
G36*
G01X12249Y54899D02*
G01X12249Y55801D01*
G01X13752Y55801D01*
G01X13752Y54899D01*
G01X12249Y54899D01*
G37*
G36*
G01X18248Y54899D02*
G01X18248Y55801D01*
G01X19752Y55801D01*
G01X19752Y54899D01*
G01X18248Y54899D01*
G37*
G36*
G01X12249Y51198D02*
G01X12249Y52100D01*
G01X13752Y52100D01*
G01X13752Y51198D01*
G01X12249Y51198D01*
G37*
G36*
G01X18248Y51198D02*
G01X18248Y52100D01*
G01X19752Y52100D01*
G01X19752Y51198D01*
G01X18248Y51198D01*
G37*
G36*
G01X12249Y37899D02*
G01X12249Y38800D01*
G01X13752Y38800D01*
G01X13752Y37899D01*
G01X12249Y37899D01*
G37*
G36*
G01X18248Y37899D02*
G01X18248Y38800D01*
G01X19752Y38800D01*
G01X19752Y37899D01*
G01X18248Y37899D01*
G37*
G36*
G01X12249Y34198D02*
G01X12249Y35102D01*
G01X13752Y35102D01*
G01X13752Y34198D01*
G01X12249Y34198D01*
G37*
G36*
G01X18248Y34198D02*
G01X18248Y35102D01*
G01X19752Y35102D01*
G01X19752Y34198D01*
G01X18248Y34198D01*
G37*
G36*
G01X12249Y15397D02*
G01X12249Y16301D01*
G01X13752Y16301D01*
G01X13752Y15397D01*
G01X12249Y15397D01*
G37*
G36*
G01X18248Y15397D02*
G01X18248Y16301D01*
G01X19752Y16301D01*
G01X19752Y15397D01*
G01X18248Y15397D01*
G37*
G36*
G01X12249Y11699D02*
G01X12249Y12600D01*
G01X13752Y12600D01*
G01X13752Y11699D01*
G01X12249Y11699D01*
G37*
G36*
G01X18248Y11699D02*
G01X18248Y12600D01*
G01X19752Y12600D01*
G01X19752Y11699D01*
G01X18248Y11699D01*
G37*
G36*
G01X18248Y73697D02*
G01X18248Y74602D01*
G01X19752Y74602D01*
G01X19752Y73697D01*
G01X18248Y73697D01*
G37*
G36*
G01X12249Y73697D02*
G01X12249Y74602D01*
G01X13752Y74602D01*
G01X13752Y73697D01*
G01X12249Y73697D01*
G37*
G36*
G01X18248Y77398D02*
G01X18248Y78302D01*
G01X19752Y78302D01*
G01X19752Y77398D01*
G01X18248Y77398D01*
G37*
G36*
G01X12249Y77398D02*
G01X12249Y78302D01*
G01X13752Y78302D01*
G01X13752Y77398D01*
G01X12249Y77398D01*
G37*
M00*
M02*
