G04 Layer: BottomSolderMaskLayer*
G04 EasyEDA v6.3.41, 2020-05-07T17:32:53--4:00*
G04 d717aee7dc5049f39d0e7fcf31ef931a,7404d47bf86b4b15bb797b085195da26,10*
G04 Gerber Generator version 0.2*
G04 Scale: 100 percent, Rotated: No, Reflected: No *
G04 Dimensions in millimeters *
G04 leading zeros omitted , absolute positions ,3 integer and 3 decimal *
%FSLAX33Y33*%
%MOMM*%
G90*
G71D02*

%ADD27C,2.032203*%
%ADD28C,1.448003*%

%LPD*%
G54D27*
G01X3814Y67699D02*
G01X4985Y67699D01*
G01X3814Y64699D02*
G01X4985Y64699D01*
G01X7180Y21199D03*
G01X4640Y21199D03*
G01X4640Y28819D03*
G01X4640Y26279D03*
G01X4640Y23739D03*
G01X7180Y23739D03*
G01X7180Y26279D03*
G01X7180Y28819D03*
G01X17340Y28819D03*
G01X17340Y26279D03*
G01X17340Y23739D03*
G01X14800Y23739D03*
G01X14800Y26279D03*
G01X14800Y21199D03*
G01X17340Y21199D03*
G01X12260Y21199D03*
G01X9720Y21199D03*
G01X9720Y28819D03*
G01X9720Y26279D03*
G01X9720Y23739D03*
G01X12260Y23739D03*
G01X12260Y26279D03*
G01X12260Y28819D03*
G01X22420Y21199D03*
G01X19880Y21199D03*
G01X19880Y28819D03*
G01X19880Y26279D03*
G01X19880Y23739D03*
G01X22420Y23739D03*
G01X22420Y26279D03*
G01X22420Y28819D03*
G01X24960Y28819D03*
G01X24960Y26279D03*
G01X24960Y23739D03*
G01X24960Y21199D03*
G01X27500Y28819D03*
G01X27500Y26279D03*
G01X27500Y23739D03*
G01X27500Y21199D03*
G01X14800Y28819D03*
G01X27500Y2199D03*
G01X27500Y4739D03*
G01X27500Y7279D03*
G01X24960Y2199D03*
G01X24960Y4739D03*
G01X24960Y7279D03*
G01X22420Y7279D03*
G01X22420Y4739D03*
G01X19880Y4739D03*
G01X19880Y7279D03*
G01X19880Y2199D03*
G01X22420Y2199D03*
G01X12260Y7279D03*
G01X12260Y4739D03*
G01X9720Y4739D03*
G01X9720Y7279D03*
G01X9720Y2199D03*
G01X12260Y2199D03*
G01X17340Y2199D03*
G01X14800Y2199D03*
G01X14800Y7279D03*
G01X14800Y4739D03*
G01X17340Y4739D03*
G01X17340Y7279D03*
G01X7180Y7279D03*
G01X7180Y4739D03*
G01X4640Y4739D03*
G01X4640Y7279D03*
G01X4640Y2199D03*
G01X7180Y2199D03*
G01X12260Y31359D03*
G01X14800Y31359D03*
G01X17340Y31359D03*
G01X19880Y31359D03*
G01X19919Y9819D03*
G01X17379Y9819D03*
G01X14839Y9819D03*
G01X12299Y9819D03*
G54D28*
G01X29999Y88000D03*
G01X29999Y2000D03*
G01X1999Y2000D03*
G54D27*
G01X1303Y70980D03*
G01X3843Y70980D03*
G01X6383Y70980D03*
G01X8923Y70980D03*
G01X11463Y70980D03*
G01X14003Y70980D03*
G01X16543Y70980D03*
G01X19083Y70980D03*
G01X21623Y70980D03*
G01X24163Y70980D03*
G01X1303Y86220D03*
G01X3843Y86220D03*
G01X6383Y86220D03*
G01X8923Y86220D03*
G01X11463Y86220D03*
G01X14003Y86220D03*
G01X16543Y86220D03*
G01X19083Y86220D03*
G01X21623Y86220D03*
G01X24163Y86220D03*
M00*
M02*
